<svg version="1.1" xmlns="http://www.w3.org/2000/svg"
	width="350" height="350"
	viewBox="-5 -5 35 35"
	fill="none"
	stroke="black"
	stroke-width="0.125"
>
	<path d="M-1,0 A1,1 0 0 0 0,-1 A1,1 0 0 0 1,0 H-1 A1,1 0 0 1 0,1 V-1" transform="translate(0 0) scale(0.5)" />
<path d="M-1,0 A1,1 0 0 0 0,-1 A1,1 0 0 0 1,0 H-1 A1,1 0 0 1 0,1 V-1" transform="translate(0 1) scale(0.5)" />
<path d="M-1,0 A1,1 0 0 0 0,-1 A1,1 0 0 0 1,0 H-1 A1,1 0 0 1 0,1 V-1" transform="translate(0 2) scale(0.5)" />
<path d="M-1,0 A1,1 0 0 0 0,-1 A1,1 0 0 0 1,0 H-1 A1,1 0 0 1 0,1 V-1" transform="translate(0 3) scale(0.5)" />
<path d="M-1,0 A1,1 0 0 0 0,-1 A1,1 0 0 0 1,0 H-1 A1,1 0 0 1 0,1 V-1" transform="translate(0 4) scale(0.5)" />
<path d="M-1,0 A1,1 0 0 0 0,-1 A1,1 0 0 0 1,0 H-1 A1,1 0 0 1 0,1 V-1" transform="translate(0 5) scale(0.5)" />
<path d="M-1,0 A1,1 0 0 0 0,-1 A1,1 0 0 0 1,0 H-1 A1,1 0 0 1 0,1 V-1" transform="translate(0 6) scale(0.5)" />
<path d="M-1,0 A1,1 0 0 0 0,-1 A1,1 0 0 0 1,0 H-1 A1,1 0 0 1 0,1 V-1" transform="translate(0 8) scale(0.5)" />
<path d="M-1,0 A1,1 0 0 0 0,-1 A1,1 0 0 0 1,0 H-1 A1,1 0 0 1 0,1 V-1" transform="translate(0 10) scale(0.5)" />
<path d="M-1,0 A1,1 0 0 0 0,-1 A1,1 0 0 0 1,0 H-1 A1,1 0 0 1 0,1 V-1" transform="translate(0 11) scale(0.5)" />
<path d="M-1,0 A1,1 0 0 0 0,-1 A1,1 0 0 0 1,0 H-1 A1,1 0 0 1 0,1 V-1" transform="translate(0 14) scale(0.5)" />
<path d="M-1,0 A1,1 0 0 0 0,-1 A1,1 0 0 0 1,0 H-1 A1,1 0 0 1 0,1 V-1" transform="translate(0 15) scale(0.5)" />
<path d="M-1,0 A1,1 0 0 0 0,-1 A1,1 0 0 0 1,0 H-1 A1,1 0 0 1 0,1 V-1" transform="translate(0 16) scale(0.5)" />
<path d="M-1,0 A1,1 0 0 0 0,-1 A1,1 0 0 0 1,0 H-1 A1,1 0 0 1 0,1 V-1" transform="translate(0 17) scale(0.5)" />
<path d="M-1,0 A1,1 0 0 0 0,-1 A1,1 0 0 0 1,0 H-1 A1,1 0 0 1 0,1 V-1" transform="translate(0 18) scale(0.5)" />
<path d="M-1,0 A1,1 0 0 0 0,-1 A1,1 0 0 0 1,0 H-1 A1,1 0 0 1 0,1 V-1" transform="translate(0 19) scale(0.5)" />
<path d="M-1,0 A1,1 0 0 0 0,-1 A1,1 0 0 0 1,0 H-1 A1,1 0 0 1 0,1 V-1" transform="translate(0 20) scale(0.5)" />
<path d="M-1,0 A1,1 0 0 0 0,-1 A1,1 0 0 0 1,0 H-1 A1,1 0 0 1 0,1 V-1" transform="translate(1 0) scale(0.5)" />
<path d="M-1,0 A1,1 0 0 0 0,-1 A1,1 0 0 0 1,0 H-1 A1,1 0 0 1 0,1 V-1" transform="translate(1 6) scale(0.5)" />
<path d="M-1,0 A1,1 0 0 0 0,-1 A1,1 0 0 0 1,0 H-1 A1,1 0 0 1 0,1 V-1" transform="translate(1 8) scale(0.5)" />
<path d="M-1,0 A1,1 0 0 0 0,-1 A1,1 0 0 0 1,0 H-1 A1,1 0 0 1 0,1 V-1" transform="translate(1 9) scale(0.5)" />
<path d="M-1,0 A1,1 0 0 0 0,-1 A1,1 0 0 0 1,0 H-1 A1,1 0 0 1 0,1 V-1" transform="translate(1 14) scale(0.5)" />
<path d="M-1,0 A1,1 0 0 0 0,-1 A1,1 0 0 0 1,0 H-1 A1,1 0 0 1 0,1 V-1" transform="translate(1 20) scale(0.5)" />
<path d="M-1,0 A1,1 0 0 0 0,-1 A1,1 0 0 0 1,0 H-1 A1,1 0 0 1 0,1 V-1" transform="translate(2 0) scale(0.5)" />
<path d="M-1,0 A1,1 0 0 0 0,-1 A1,1 0 0 0 1,0 H-1 A1,1 0 0 1 0,1 V-1" transform="translate(2 2) scale(0.5)" />
<path d="M-1,0 A1,1 0 0 0 0,-1 A1,1 0 0 0 1,0 H-1 A1,1 0 0 1 0,1 V-1" transform="translate(2 3) scale(0.5)" />
<path d="M-1,0 A1,1 0 0 0 0,-1 A1,1 0 0 0 1,0 H-1 A1,1 0 0 1 0,1 V-1" transform="translate(2 4) scale(0.5)" />
<path d="M-1,0 A1,1 0 0 0 0,-1 A1,1 0 0 0 1,0 H-1 A1,1 0 0 1 0,1 V-1" transform="translate(2 6) scale(0.5)" />
<path d="M-1,0 A1,1 0 0 0 0,-1 A1,1 0 0 0 1,0 H-1 A1,1 0 0 1 0,1 V-1" transform="translate(2 9) scale(0.5)" />
<path d="M-1,0 A1,1 0 0 0 0,-1 A1,1 0 0 0 1,0 H-1 A1,1 0 0 1 0,1 V-1" transform="translate(2 10) scale(0.5)" />
<path d="M-1,0 A1,1 0 0 0 0,-1 A1,1 0 0 0 1,0 H-1 A1,1 0 0 1 0,1 V-1" transform="translate(2 12) scale(0.5)" />
<path d="M-1,0 A1,1 0 0 0 0,-1 A1,1 0 0 0 1,0 H-1 A1,1 0 0 1 0,1 V-1" transform="translate(2 14) scale(0.5)" />
<path d="M-1,0 A1,1 0 0 0 0,-1 A1,1 0 0 0 1,0 H-1 A1,1 0 0 1 0,1 V-1" transform="translate(2 16) scale(0.5)" />
<path d="M-1,0 A1,1 0 0 0 0,-1 A1,1 0 0 0 1,0 H-1 A1,1 0 0 1 0,1 V-1" transform="translate(2 17) scale(0.5)" />
<path d="M-1,0 A1,1 0 0 0 0,-1 A1,1 0 0 0 1,0 H-1 A1,1 0 0 1 0,1 V-1" transform="translate(2 18) scale(0.5)" />
<path d="M-1,0 A1,1 0 0 0 0,-1 A1,1 0 0 0 1,0 H-1 A1,1 0 0 1 0,1 V-1" transform="translate(2 20) scale(0.5)" />
<path d="M-1,0 A1,1 0 0 0 0,-1 A1,1 0 0 0 1,0 H-1 A1,1 0 0 1 0,1 V-1" transform="translate(3 0) scale(0.5)" />
<path d="M-1,0 A1,1 0 0 0 0,-1 A1,1 0 0 0 1,0 H-1 A1,1 0 0 1 0,1 V-1" transform="translate(3 2) scale(0.5)" />
<path d="M-1,0 A1,1 0 0 0 0,-1 A1,1 0 0 0 1,0 H-1 A1,1 0 0 1 0,1 V-1" transform="translate(3 3) scale(0.5)" />
<path d="M-1,0 A1,1 0 0 0 0,-1 A1,1 0 0 0 1,0 H-1 A1,1 0 0 1 0,1 V-1" transform="translate(3 4) scale(0.5)" />
<path d="M-1,0 A1,1 0 0 0 0,-1 A1,1 0 0 0 1,0 H-1 A1,1 0 0 1 0,1 V-1" transform="translate(3 6) scale(0.5)" />
<path d="M-1,0 A1,1 0 0 0 0,-1 A1,1 0 0 0 1,0 H-1 A1,1 0 0 1 0,1 V-1" transform="translate(3 8) scale(0.5)" />
<path d="M-1,0 A1,1 0 0 0 0,-1 A1,1 0 0 0 1,0 H-1 A1,1 0 0 1 0,1 V-1" transform="translate(3 10) scale(0.5)" />
<path d="M-1,0 A1,1 0 0 0 0,-1 A1,1 0 0 0 1,0 H-1 A1,1 0 0 1 0,1 V-1" transform="translate(3 12) scale(0.5)" />
<path d="M-1,0 A1,1 0 0 0 0,-1 A1,1 0 0 0 1,0 H-1 A1,1 0 0 1 0,1 V-1" transform="translate(3 14) scale(0.5)" />
<path d="M-1,0 A1,1 0 0 0 0,-1 A1,1 0 0 0 1,0 H-1 A1,1 0 0 1 0,1 V-1" transform="translate(3 16) scale(0.5)" />
<path d="M-1,0 A1,1 0 0 0 0,-1 A1,1 0 0 0 1,0 H-1 A1,1 0 0 1 0,1 V-1" transform="translate(3 17) scale(0.5)" />
<path d="M-1,0 A1,1 0 0 0 0,-1 A1,1 0 0 0 1,0 H-1 A1,1 0 0 1 0,1 V-1" transform="translate(3 18) scale(0.5)" />
<path d="M-1,0 A1,1 0 0 0 0,-1 A1,1 0 0 0 1,0 H-1 A1,1 0 0 1 0,1 V-1" transform="translate(3 20) scale(0.5)" />
<path d="M-1,0 A1,1 0 0 0 0,-1 A1,1 0 0 0 1,0 H-1 A1,1 0 0 1 0,1 V-1" transform="translate(4 0) scale(0.5)" />
<path d="M-1,0 A1,1 0 0 0 0,-1 A1,1 0 0 0 1,0 H-1 A1,1 0 0 1 0,1 V-1" transform="translate(4 2) scale(0.5)" />
<path d="M-1,0 A1,1 0 0 0 0,-1 A1,1 0 0 0 1,0 H-1 A1,1 0 0 1 0,1 V-1" transform="translate(4 3) scale(0.5)" />
<path d="M-1,0 A1,1 0 0 0 0,-1 A1,1 0 0 0 1,0 H-1 A1,1 0 0 1 0,1 V-1" transform="translate(4 4) scale(0.5)" />
<path d="M-1,0 A1,1 0 0 0 0,-1 A1,1 0 0 0 1,0 H-1 A1,1 0 0 1 0,1 V-1" transform="translate(4 6) scale(0.5)" />
<path d="M-1,0 A1,1 0 0 0 0,-1 A1,1 0 0 0 1,0 H-1 A1,1 0 0 1 0,1 V-1" transform="translate(4 9) scale(0.5)" />
<path d="M-1,0 A1,1 0 0 0 0,-1 A1,1 0 0 0 1,0 H-1 A1,1 0 0 1 0,1 V-1" transform="translate(4 14) scale(0.5)" />
<path d="M-1,0 A1,1 0 0 0 0,-1 A1,1 0 0 0 1,0 H-1 A1,1 0 0 1 0,1 V-1" transform="translate(4 16) scale(0.5)" />
<path d="M-1,0 A1,1 0 0 0 0,-1 A1,1 0 0 0 1,0 H-1 A1,1 0 0 1 0,1 V-1" transform="translate(4 17) scale(0.5)" />
<path d="M-1,0 A1,1 0 0 0 0,-1 A1,1 0 0 0 1,0 H-1 A1,1 0 0 1 0,1 V-1" transform="translate(4 18) scale(0.5)" />
<path d="M-1,0 A1,1 0 0 0 0,-1 A1,1 0 0 0 1,0 H-1 A1,1 0 0 1 0,1 V-1" transform="translate(4 20) scale(0.5)" />
<path d="M-1,0 A1,1 0 0 0 0,-1 A1,1 0 0 0 1,0 H-1 A1,1 0 0 1 0,1 V-1" transform="translate(5 0) scale(0.5)" />
<path d="M-1,0 A1,1 0 0 0 0,-1 A1,1 0 0 0 1,0 H-1 A1,1 0 0 1 0,1 V-1" transform="translate(5 6) scale(0.5)" />
<path d="M-1,0 A1,1 0 0 0 0,-1 A1,1 0 0 0 1,0 H-1 A1,1 0 0 1 0,1 V-1" transform="translate(5 14) scale(0.5)" />
<path d="M-1,0 A1,1 0 0 0 0,-1 A1,1 0 0 0 1,0 H-1 A1,1 0 0 1 0,1 V-1" transform="translate(5 20) scale(0.5)" />
<path d="M-1,0 A1,1 0 0 0 0,-1 A1,1 0 0 0 1,0 H-1 A1,1 0 0 1 0,1 V-1" transform="translate(6 0) scale(0.5)" />
<path d="M-1,0 A1,1 0 0 0 0,-1 A1,1 0 0 0 1,0 H-1 A1,1 0 0 1 0,1 V-1" transform="translate(6 1) scale(0.5)" />
<path d="M-1,0 A1,1 0 0 0 0,-1 A1,1 0 0 0 1,0 H-1 A1,1 0 0 1 0,1 V-1" transform="translate(6 2) scale(0.5)" />
<path d="M-1,0 A1,1 0 0 0 0,-1 A1,1 0 0 0 1,0 H-1 A1,1 0 0 1 0,1 V-1" transform="translate(6 3) scale(0.5)" />
<path d="M-1,0 A1,1 0 0 0 0,-1 A1,1 0 0 0 1,0 H-1 A1,1 0 0 1 0,1 V-1" transform="translate(6 4) scale(0.5)" />
<path d="M-1,0 A1,1 0 0 0 0,-1 A1,1 0 0 0 1,0 H-1 A1,1 0 0 1 0,1 V-1" transform="translate(6 5) scale(0.5)" />
<path d="M-1,0 A1,1 0 0 0 0,-1 A1,1 0 0 0 1,0 H-1 A1,1 0 0 1 0,1 V-1" transform="translate(6 6) scale(0.5)" />
<path d="M-1,0 A1,1 0 0 0 0,-1 A1,1 0 0 0 1,0 H-1 A1,1 0 0 1 0,1 V-1" transform="translate(6 8) scale(0.5)" />
<path d="M-1,0 A1,1 0 0 0 0,-1 A1,1 0 0 0 1,0 H-1 A1,1 0 0 1 0,1 V-1" transform="translate(6 10) scale(0.5)" />
<path d="M-1,0 A1,1 0 0 0 0,-1 A1,1 0 0 0 1,0 H-1 A1,1 0 0 1 0,1 V-1" transform="translate(6 12) scale(0.5)" />
<path d="M-1,0 A1,1 0 0 0 0,-1 A1,1 0 0 0 1,0 H-1 A1,1 0 0 1 0,1 V-1" transform="translate(6 14) scale(0.5)" />
<path d="M-1,0 A1,1 0 0 0 0,-1 A1,1 0 0 0 1,0 H-1 A1,1 0 0 1 0,1 V-1" transform="translate(6 15) scale(0.5)" />
<path d="M-1,0 A1,1 0 0 0 0,-1 A1,1 0 0 0 1,0 H-1 A1,1 0 0 1 0,1 V-1" transform="translate(6 16) scale(0.5)" />
<path d="M-1,0 A1,1 0 0 0 0,-1 A1,1 0 0 0 1,0 H-1 A1,1 0 0 1 0,1 V-1" transform="translate(6 17) scale(0.5)" />
<path d="M-1,0 A1,1 0 0 0 0,-1 A1,1 0 0 0 1,0 H-1 A1,1 0 0 1 0,1 V-1" transform="translate(6 18) scale(0.5)" />
<path d="M-1,0 A1,1 0 0 0 0,-1 A1,1 0 0 0 1,0 H-1 A1,1 0 0 1 0,1 V-1" transform="translate(6 19) scale(0.5)" />
<path d="M-1,0 A1,1 0 0 0 0,-1 A1,1 0 0 0 1,0 H-1 A1,1 0 0 1 0,1 V-1" transform="translate(6 20) scale(0.5)" />
<path d="M-1,0 A1,1 0 0 0 0,-1 A1,1 0 0 0 1,0 H-1 A1,1 0 0 1 0,1 V-1" transform="translate(7 8) scale(0.5)" />
<path d="M-1,0 A1,1 0 0 0 0,-1 A1,1 0 0 0 1,0 H-1 A1,1 0 0 1 0,1 V-1" transform="translate(7 9) scale(0.5)" />
<path d="M-1,0 A1,1 0 0 0 0,-1 A1,1 0 0 0 1,0 H-1 A1,1 0 0 1 0,1 V-1" transform="translate(7 10) scale(0.5)" />
<path d="M-1,0 A1,1 0 0 0 0,-1 A1,1 0 0 0 1,0 H-1 A1,1 0 0 1 0,1 V-1" transform="translate(8 0) scale(0.5)" />
<path d="M-1,0 A1,1 0 0 0 0,-1 A1,1 0 0 0 1,0 H-1 A1,1 0 0 1 0,1 V-1" transform="translate(8 2) scale(0.5)" />
<path d="M-1,0 A1,1 0 0 0 0,-1 A1,1 0 0 0 1,0 H-1 A1,1 0 0 1 0,1 V-1" transform="translate(8 3) scale(0.5)" />
<path d="M-1,0 A1,1 0 0 0 0,-1 A1,1 0 0 0 1,0 H-1 A1,1 0 0 1 0,1 V-1" transform="translate(8 5) scale(0.5)" />
<path d="M-1,0 A1,1 0 0 0 0,-1 A1,1 0 0 0 1,0 H-1 A1,1 0 0 1 0,1 V-1" transform="translate(8 6) scale(0.5)" />
<path d="M-1,0 A1,1 0 0 0 0,-1 A1,1 0 0 0 1,0 H-1 A1,1 0 0 1 0,1 V-1" transform="translate(8 7) scale(0.5)" />
<path d="M-1,0 A1,1 0 0 0 0,-1 A1,1 0 0 0 1,0 H-1 A1,1 0 0 1 0,1 V-1" transform="translate(8 9) scale(0.5)" />
<path d="M-1,0 A1,1 0 0 0 0,-1 A1,1 0 0 0 1,0 H-1 A1,1 0 0 1 0,1 V-1" transform="translate(8 10) scale(0.5)" />
<path d="M-1,0 A1,1 0 0 0 0,-1 A1,1 0 0 0 1,0 H-1 A1,1 0 0 1 0,1 V-1" transform="translate(8 14) scale(0.5)" />
<path d="M-1,0 A1,1 0 0 0 0,-1 A1,1 0 0 0 1,0 H-1 A1,1 0 0 1 0,1 V-1" transform="translate(8 17) scale(0.5)" />
<path d="M-1,0 A1,1 0 0 0 0,-1 A1,1 0 0 0 1,0 H-1 A1,1 0 0 1 0,1 V-1" transform="translate(8 19) scale(0.5)" />
<path d="M-1,0 A1,1 0 0 0 0,-1 A1,1 0 0 0 1,0 H-1 A1,1 0 0 1 0,1 V-1" transform="translate(8 20) scale(0.5)" />
<path d="M-1,0 A1,1 0 0 0 0,-1 A1,1 0 0 0 1,0 H-1 A1,1 0 0 1 0,1 V-1" transform="translate(9 0) scale(0.5)" />
<path d="M-1,0 A1,1 0 0 0 0,-1 A1,1 0 0 0 1,0 H-1 A1,1 0 0 1 0,1 V-1" transform="translate(9 2) scale(0.5)" />
<path d="M-1,0 A1,1 0 0 0 0,-1 A1,1 0 0 0 1,0 H-1 A1,1 0 0 1 0,1 V-1" transform="translate(9 7) scale(0.5)" />
<path d="M-1,0 A1,1 0 0 0 0,-1 A1,1 0 0 0 1,0 H-1 A1,1 0 0 1 0,1 V-1" transform="translate(9 9) scale(0.5)" />
<path d="M-1,0 A1,1 0 0 0 0,-1 A1,1 0 0 0 1,0 H-1 A1,1 0 0 1 0,1 V-1" transform="translate(9 12) scale(0.5)" />
<path d="M-1,0 A1,1 0 0 0 0,-1 A1,1 0 0 0 1,0 H-1 A1,1 0 0 1 0,1 V-1" transform="translate(9 15) scale(0.5)" />
<path d="M-1,0 A1,1 0 0 0 0,-1 A1,1 0 0 0 1,0 H-1 A1,1 0 0 1 0,1 V-1" transform="translate(9 18) scale(0.5)" />
<path d="M-1,0 A1,1 0 0 0 0,-1 A1,1 0 0 0 1,0 H-1 A1,1 0 0 1 0,1 V-1" transform="translate(9 19) scale(0.5)" />
<path d="M-1,0 A1,1 0 0 0 0,-1 A1,1 0 0 0 1,0 H-1 A1,1 0 0 1 0,1 V-1" transform="translate(9 20) scale(0.5)" />
<path d="M-1,0 A1,1 0 0 0 0,-1 A1,1 0 0 0 1,0 H-1 A1,1 0 0 1 0,1 V-1" transform="translate(10 0) scale(0.5)" />
<path d="M-1,0 A1,1 0 0 0 0,-1 A1,1 0 0 0 1,0 H-1 A1,1 0 0 1 0,1 V-1" transform="translate(10 1) scale(0.5)" />
<path d="M-1,0 A1,1 0 0 0 0,-1 A1,1 0 0 0 1,0 H-1 A1,1 0 0 1 0,1 V-1" transform="translate(10 4) scale(0.5)" />
<path d="M-1,0 A1,1 0 0 0 0,-1 A1,1 0 0 0 1,0 H-1 A1,1 0 0 1 0,1 V-1" transform="translate(10 5) scale(0.5)" />
<path d="M-1,0 A1,1 0 0 0 0,-1 A1,1 0 0 0 1,0 H-1 A1,1 0 0 1 0,1 V-1" transform="translate(10 6) scale(0.5)" />
<path d="M-1,0 A1,1 0 0 0 0,-1 A1,1 0 0 0 1,0 H-1 A1,1 0 0 1 0,1 V-1" transform="translate(10 7) scale(0.5)" />
<path d="M-1,0 A1,1 0 0 0 0,-1 A1,1 0 0 0 1,0 H-1 A1,1 0 0 1 0,1 V-1" transform="translate(10 9) scale(0.5)" />
<path d="M-1,0 A1,1 0 0 0 0,-1 A1,1 0 0 0 1,0 H-1 A1,1 0 0 1 0,1 V-1" transform="translate(10 10) scale(0.5)" />
<path d="M-1,0 A1,1 0 0 0 0,-1 A1,1 0 0 0 1,0 H-1 A1,1 0 0 1 0,1 V-1" transform="translate(10 12) scale(0.5)" />
<path d="M-1,0 A1,1 0 0 0 0,-1 A1,1 0 0 0 1,0 H-1 A1,1 0 0 1 0,1 V-1" transform="translate(10 13) scale(0.5)" />
<path d="M-1,0 A1,1 0 0 0 0,-1 A1,1 0 0 0 1,0 H-1 A1,1 0 0 1 0,1 V-1" transform="translate(10 14) scale(0.5)" />
<path d="M-1,0 A1,1 0 0 0 0,-1 A1,1 0 0 0 1,0 H-1 A1,1 0 0 1 0,1 V-1" transform="translate(10 15) scale(0.5)" />
<path d="M-1,0 A1,1 0 0 0 0,-1 A1,1 0 0 0 1,0 H-1 A1,1 0 0 1 0,1 V-1" transform="translate(10 16) scale(0.5)" />
<path d="M-1,0 A1,1 0 0 0 0,-1 A1,1 0 0 0 1,0 H-1 A1,1 0 0 1 0,1 V-1" transform="translate(10 17) scale(0.5)" />
<path d="M-1,0 A1,1 0 0 0 0,-1 A1,1 0 0 0 1,0 H-1 A1,1 0 0 1 0,1 V-1" transform="translate(10 20) scale(0.5)" />
<path d="M-1,0 A1,1 0 0 0 0,-1 A1,1 0 0 0 1,0 H-1 A1,1 0 0 1 0,1 V-1" transform="translate(11 1) scale(0.5)" />
<path d="M-1,0 A1,1 0 0 0 0,-1 A1,1 0 0 0 1,0 H-1 A1,1 0 0 1 0,1 V-1" transform="translate(11 2) scale(0.5)" />
<path d="M-1,0 A1,1 0 0 0 0,-1 A1,1 0 0 0 1,0 H-1 A1,1 0 0 1 0,1 V-1" transform="translate(11 4) scale(0.5)" />
<path d="M-1,0 A1,1 0 0 0 0,-1 A1,1 0 0 0 1,0 H-1 A1,1 0 0 1 0,1 V-1" transform="translate(11 7) scale(0.5)" />
<path d="M-1,0 A1,1 0 0 0 0,-1 A1,1 0 0 0 1,0 H-1 A1,1 0 0 1 0,1 V-1" transform="translate(11 9) scale(0.5)" />
<path d="M-1,0 A1,1 0 0 0 0,-1 A1,1 0 0 0 1,0 H-1 A1,1 0 0 1 0,1 V-1" transform="translate(11 12) scale(0.5)" />
<path d="M-1,0 A1,1 0 0 0 0,-1 A1,1 0 0 0 1,0 H-1 A1,1 0 0 1 0,1 V-1" transform="translate(11 13) scale(0.5)" />
<path d="M-1,0 A1,1 0 0 0 0,-1 A1,1 0 0 0 1,0 H-1 A1,1 0 0 1 0,1 V-1" transform="translate(11 19) scale(0.5)" />
<path d="M-1,0 A1,1 0 0 0 0,-1 A1,1 0 0 0 1,0 H-1 A1,1 0 0 1 0,1 V-1" transform="translate(12 1) scale(0.5)" />
<path d="M-1,0 A1,1 0 0 0 0,-1 A1,1 0 0 0 1,0 H-1 A1,1 0 0 1 0,1 V-1" transform="translate(12 2) scale(0.5)" />
<path d="M-1,0 A1,1 0 0 0 0,-1 A1,1 0 0 0 1,0 H-1 A1,1 0 0 1 0,1 V-1" transform="translate(12 3) scale(0.5)" />
<path d="M-1,0 A1,1 0 0 0 0,-1 A1,1 0 0 0 1,0 H-1 A1,1 0 0 1 0,1 V-1" transform="translate(12 6) scale(0.5)" />
<path d="M-1,0 A1,1 0 0 0 0,-1 A1,1 0 0 0 1,0 H-1 A1,1 0 0 1 0,1 V-1" transform="translate(12 7) scale(0.5)" />
<path d="M-1,0 A1,1 0 0 0 0,-1 A1,1 0 0 0 1,0 H-1 A1,1 0 0 1 0,1 V-1" transform="translate(12 11) scale(0.5)" />
<path d="M-1,0 A1,1 0 0 0 0,-1 A1,1 0 0 0 1,0 H-1 A1,1 0 0 1 0,1 V-1" transform="translate(12 13) scale(0.5)" />
<path d="M-1,0 A1,1 0 0 0 0,-1 A1,1 0 0 0 1,0 H-1 A1,1 0 0 1 0,1 V-1" transform="translate(12 16) scale(0.5)" />
<path d="M-1,0 A1,1 0 0 0 0,-1 A1,1 0 0 0 1,0 H-1 A1,1 0 0 1 0,1 V-1" transform="translate(12 17) scale(0.5)" />
<path d="M-1,0 A1,1 0 0 0 0,-1 A1,1 0 0 0 1,0 H-1 A1,1 0 0 1 0,1 V-1" transform="translate(13 8) scale(0.5)" />
<path d="M-1,0 A1,1 0 0 0 0,-1 A1,1 0 0 0 1,0 H-1 A1,1 0 0 1 0,1 V-1" transform="translate(13 10) scale(0.5)" />
<path d="M-1,0 A1,1 0 0 0 0,-1 A1,1 0 0 0 1,0 H-1 A1,1 0 0 1 0,1 V-1" transform="translate(13 13) scale(0.5)" />
<path d="M-1,0 A1,1 0 0 0 0,-1 A1,1 0 0 0 1,0 H-1 A1,1 0 0 1 0,1 V-1" transform="translate(13 15) scale(0.5)" />
<path d="M-1,0 A1,1 0 0 0 0,-1 A1,1 0 0 0 1,0 H-1 A1,1 0 0 1 0,1 V-1" transform="translate(13 17) scale(0.5)" />
<path d="M-1,0 A1,1 0 0 0 0,-1 A1,1 0 0 0 1,0 H-1 A1,1 0 0 1 0,1 V-1" transform="translate(13 19) scale(0.5)" />
<path d="M-1,0 A1,1 0 0 0 0,-1 A1,1 0 0 0 1,0 H-1 A1,1 0 0 1 0,1 V-1" transform="translate(13 20) scale(0.5)" />
<path d="M-1,0 A1,1 0 0 0 0,-1 A1,1 0 0 0 1,0 H-1 A1,1 0 0 1 0,1 V-1" transform="translate(14 0) scale(0.5)" />
<path d="M-1,0 A1,1 0 0 0 0,-1 A1,1 0 0 0 1,0 H-1 A1,1 0 0 1 0,1 V-1" transform="translate(14 1) scale(0.5)" />
<path d="M-1,0 A1,1 0 0 0 0,-1 A1,1 0 0 0 1,0 H-1 A1,1 0 0 1 0,1 V-1" transform="translate(14 2) scale(0.5)" />
<path d="M-1,0 A1,1 0 0 0 0,-1 A1,1 0 0 0 1,0 H-1 A1,1 0 0 1 0,1 V-1" transform="translate(14 3) scale(0.5)" />
<path d="M-1,0 A1,1 0 0 0 0,-1 A1,1 0 0 0 1,0 H-1 A1,1 0 0 1 0,1 V-1" transform="translate(14 4) scale(0.5)" />
<path d="M-1,0 A1,1 0 0 0 0,-1 A1,1 0 0 0 1,0 H-1 A1,1 0 0 1 0,1 V-1" transform="translate(14 5) scale(0.5)" />
<path d="M-1,0 A1,1 0 0 0 0,-1 A1,1 0 0 0 1,0 H-1 A1,1 0 0 1 0,1 V-1" transform="translate(14 6) scale(0.5)" />
<path d="M-1,0 A1,1 0 0 0 0,-1 A1,1 0 0 0 1,0 H-1 A1,1 0 0 1 0,1 V-1" transform="translate(14 8) scale(0.5)" />
<path d="M-1,0 A1,1 0 0 0 0,-1 A1,1 0 0 0 1,0 H-1 A1,1 0 0 1 0,1 V-1" transform="translate(14 9) scale(0.5)" />
<path d="M-1,0 A1,1 0 0 0 0,-1 A1,1 0 0 0 1,0 H-1 A1,1 0 0 1 0,1 V-1" transform="translate(14 10) scale(0.5)" />
<path d="M-1,0 A1,1 0 0 0 0,-1 A1,1 0 0 0 1,0 H-1 A1,1 0 0 1 0,1 V-1" transform="translate(14 13) scale(0.5)" />
<path d="M-1,0 A1,1 0 0 0 0,-1 A1,1 0 0 0 1,0 H-1 A1,1 0 0 1 0,1 V-1" transform="translate(14 14) scale(0.5)" />
<path d="M-1,0 A1,1 0 0 0 0,-1 A1,1 0 0 0 1,0 H-1 A1,1 0 0 1 0,1 V-1" transform="translate(14 16) scale(0.5)" />
<path d="M-1,0 A1,1 0 0 0 0,-1 A1,1 0 0 0 1,0 H-1 A1,1 0 0 1 0,1 V-1" transform="translate(15 0) scale(0.5)" />
<path d="M-1,0 A1,1 0 0 0 0,-1 A1,1 0 0 0 1,0 H-1 A1,1 0 0 1 0,1 V-1" transform="translate(15 6) scale(0.5)" />
<path d="M-1,0 A1,1 0 0 0 0,-1 A1,1 0 0 0 1,0 H-1 A1,1 0 0 1 0,1 V-1" transform="translate(15 8) scale(0.5)" />
<path d="M-1,0 A1,1 0 0 0 0,-1 A1,1 0 0 0 1,0 H-1 A1,1 0 0 1 0,1 V-1" transform="translate(15 11) scale(0.5)" />
<path d="M-1,0 A1,1 0 0 0 0,-1 A1,1 0 0 0 1,0 H-1 A1,1 0 0 1 0,1 V-1" transform="translate(15 12) scale(0.5)" />
<path d="M-1,0 A1,1 0 0 0 0,-1 A1,1 0 0 0 1,0 H-1 A1,1 0 0 1 0,1 V-1" transform="translate(15 13) scale(0.5)" />
<path d="M-1,0 A1,1 0 0 0 0,-1 A1,1 0 0 0 1,0 H-1 A1,1 0 0 1 0,1 V-1" transform="translate(15 14) scale(0.5)" />
<path d="M-1,0 A1,1 0 0 0 0,-1 A1,1 0 0 0 1,0 H-1 A1,1 0 0 1 0,1 V-1" transform="translate(15 18) scale(0.5)" />
<path d="M-1,0 A1,1 0 0 0 0,-1 A1,1 0 0 0 1,0 H-1 A1,1 0 0 1 0,1 V-1" transform="translate(16 0) scale(0.5)" />
<path d="M-1,0 A1,1 0 0 0 0,-1 A1,1 0 0 0 1,0 H-1 A1,1 0 0 1 0,1 V-1" transform="translate(16 2) scale(0.5)" />
<path d="M-1,0 A1,1 0 0 0 0,-1 A1,1 0 0 0 1,0 H-1 A1,1 0 0 1 0,1 V-1" transform="translate(16 3) scale(0.5)" />
<path d="M-1,0 A1,1 0 0 0 0,-1 A1,1 0 0 0 1,0 H-1 A1,1 0 0 1 0,1 V-1" transform="translate(16 4) scale(0.5)" />
<path d="M-1,0 A1,1 0 0 0 0,-1 A1,1 0 0 0 1,0 H-1 A1,1 0 0 1 0,1 V-1" transform="translate(16 6) scale(0.5)" />
<path d="M-1,0 A1,1 0 0 0 0,-1 A1,1 0 0 0 1,0 H-1 A1,1 0 0 1 0,1 V-1" transform="translate(16 9) scale(0.5)" />
<path d="M-1,0 A1,1 0 0 0 0,-1 A1,1 0 0 0 1,0 H-1 A1,1 0 0 1 0,1 V-1" transform="translate(16 11) scale(0.5)" />
<path d="M-1,0 A1,1 0 0 0 0,-1 A1,1 0 0 0 1,0 H-1 A1,1 0 0 1 0,1 V-1" transform="translate(16 14) scale(0.5)" />
<path d="M-1,0 A1,1 0 0 0 0,-1 A1,1 0 0 0 1,0 H-1 A1,1 0 0 1 0,1 V-1" transform="translate(16 18) scale(0.5)" />
<path d="M-1,0 A1,1 0 0 0 0,-1 A1,1 0 0 0 1,0 H-1 A1,1 0 0 1 0,1 V-1" transform="translate(16 19) scale(0.5)" />
<path d="M-1,0 A1,1 0 0 0 0,-1 A1,1 0 0 0 1,0 H-1 A1,1 0 0 1 0,1 V-1" transform="translate(16 20) scale(0.5)" />
<path d="M-1,0 A1,1 0 0 0 0,-1 A1,1 0 0 0 1,0 H-1 A1,1 0 0 1 0,1 V-1" transform="translate(17 0) scale(0.5)" />
<path d="M-1,0 A1,1 0 0 0 0,-1 A1,1 0 0 0 1,0 H-1 A1,1 0 0 1 0,1 V-1" transform="translate(17 2) scale(0.5)" />
<path d="M-1,0 A1,1 0 0 0 0,-1 A1,1 0 0 0 1,0 H-1 A1,1 0 0 1 0,1 V-1" transform="translate(17 3) scale(0.5)" />
<path d="M-1,0 A1,1 0 0 0 0,-1 A1,1 0 0 0 1,0 H-1 A1,1 0 0 1 0,1 V-1" transform="translate(17 4) scale(0.5)" />
<path d="M-1,0 A1,1 0 0 0 0,-1 A1,1 0 0 0 1,0 H-1 A1,1 0 0 1 0,1 V-1" transform="translate(17 6) scale(0.5)" />
<path d="M-1,0 A1,1 0 0 0 0,-1 A1,1 0 0 0 1,0 H-1 A1,1 0 0 1 0,1 V-1" transform="translate(17 8) scale(0.5)" />
<path d="M-1,0 A1,1 0 0 0 0,-1 A1,1 0 0 0 1,0 H-1 A1,1 0 0 1 0,1 V-1" transform="translate(17 13) scale(0.5)" />
<path d="M-1,0 A1,1 0 0 0 0,-1 A1,1 0 0 0 1,0 H-1 A1,1 0 0 1 0,1 V-1" transform="translate(17 16) scale(0.5)" />
<path d="M-1,0 A1,1 0 0 0 0,-1 A1,1 0 0 0 1,0 H-1 A1,1 0 0 1 0,1 V-1" transform="translate(17 17) scale(0.5)" />
<path d="M-1,0 A1,1 0 0 0 0,-1 A1,1 0 0 0 1,0 H-1 A1,1 0 0 1 0,1 V-1" transform="translate(17 19) scale(0.5)" />
<path d="M-1,0 A1,1 0 0 0 0,-1 A1,1 0 0 0 1,0 H-1 A1,1 0 0 1 0,1 V-1" transform="translate(18 0) scale(0.5)" />
<path d="M-1,0 A1,1 0 0 0 0,-1 A1,1 0 0 0 1,0 H-1 A1,1 0 0 1 0,1 V-1" transform="translate(18 2) scale(0.5)" />
<path d="M-1,0 A1,1 0 0 0 0,-1 A1,1 0 0 0 1,0 H-1 A1,1 0 0 1 0,1 V-1" transform="translate(18 3) scale(0.5)" />
<path d="M-1,0 A1,1 0 0 0 0,-1 A1,1 0 0 0 1,0 H-1 A1,1 0 0 1 0,1 V-1" transform="translate(18 4) scale(0.5)" />
<path d="M-1,0 A1,1 0 0 0 0,-1 A1,1 0 0 0 1,0 H-1 A1,1 0 0 1 0,1 V-1" transform="translate(18 6) scale(0.5)" />
<path d="M-1,0 A1,1 0 0 0 0,-1 A1,1 0 0 0 1,0 H-1 A1,1 0 0 1 0,1 V-1" transform="translate(18 8) scale(0.5)" />
<path d="M-1,0 A1,1 0 0 0 0,-1 A1,1 0 0 0 1,0 H-1 A1,1 0 0 1 0,1 V-1" transform="translate(18 11) scale(0.5)" />
<path d="M-1,0 A1,1 0 0 0 0,-1 A1,1 0 0 0 1,0 H-1 A1,1 0 0 1 0,1 V-1" transform="translate(18 13) scale(0.5)" />
<path d="M-1,0 A1,1 0 0 0 0,-1 A1,1 0 0 0 1,0 H-1 A1,1 0 0 1 0,1 V-1" transform="translate(18 16) scale(0.5)" />
<path d="M-1,0 A1,1 0 0 0 0,-1 A1,1 0 0 0 1,0 H-1 A1,1 0 0 1 0,1 V-1" transform="translate(19 0) scale(0.5)" />
<path d="M-1,0 A1,1 0 0 0 0,-1 A1,1 0 0 0 1,0 H-1 A1,1 0 0 1 0,1 V-1" transform="translate(19 6) scale(0.5)" />
<path d="M-1,0 A1,1 0 0 0 0,-1 A1,1 0 0 0 1,0 H-1 A1,1 0 0 1 0,1 V-1" transform="translate(19 9) scale(0.5)" />
<path d="M-1,0 A1,1 0 0 0 0,-1 A1,1 0 0 0 1,0 H-1 A1,1 0 0 1 0,1 V-1" transform="translate(19 11) scale(0.5)" />
<path d="M-1,0 A1,1 0 0 0 0,-1 A1,1 0 0 0 1,0 H-1 A1,1 0 0 1 0,1 V-1" transform="translate(19 12) scale(0.5)" />
<path d="M-1,0 A1,1 0 0 0 0,-1 A1,1 0 0 0 1,0 H-1 A1,1 0 0 1 0,1 V-1" transform="translate(19 14) scale(0.5)" />
<path d="M-1,0 A1,1 0 0 0 0,-1 A1,1 0 0 0 1,0 H-1 A1,1 0 0 1 0,1 V-1" transform="translate(19 16) scale(0.5)" />
<path d="M-1,0 A1,1 0 0 0 0,-1 A1,1 0 0 0 1,0 H-1 A1,1 0 0 1 0,1 V-1" transform="translate(19 17) scale(0.5)" />
<path d="M-1,0 A1,1 0 0 0 0,-1 A1,1 0 0 0 1,0 H-1 A1,1 0 0 1 0,1 V-1" transform="translate(19 20) scale(0.5)" />
<path d="M-1,0 A1,1 0 0 0 0,-1 A1,1 0 0 0 1,0 H-1 A1,1 0 0 1 0,1 V-1" transform="translate(20 0) scale(0.5)" />
<path d="M-1,0 A1,1 0 0 0 0,-1 A1,1 0 0 0 1,0 H-1 A1,1 0 0 1 0,1 V-1" transform="translate(20 1) scale(0.5)" />
<path d="M-1,0 A1,1 0 0 0 0,-1 A1,1 0 0 0 1,0 H-1 A1,1 0 0 1 0,1 V-1" transform="translate(20 2) scale(0.5)" />
<path d="M-1,0 A1,1 0 0 0 0,-1 A1,1 0 0 0 1,0 H-1 A1,1 0 0 1 0,1 V-1" transform="translate(20 3) scale(0.5)" />
<path d="M-1,0 A1,1 0 0 0 0,-1 A1,1 0 0 0 1,0 H-1 A1,1 0 0 1 0,1 V-1" transform="translate(20 4) scale(0.5)" />
<path d="M-1,0 A1,1 0 0 0 0,-1 A1,1 0 0 0 1,0 H-1 A1,1 0 0 1 0,1 V-1" transform="translate(20 5) scale(0.5)" />
<path d="M-1,0 A1,1 0 0 0 0,-1 A1,1 0 0 0 1,0 H-1 A1,1 0 0 1 0,1 V-1" transform="translate(20 6) scale(0.5)" />
<path d="M-1,0 A1,1 0 0 0 0,-1 A1,1 0 0 0 1,0 H-1 A1,1 0 0 1 0,1 V-1" transform="translate(20 8) scale(0.5)" />
<path d="M-1,0 A1,1 0 0 0 0,-1 A1,1 0 0 0 1,0 H-1 A1,1 0 0 1 0,1 V-1" transform="translate(20 9) scale(0.5)" />
<path d="M-1,0 A1,1 0 0 0 0,-1 A1,1 0 0 0 1,0 H-1 A1,1 0 0 1 0,1 V-1" transform="translate(20 11) scale(0.5)" />
<path d="M-1,0 A1,1 0 0 0 0,-1 A1,1 0 0 0 1,0 H-1 A1,1 0 0 1 0,1 V-1" transform="translate(20 12) scale(0.5)" />
<path d="M-1,0 A1,1 0 0 0 0,-1 A1,1 0 0 0 1,0 H-1 A1,1 0 0 1 0,1 V-1" transform="translate(20 15) scale(0.5)" />
</svg>