<svg version="1.1" xmlns="http://www.w3.org/2000/svg"
	width="350" height="350"
	viewBox="-5 -5 35 35"
	fill="none"
	stroke="black"
	stroke-width="0.4"
	stroke-linecap="round"
>
	<path d="M0,4 H2V5H1V8 H2V6H3V5H3V4 H3V3H1V1H2V2H4V3 H8V2H6V2H5V1H3 L3,0 M6,1H7V2 M8,2V1 M3,8 V7H4V8H5V6H4 V5H4V4H5V5 H6V7H6V8H8 V7H7V6H8V5H7V4 L8,4 M5,4H6" transform="translate(0 0) scale(0.125)" />
<path d="M0,4 H2V5H1V8 H2V6H3V5H3V4 H3V3H1V1H2V2H4V3 H8V2H6V2H5V1H3 L3,0 M6,1H7V2 M8,2V1 M3,8 V7H4V8H5V6H4 V5H4V4H5V5 H6V7H6V8H8 V7H7V6H8V5H7V4 L8,4 M5,4H6" transform="translate(0 1) scale(0.125)" />
<path d="M0,4 H2V5H1V8 H2V6H3V5H3V4 H3V3H1V1H2V2H4V3 H8V2H6V2H5V1H3 L3,0 M6,1H7V2 M8,2V1 M3,8 V7H4V8H5V6H4 V5H4V4H5V5 H6V7H6V8H8 V7H7V6H8V5H7V4 L8,4 M5,4H6" transform="translate(0 2) scale(0.125)" />
<path d="M0,4 H2V5H1V8 H2V6H3V5H3V4 H3V3H1V1H2V2H4V3 H8V2H6V2H5V1H3 L3,0 M6,1H7V2 M8,2V1 M3,8 V7H4V8H5V6H4 V5H4V4H5V5 H6V7H6V8H8 V7H7V6H8V5H7V4 L8,4 M5,4H6" transform="translate(0 3) scale(0.125)" />
<path d="M0,4 H2V5H1V8 H2V6H3V5H3V4 H3V3H1V1H2V2H4V3 H8V2H6V2H5V1H3 L3,0 M6,1H7V2 M8,2V1 M3,8 V7H4V8H5V6H4 V5H4V4H5V5 H6V7H6V8H8 V7H7V6H8V5H7V4 L8,4 M5,4H6" transform="translate(0 4) scale(0.125)" />
<path d="M0,4 H2V5H1V8 H2V6H3V5H3V4 H3V3H1V1H2V2H4V3 H8V2H6V2H5V1H3 L3,0 M6,1H7V2 M8,2V1 M3,8 V7H4V8H5V6H4 V5H4V4H5V5 H6V7H6V8H8 V7H7V6H8V5H7V4 L8,4 M5,4H6" transform="translate(0 5) scale(0.125)" />
<path d="M0,4 H2V5H1V8 H2V6H3V5H3V4 H3V3H1V1H2V2H4V3 H8V2H6V2H5V1H3 L3,0 M6,1H7V2 M8,2V1 M3,8 V7H4V8H5V6H4 V5H4V4H5V5 H6V7H6V8H8 V7H7V6H8V5H7V4 L8,4 M5,4H6" transform="translate(0 6) scale(0.125)" />
<path d="M0,4 H2V5H1V8 H2V6H3V5H3V4 H3V3H1V1H2V2H4V3 H8V2H6V2H5V1H3 L3,0 M6,1H7V2 M8,2V1 M3,8 V7H4V8H5V6H4 V5H4V4H5V5 H6V7H6V8H8 V7H7V6H8V5H7V4 L8,4 M5,4H6" transform="translate(0 9) scale(0.125)" />
<path d="M0,4 H2V5H1V8 H2V6H3V5H3V4 H3V3H1V1H2V2H4V3 H8V2H6V2H5V1H3 L3,0 M6,1H7V2 M8,2V1 M3,8 V7H4V8H5V6H4 V5H4V4H5V5 H6V7H6V8H8 V7H7V6H8V5H7V4 L8,4 M5,4H6" transform="translate(0 11) scale(0.125)" />
<path d="M0,4 H2V5H1V8 H2V6H3V5H3V4 H3V3H1V1H2V2H4V3 H8V2H6V2H5V1H3 L3,0 M6,1H7V2 M8,2V1 M3,8 V7H4V8H5V6H4 V5H4V4H5V5 H6V7H6V8H8 V7H7V6H8V5H7V4 L8,4 M5,4H6" transform="translate(0 12) scale(0.125)" />
<path d="M0,4 H2V5H1V8 H2V6H3V5H3V4 H3V3H1V1H2V2H4V3 H8V2H6V2H5V1H3 L3,0 M6,1H7V2 M8,2V1 M3,8 V7H4V8H5V6H4 V5H4V4H5V5 H6V7H6V8H8 V7H7V6H8V5H7V4 L8,4 M5,4H6" transform="translate(0 14) scale(0.125)" />
<path d="M0,4 H2V5H1V8 H2V6H3V5H3V4 H3V3H1V1H2V2H4V3 H8V2H6V2H5V1H3 L3,0 M6,1H7V2 M8,2V1 M3,8 V7H4V8H5V6H4 V5H4V4H5V5 H6V7H6V8H8 V7H7V6H8V5H7V4 L8,4 M5,4H6" transform="translate(0 15) scale(0.125)" />
<path d="M0,4 H2V5H1V8 H2V6H3V5H3V4 H3V3H1V1H2V2H4V3 H8V2H6V2H5V1H3 L3,0 M6,1H7V2 M8,2V1 M3,8 V7H4V8H5V6H4 V5H4V4H5V5 H6V7H6V8H8 V7H7V6H8V5H7V4 L8,4 M5,4H6" transform="translate(0 16) scale(0.125)" />
<path d="M0,4 H2V5H1V8 H2V6H3V5H3V4 H3V3H1V1H2V2H4V3 H8V2H6V2H5V1H3 L3,0 M6,1H7V2 M8,2V1 M3,8 V7H4V8H5V6H4 V5H4V4H5V5 H6V7H6V8H8 V7H7V6H8V5H7V4 L8,4 M5,4H6" transform="translate(0 17) scale(0.125)" />
<path d="M0,4 H2V5H1V8 H2V6H3V5H3V4 H3V3H1V1H2V2H4V3 H8V2H6V2H5V1H3 L3,0 M6,1H7V2 M8,2V1 M3,8 V7H4V8H5V6H4 V5H4V4H5V5 H6V7H6V8H8 V7H7V6H8V5H7V4 L8,4 M5,4H6" transform="translate(0 18) scale(0.125)" />
<path d="M0,4 H2V5H1V8 H2V6H3V5H3V4 H3V3H1V1H2V2H4V3 H8V2H6V2H5V1H3 L3,0 M6,1H7V2 M8,2V1 M3,8 V7H4V8H5V6H4 V5H4V4H5V5 H6V7H6V8H8 V7H7V6H8V5H7V4 L8,4 M5,4H6" transform="translate(0 19) scale(0.125)" />
<path d="M0,4 H2V5H1V8 H2V6H3V5H3V4 H3V3H1V1H2V2H4V3 H8V2H6V2H5V1H3 L3,0 M6,1H7V2 M8,2V1 M3,8 V7H4V8H5V6H4 V5H4V4H5V5 H6V7H6V8H8 V7H7V6H8V5H7V4 L8,4 M5,4H6" transform="translate(0 20) scale(0.125)" />
<path d="M0,4 H2V5H1V8 H2V6H3V5H3V4 H3V3H1V1H2V2H4V3 H8V2H6V2H5V1H3 L3,0 M6,1H7V2 M8,2V1 M3,8 V7H4V8H5V6H4 V5H4V4H5V5 H6V7H6V8H8 V7H7V6H8V5H7V4 L8,4 M5,4H6" transform="translate(1 0) scale(0.125)" />
<path d="M0,4 H2V5H1V8 H2V6H3V5H3V4 H3V3H1V1H2V2H4V3 H8V2H6V2H5V1H3 L3,0 M6,1H7V2 M8,2V1 M3,8 V7H4V8H5V6H4 V5H4V4H5V5 H6V7H6V8H8 V7H7V6H8V5H7V4 L8,4 M5,4H6" transform="translate(1 6) scale(0.125)" />
<path d="M0,4 H2V5H1V8 H2V6H3V5H3V4 H3V3H1V1H2V2H4V3 H8V2H6V2H5V1H3 L3,0 M6,1H7V2 M8,2V1 M3,8 V7H4V8H5V6H4 V5H4V4H5V5 H6V7H6V8H8 V7H7V6H8V5H7V4 L8,4 M5,4H6" transform="translate(1 14) scale(0.125)" />
<path d="M0,4 H2V5H1V8 H2V6H3V5H3V4 H3V3H1V1H2V2H4V3 H8V2H6V2H5V1H3 L3,0 M6,1H7V2 M8,2V1 M3,8 V7H4V8H5V6H4 V5H4V4H5V5 H6V7H6V8H8 V7H7V6H8V5H7V4 L8,4 M5,4H6" transform="translate(1 20) scale(0.125)" />
<path d="M0,4 H2V5H1V8 H2V6H3V5H3V4 H3V3H1V1H2V2H4V3 H8V2H6V2H5V1H3 L3,0 M6,1H7V2 M8,2V1 M3,8 V7H4V8H5V6H4 V5H4V4H5V5 H6V7H6V8H8 V7H7V6H8V5H7V4 L8,4 M5,4H6" transform="translate(2 0) scale(0.125)" />
<path d="M0,4 H2V5H1V8 H2V6H3V5H3V4 H3V3H1V1H2V2H4V3 H8V2H6V2H5V1H3 L3,0 M6,1H7V2 M8,2V1 M3,8 V7H4V8H5V6H4 V5H4V4H5V5 H6V7H6V8H8 V7H7V6H8V5H7V4 L8,4 M5,4H6" transform="translate(2 2) scale(0.125)" />
<path d="M0,4 H2V5H1V8 H2V6H3V5H3V4 H3V3H1V1H2V2H4V3 H8V2H6V2H5V1H3 L3,0 M6,1H7V2 M8,2V1 M3,8 V7H4V8H5V6H4 V5H4V4H5V5 H6V7H6V8H8 V7H7V6H8V5H7V4 L8,4 M5,4H6" transform="translate(2 3) scale(0.125)" />
<path d="M0,4 H2V5H1V8 H2V6H3V5H3V4 H3V3H1V1H2V2H4V3 H8V2H6V2H5V1H3 L3,0 M6,1H7V2 M8,2V1 M3,8 V7H4V8H5V6H4 V5H4V4H5V5 H6V7H6V8H8 V7H7V6H8V5H7V4 L8,4 M5,4H6" transform="translate(2 4) scale(0.125)" />
<path d="M0,4 H2V5H1V8 H2V6H3V5H3V4 H3V3H1V1H2V2H4V3 H8V2H6V2H5V1H3 L3,0 M6,1H7V2 M8,2V1 M3,8 V7H4V8H5V6H4 V5H4V4H5V5 H6V7H6V8H8 V7H7V6H8V5H7V4 L8,4 M5,4H6" transform="translate(2 6) scale(0.125)" />
<path d="M0,4 H2V5H1V8 H2V6H3V5H3V4 H3V3H1V1H2V2H4V3 H8V2H6V2H5V1H3 L3,0 M6,1H7V2 M8,2V1 M3,8 V7H4V8H5V6H4 V5H4V4H5V5 H6V7H6V8H8 V7H7V6H8V5H7V4 L8,4 M5,4H6" transform="translate(2 8) scale(0.125)" />
<path d="M0,4 H2V5H1V8 H2V6H3V5H3V4 H3V3H1V1H2V2H4V3 H8V2H6V2H5V1H3 L3,0 M6,1H7V2 M8,2V1 M3,8 V7H4V8H5V6H4 V5H4V4H5V5 H6V7H6V8H8 V7H7V6H8V5H7V4 L8,4 M5,4H6" transform="translate(2 10) scale(0.125)" />
<path d="M0,4 H2V5H1V8 H2V6H3V5H3V4 H3V3H1V1H2V2H4V3 H8V2H6V2H5V1H3 L3,0 M6,1H7V2 M8,2V1 M3,8 V7H4V8H5V6H4 V5H4V4H5V5 H6V7H6V8H8 V7H7V6H8V5H7V4 L8,4 M5,4H6" transform="translate(2 11) scale(0.125)" />
<path d="M0,4 H2V5H1V8 H2V6H3V5H3V4 H3V3H1V1H2V2H4V3 H8V2H6V2H5V1H3 L3,0 M6,1H7V2 M8,2V1 M3,8 V7H4V8H5V6H4 V5H4V4H5V5 H6V7H6V8H8 V7H7V6H8V5H7V4 L8,4 M5,4H6" transform="translate(2 12) scale(0.125)" />
<path d="M0,4 H2V5H1V8 H2V6H3V5H3V4 H3V3H1V1H2V2H4V3 H8V2H6V2H5V1H3 L3,0 M6,1H7V2 M8,2V1 M3,8 V7H4V8H5V6H4 V5H4V4H5V5 H6V7H6V8H8 V7H7V6H8V5H7V4 L8,4 M5,4H6" transform="translate(2 14) scale(0.125)" />
<path d="M0,4 H2V5H1V8 H2V6H3V5H3V4 H3V3H1V1H2V2H4V3 H8V2H6V2H5V1H3 L3,0 M6,1H7V2 M8,2V1 M3,8 V7H4V8H5V6H4 V5H4V4H5V5 H6V7H6V8H8 V7H7V6H8V5H7V4 L8,4 M5,4H6" transform="translate(2 16) scale(0.125)" />
<path d="M0,4 H2V5H1V8 H2V6H3V5H3V4 H3V3H1V1H2V2H4V3 H8V2H6V2H5V1H3 L3,0 M6,1H7V2 M8,2V1 M3,8 V7H4V8H5V6H4 V5H4V4H5V5 H6V7H6V8H8 V7H7V6H8V5H7V4 L8,4 M5,4H6" transform="translate(2 17) scale(0.125)" />
<path d="M0,4 H2V5H1V8 H2V6H3V5H3V4 H3V3H1V1H2V2H4V3 H8V2H6V2H5V1H3 L3,0 M6,1H7V2 M8,2V1 M3,8 V7H4V8H5V6H4 V5H4V4H5V5 H6V7H6V8H8 V7H7V6H8V5H7V4 L8,4 M5,4H6" transform="translate(2 18) scale(0.125)" />
<path d="M0,4 H2V5H1V8 H2V6H3V5H3V4 H3V3H1V1H2V2H4V3 H8V2H6V2H5V1H3 L3,0 M6,1H7V2 M8,2V1 M3,8 V7H4V8H5V6H4 V5H4V4H5V5 H6V7H6V8H8 V7H7V6H8V5H7V4 L8,4 M5,4H6" transform="translate(2 20) scale(0.125)" />
<path d="M0,4 H2V5H1V8 H2V6H3V5H3V4 H3V3H1V1H2V2H4V3 H8V2H6V2H5V1H3 L3,0 M6,1H7V2 M8,2V1 M3,8 V7H4V8H5V6H4 V5H4V4H5V5 H6V7H6V8H8 V7H7V6H8V5H7V4 L8,4 M5,4H6" transform="translate(3 0) scale(0.125)" />
<path d="M0,4 H2V5H1V8 H2V6H3V5H3V4 H3V3H1V1H2V2H4V3 H8V2H6V2H5V1H3 L3,0 M6,1H7V2 M8,2V1 M3,8 V7H4V8H5V6H4 V5H4V4H5V5 H6V7H6V8H8 V7H7V6H8V5H7V4 L8,4 M5,4H6" transform="translate(3 2) scale(0.125)" />
<path d="M0,4 H2V5H1V8 H2V6H3V5H3V4 H3V3H1V1H2V2H4V3 H8V2H6V2H5V1H3 L3,0 M6,1H7V2 M8,2V1 M3,8 V7H4V8H5V6H4 V5H4V4H5V5 H6V7H6V8H8 V7H7V6H8V5H7V4 L8,4 M5,4H6" transform="translate(3 3) scale(0.125)" />
<path d="M0,4 H2V5H1V8 H2V6H3V5H3V4 H3V3H1V1H2V2H4V3 H8V2H6V2H5V1H3 L3,0 M6,1H7V2 M8,2V1 M3,8 V7H4V8H5V6H4 V5H4V4H5V5 H6V7H6V8H8 V7H7V6H8V5H7V4 L8,4 M5,4H6" transform="translate(3 4) scale(0.125)" />
<path d="M0,4 H2V5H1V8 H2V6H3V5H3V4 H3V3H1V1H2V2H4V3 H8V2H6V2H5V1H3 L3,0 M6,1H7V2 M8,2V1 M3,8 V7H4V8H5V6H4 V5H4V4H5V5 H6V7H6V8H8 V7H7V6H8V5H7V4 L8,4 M5,4H6" transform="translate(3 6) scale(0.125)" />
<path d="M0,4 H2V5H1V8 H2V6H3V5H3V4 H3V3H1V1H2V2H4V3 H8V2H6V2H5V1H3 L3,0 M6,1H7V2 M8,2V1 M3,8 V7H4V8H5V6H4 V5H4V4H5V5 H6V7H6V8H8 V7H7V6H8V5H7V4 L8,4 M5,4H6" transform="translate(3 8) scale(0.125)" />
<path d="M0,4 H2V5H1V8 H2V6H3V5H3V4 H3V3H1V1H2V2H4V3 H8V2H6V2H5V1H3 L3,0 M6,1H7V2 M8,2V1 M3,8 V7H4V8H5V6H4 V5H4V4H5V5 H6V7H6V8H8 V7H7V6H8V5H7V4 L8,4 M5,4H6" transform="translate(3 12) scale(0.125)" />
<path d="M0,4 H2V5H1V8 H2V6H3V5H3V4 H3V3H1V1H2V2H4V3 H8V2H6V2H5V1H3 L3,0 M6,1H7V2 M8,2V1 M3,8 V7H4V8H5V6H4 V5H4V4H5V5 H6V7H6V8H8 V7H7V6H8V5H7V4 L8,4 M5,4H6" transform="translate(3 14) scale(0.125)" />
<path d="M0,4 H2V5H1V8 H2V6H3V5H3V4 H3V3H1V1H2V2H4V3 H8V2H6V2H5V1H3 L3,0 M6,1H7V2 M8,2V1 M3,8 V7H4V8H5V6H4 V5H4V4H5V5 H6V7H6V8H8 V7H7V6H8V5H7V4 L8,4 M5,4H6" transform="translate(3 16) scale(0.125)" />
<path d="M0,4 H2V5H1V8 H2V6H3V5H3V4 H3V3H1V1H2V2H4V3 H8V2H6V2H5V1H3 L3,0 M6,1H7V2 M8,2V1 M3,8 V7H4V8H5V6H4 V5H4V4H5V5 H6V7H6V8H8 V7H7V6H8V5H7V4 L8,4 M5,4H6" transform="translate(3 17) scale(0.125)" />
<path d="M0,4 H2V5H1V8 H2V6H3V5H3V4 H3V3H1V1H2V2H4V3 H8V2H6V2H5V1H3 L3,0 M6,1H7V2 M8,2V1 M3,8 V7H4V8H5V6H4 V5H4V4H5V5 H6V7H6V8H8 V7H7V6H8V5H7V4 L8,4 M5,4H6" transform="translate(3 18) scale(0.125)" />
<path d="M0,4 H2V5H1V8 H2V6H3V5H3V4 H3V3H1V1H2V2H4V3 H8V2H6V2H5V1H3 L3,0 M6,1H7V2 M8,2V1 M3,8 V7H4V8H5V6H4 V5H4V4H5V5 H6V7H6V8H8 V7H7V6H8V5H7V4 L8,4 M5,4H6" transform="translate(3 20) scale(0.125)" />
<path d="M0,4 H2V5H1V8 H2V6H3V5H3V4 H3V3H1V1H2V2H4V3 H8V2H6V2H5V1H3 L3,0 M6,1H7V2 M8,2V1 M3,8 V7H4V8H5V6H4 V5H4V4H5V5 H6V7H6V8H8 V7H7V6H8V5H7V4 L8,4 M5,4H6" transform="translate(4 0) scale(0.125)" />
<path d="M0,4 H2V5H1V8 H2V6H3V5H3V4 H3V3H1V1H2V2H4V3 H8V2H6V2H5V1H3 L3,0 M6,1H7V2 M8,2V1 M3,8 V7H4V8H5V6H4 V5H4V4H5V5 H6V7H6V8H8 V7H7V6H8V5H7V4 L8,4 M5,4H6" transform="translate(4 2) scale(0.125)" />
<path d="M0,4 H2V5H1V8 H2V6H3V5H3V4 H3V3H1V1H2V2H4V3 H8V2H6V2H5V1H3 L3,0 M6,1H7V2 M8,2V1 M3,8 V7H4V8H5V6H4 V5H4V4H5V5 H6V7H6V8H8 V7H7V6H8V5H7V4 L8,4 M5,4H6" transform="translate(4 3) scale(0.125)" />
<path d="M0,4 H2V5H1V8 H2V6H3V5H3V4 H3V3H1V1H2V2H4V3 H8V2H6V2H5V1H3 L3,0 M6,1H7V2 M8,2V1 M3,8 V7H4V8H5V6H4 V5H4V4H5V5 H6V7H6V8H8 V7H7V6H8V5H7V4 L8,4 M5,4H6" transform="translate(4 4) scale(0.125)" />
<path d="M0,4 H2V5H1V8 H2V6H3V5H3V4 H3V3H1V1H2V2H4V3 H8V2H6V2H5V1H3 L3,0 M6,1H7V2 M8,2V1 M3,8 V7H4V8H5V6H4 V5H4V4H5V5 H6V7H6V8H8 V7H7V6H8V5H7V4 L8,4 M5,4H6" transform="translate(4 6) scale(0.125)" />
<path d="M0,4 H2V5H1V8 H2V6H3V5H3V4 H3V3H1V1H2V2H4V3 H8V2H6V2H5V1H3 L3,0 M6,1H7V2 M8,2V1 M3,8 V7H4V8H5V6H4 V5H4V4H5V5 H6V7H6V8H8 V7H7V6H8V5H7V4 L8,4 M5,4H6" transform="translate(4 8) scale(0.125)" />
<path d="M0,4 H2V5H1V8 H2V6H3V5H3V4 H3V3H1V1H2V2H4V3 H8V2H6V2H5V1H3 L3,0 M6,1H7V2 M8,2V1 M3,8 V7H4V8H5V6H4 V5H4V4H5V5 H6V7H6V8H8 V7H7V6H8V5H7V4 L8,4 M5,4H6" transform="translate(4 9) scale(0.125)" />
<path d="M0,4 H2V5H1V8 H2V6H3V5H3V4 H3V3H1V1H2V2H4V3 H8V2H6V2H5V1H3 L3,0 M6,1H7V2 M8,2V1 M3,8 V7H4V8H5V6H4 V5H4V4H5V5 H6V7H6V8H8 V7H7V6H8V5H7V4 L8,4 M5,4H6" transform="translate(4 11) scale(0.125)" />
<path d="M0,4 H2V5H1V8 H2V6H3V5H3V4 H3V3H1V1H2V2H4V3 H8V2H6V2H5V1H3 L3,0 M6,1H7V2 M8,2V1 M3,8 V7H4V8H5V6H4 V5H4V4H5V5 H6V7H6V8H8 V7H7V6H8V5H7V4 L8,4 M5,4H6" transform="translate(4 12) scale(0.125)" />
<path d="M0,4 H2V5H1V8 H2V6H3V5H3V4 H3V3H1V1H2V2H4V3 H8V2H6V2H5V1H3 L3,0 M6,1H7V2 M8,2V1 M3,8 V7H4V8H5V6H4 V5H4V4H5V5 H6V7H6V8H8 V7H7V6H8V5H7V4 L8,4 M5,4H6" transform="translate(4 14) scale(0.125)" />
<path d="M0,4 H2V5H1V8 H2V6H3V5H3V4 H3V3H1V1H2V2H4V3 H8V2H6V2H5V1H3 L3,0 M6,1H7V2 M8,2V1 M3,8 V7H4V8H5V6H4 V5H4V4H5V5 H6V7H6V8H8 V7H7V6H8V5H7V4 L8,4 M5,4H6" transform="translate(4 16) scale(0.125)" />
<path d="M0,4 H2V5H1V8 H2V6H3V5H3V4 H3V3H1V1H2V2H4V3 H8V2H6V2H5V1H3 L3,0 M6,1H7V2 M8,2V1 M3,8 V7H4V8H5V6H4 V5H4V4H5V5 H6V7H6V8H8 V7H7V6H8V5H7V4 L8,4 M5,4H6" transform="translate(4 17) scale(0.125)" />
<path d="M0,4 H2V5H1V8 H2V6H3V5H3V4 H3V3H1V1H2V2H4V3 H8V2H6V2H5V1H3 L3,0 M6,1H7V2 M8,2V1 M3,8 V7H4V8H5V6H4 V5H4V4H5V5 H6V7H6V8H8 V7H7V6H8V5H7V4 L8,4 M5,4H6" transform="translate(4 18) scale(0.125)" />
<path d="M0,4 H2V5H1V8 H2V6H3V5H3V4 H3V3H1V1H2V2H4V3 H8V2H6V2H5V1H3 L3,0 M6,1H7V2 M8,2V1 M3,8 V7H4V8H5V6H4 V5H4V4H5V5 H6V7H6V8H8 V7H7V6H8V5H7V4 L8,4 M5,4H6" transform="translate(4 20) scale(0.125)" />
<path d="M0,4 H2V5H1V8 H2V6H3V5H3V4 H3V3H1V1H2V2H4V3 H8V2H6V2H5V1H3 L3,0 M6,1H7V2 M8,2V1 M3,8 V7H4V8H5V6H4 V5H4V4H5V5 H6V7H6V8H8 V7H7V6H8V5H7V4 L8,4 M5,4H6" transform="translate(5 0) scale(0.125)" />
<path d="M0,4 H2V5H1V8 H2V6H3V5H3V4 H3V3H1V1H2V2H4V3 H8V2H6V2H5V1H3 L3,0 M6,1H7V2 M8,2V1 M3,8 V7H4V8H5V6H4 V5H4V4H5V5 H6V7H6V8H8 V7H7V6H8V5H7V4 L8,4 M5,4H6" transform="translate(5 6) scale(0.125)" />
<path d="M0,4 H2V5H1V8 H2V6H3V5H3V4 H3V3H1V1H2V2H4V3 H8V2H6V2H5V1H3 L3,0 M6,1H7V2 M8,2V1 M3,8 V7H4V8H5V6H4 V5H4V4H5V5 H6V7H6V8H8 V7H7V6H8V5H7V4 L8,4 M5,4H6" transform="translate(5 8) scale(0.125)" />
<path d="M0,4 H2V5H1V8 H2V6H3V5H3V4 H3V3H1V1H2V2H4V3 H8V2H6V2H5V1H3 L3,0 M6,1H7V2 M8,2V1 M3,8 V7H4V8H5V6H4 V5H4V4H5V5 H6V7H6V8H8 V7H7V6H8V5H7V4 L8,4 M5,4H6" transform="translate(5 9) scale(0.125)" />
<path d="M0,4 H2V5H1V8 H2V6H3V5H3V4 H3V3H1V1H2V2H4V3 H8V2H6V2H5V1H3 L3,0 M6,1H7V2 M8,2V1 M3,8 V7H4V8H5V6H4 V5H4V4H5V5 H6V7H6V8H8 V7H7V6H8V5H7V4 L8,4 M5,4H6" transform="translate(5 10) scale(0.125)" />
<path d="M0,4 H2V5H1V8 H2V6H3V5H3V4 H3V3H1V1H2V2H4V3 H8V2H6V2H5V1H3 L3,0 M6,1H7V2 M8,2V1 M3,8 V7H4V8H5V6H4 V5H4V4H5V5 H6V7H6V8H8 V7H7V6H8V5H7V4 L8,4 M5,4H6" transform="translate(5 12) scale(0.125)" />
<path d="M0,4 H2V5H1V8 H2V6H3V5H3V4 H3V3H1V1H2V2H4V3 H8V2H6V2H5V1H3 L3,0 M6,1H7V2 M8,2V1 M3,8 V7H4V8H5V6H4 V5H4V4H5V5 H6V7H6V8H8 V7H7V6H8V5H7V4 L8,4 M5,4H6" transform="translate(5 14) scale(0.125)" />
<path d="M0,4 H2V5H1V8 H2V6H3V5H3V4 H3V3H1V1H2V2H4V3 H8V2H6V2H5V1H3 L3,0 M6,1H7V2 M8,2V1 M3,8 V7H4V8H5V6H4 V5H4V4H5V5 H6V7H6V8H8 V7H7V6H8V5H7V4 L8,4 M5,4H6" transform="translate(5 20) scale(0.125)" />
<path d="M0,4 H2V5H1V8 H2V6H3V5H3V4 H3V3H1V1H2V2H4V3 H8V2H6V2H5V1H3 L3,0 M6,1H7V2 M8,2V1 M3,8 V7H4V8H5V6H4 V5H4V4H5V5 H6V7H6V8H8 V7H7V6H8V5H7V4 L8,4 M5,4H6" transform="translate(6 0) scale(0.125)" />
<path d="M0,4 H2V5H1V8 H2V6H3V5H3V4 H3V3H1V1H2V2H4V3 H8V2H6V2H5V1H3 L3,0 M6,1H7V2 M8,2V1 M3,8 V7H4V8H5V6H4 V5H4V4H5V5 H6V7H6V8H8 V7H7V6H8V5H7V4 L8,4 M5,4H6" transform="translate(6 1) scale(0.125)" />
<path d="M0,4 H2V5H1V8 H2V6H3V5H3V4 H3V3H1V1H2V2H4V3 H8V2H6V2H5V1H3 L3,0 M6,1H7V2 M8,2V1 M3,8 V7H4V8H5V6H4 V5H4V4H5V5 H6V7H6V8H8 V7H7V6H8V5H7V4 L8,4 M5,4H6" transform="translate(6 2) scale(0.125)" />
<path d="M0,4 H2V5H1V8 H2V6H3V5H3V4 H3V3H1V1H2V2H4V3 H8V2H6V2H5V1H3 L3,0 M6,1H7V2 M8,2V1 M3,8 V7H4V8H5V6H4 V5H4V4H5V5 H6V7H6V8H8 V7H7V6H8V5H7V4 L8,4 M5,4H6" transform="translate(6 3) scale(0.125)" />
<path d="M0,4 H2V5H1V8 H2V6H3V5H3V4 H3V3H1V1H2V2H4V3 H8V2H6V2H5V1H3 L3,0 M6,1H7V2 M8,2V1 M3,8 V7H4V8H5V6H4 V5H4V4H5V5 H6V7H6V8H8 V7H7V6H8V5H7V4 L8,4 M5,4H6" transform="translate(6 4) scale(0.125)" />
<path d="M0,4 H2V5H1V8 H2V6H3V5H3V4 H3V3H1V1H2V2H4V3 H8V2H6V2H5V1H3 L3,0 M6,1H7V2 M8,2V1 M3,8 V7H4V8H5V6H4 V5H4V4H5V5 H6V7H6V8H8 V7H7V6H8V5H7V4 L8,4 M5,4H6" transform="translate(6 5) scale(0.125)" />
<path d="M0,4 H2V5H1V8 H2V6H3V5H3V4 H3V3H1V1H2V2H4V3 H8V2H6V2H5V1H3 L3,0 M6,1H7V2 M8,2V1 M3,8 V7H4V8H5V6H4 V5H4V4H5V5 H6V7H6V8H8 V7H7V6H8V5H7V4 L8,4 M5,4H6" transform="translate(6 6) scale(0.125)" />
<path d="M0,4 H2V5H1V8 H2V6H3V5H3V4 H3V3H1V1H2V2H4V3 H8V2H6V2H5V1H3 L3,0 M6,1H7V2 M8,2V1 M3,8 V7H4V8H5V6H4 V5H4V4H5V5 H6V7H6V8H8 V7H7V6H8V5H7V4 L8,4 M5,4H6" transform="translate(6 8) scale(0.125)" />
<path d="M0,4 H2V5H1V8 H2V6H3V5H3V4 H3V3H1V1H2V2H4V3 H8V2H6V2H5V1H3 L3,0 M6,1H7V2 M8,2V1 M3,8 V7H4V8H5V6H4 V5H4V4H5V5 H6V7H6V8H8 V7H7V6H8V5H7V4 L8,4 M5,4H6" transform="translate(6 10) scale(0.125)" />
<path d="M0,4 H2V5H1V8 H2V6H3V5H3V4 H3V3H1V1H2V2H4V3 H8V2H6V2H5V1H3 L3,0 M6,1H7V2 M8,2V1 M3,8 V7H4V8H5V6H4 V5H4V4H5V5 H6V7H6V8H8 V7H7V6H8V5H7V4 L8,4 M5,4H6" transform="translate(6 12) scale(0.125)" />
<path d="M0,4 H2V5H1V8 H2V6H3V5H3V4 H3V3H1V1H2V2H4V3 H8V2H6V2H5V1H3 L3,0 M6,1H7V2 M8,2V1 M3,8 V7H4V8H5V6H4 V5H4V4H5V5 H6V7H6V8H8 V7H7V6H8V5H7V4 L8,4 M5,4H6" transform="translate(6 14) scale(0.125)" />
<path d="M0,4 H2V5H1V8 H2V6H3V5H3V4 H3V3H1V1H2V2H4V3 H8V2H6V2H5V1H3 L3,0 M6,1H7V2 M8,2V1 M3,8 V7H4V8H5V6H4 V5H4V4H5V5 H6V7H6V8H8 V7H7V6H8V5H7V4 L8,4 M5,4H6" transform="translate(6 15) scale(0.125)" />
<path d="M0,4 H2V5H1V8 H2V6H3V5H3V4 H3V3H1V1H2V2H4V3 H8V2H6V2H5V1H3 L3,0 M6,1H7V2 M8,2V1 M3,8 V7H4V8H5V6H4 V5H4V4H5V5 H6V7H6V8H8 V7H7V6H8V5H7V4 L8,4 M5,4H6" transform="translate(6 16) scale(0.125)" />
<path d="M0,4 H2V5H1V8 H2V6H3V5H3V4 H3V3H1V1H2V2H4V3 H8V2H6V2H5V1H3 L3,0 M6,1H7V2 M8,2V1 M3,8 V7H4V8H5V6H4 V5H4V4H5V5 H6V7H6V8H8 V7H7V6H8V5H7V4 L8,4 M5,4H6" transform="translate(6 17) scale(0.125)" />
<path d="M0,4 H2V5H1V8 H2V6H3V5H3V4 H3V3H1V1H2V2H4V3 H8V2H6V2H5V1H3 L3,0 M6,1H7V2 M8,2V1 M3,8 V7H4V8H5V6H4 V5H4V4H5V5 H6V7H6V8H8 V7H7V6H8V5H7V4 L8,4 M5,4H6" transform="translate(6 18) scale(0.125)" />
<path d="M0,4 H2V5H1V8 H2V6H3V5H3V4 H3V3H1V1H2V2H4V3 H8V2H6V2H5V1H3 L3,0 M6,1H7V2 M8,2V1 M3,8 V7H4V8H5V6H4 V5H4V4H5V5 H6V7H6V8H8 V7H7V6H8V5H7V4 L8,4 M5,4H6" transform="translate(6 19) scale(0.125)" />
<path d="M0,4 H2V5H1V8 H2V6H3V5H3V4 H3V3H1V1H2V2H4V3 H8V2H6V2H5V1H3 L3,0 M6,1H7V2 M8,2V1 M3,8 V7H4V8H5V6H4 V5H4V4H5V5 H6V7H6V8H8 V7H7V6H8V5H7V4 L8,4 M5,4H6" transform="translate(6 20) scale(0.125)" />
<path d="M0,4 H2V5H1V8 H2V6H3V5H3V4 H3V3H1V1H2V2H4V3 H8V2H6V2H5V1H3 L3,0 M6,1H7V2 M8,2V1 M3,8 V7H4V8H5V6H4 V5H4V4H5V5 H6V7H6V8H8 V7H7V6H8V5H7V4 L8,4 M5,4H6" transform="translate(7 8) scale(0.125)" />
<path d="M0,4 H2V5H1V8 H2V6H3V5H3V4 H3V3H1V1H2V2H4V3 H8V2H6V2H5V1H3 L3,0 M6,1H7V2 M8,2V1 M3,8 V7H4V8H5V6H4 V5H4V4H5V5 H6V7H6V8H8 V7H7V6H8V5H7V4 L8,4 M5,4H6" transform="translate(7 9) scale(0.125)" />
<path d="M0,4 H2V5H1V8 H2V6H3V5H3V4 H3V3H1V1H2V2H4V3 H8V2H6V2H5V1H3 L3,0 M6,1H7V2 M8,2V1 M3,8 V7H4V8H5V6H4 V5H4V4H5V5 H6V7H6V8H8 V7H7V6H8V5H7V4 L8,4 M5,4H6" transform="translate(7 10) scale(0.125)" />
<path d="M0,4 H2V5H1V8 H2V6H3V5H3V4 H3V3H1V1H2V2H4V3 H8V2H6V2H5V1H3 L3,0 M6,1H7V2 M8,2V1 M3,8 V7H4V8H5V6H4 V5H4V4H5V5 H6V7H6V8H8 V7H7V6H8V5H7V4 L8,4 M5,4H6" transform="translate(7 11) scale(0.125)" />
<path d="M0,4 H2V5H1V8 H2V6H3V5H3V4 H3V3H1V1H2V2H4V3 H8V2H6V2H5V1H3 L3,0 M6,1H7V2 M8,2V1 M3,8 V7H4V8H5V6H4 V5H4V4H5V5 H6V7H6V8H8 V7H7V6H8V5H7V4 L8,4 M5,4H6" transform="translate(7 12) scale(0.125)" />
<path d="M0,4 H2V5H1V8 H2V6H3V5H3V4 H3V3H1V1H2V2H4V3 H8V2H6V2H5V1H3 L3,0 M6,1H7V2 M8,2V1 M3,8 V7H4V8H5V6H4 V5H4V4H5V5 H6V7H6V8H8 V7H7V6H8V5H7V4 L8,4 M5,4H6" transform="translate(8 0) scale(0.125)" />
<path d="M0,4 H2V5H1V8 H2V6H3V5H3V4 H3V3H1V1H2V2H4V3 H8V2H6V2H5V1H3 L3,0 M6,1H7V2 M8,2V1 M3,8 V7H4V8H5V6H4 V5H4V4H5V5 H6V7H6V8H8 V7H7V6H8V5H7V4 L8,4 M5,4H6" transform="translate(8 2) scale(0.125)" />
<path d="M0,4 H2V5H1V8 H2V6H3V5H3V4 H3V3H1V1H2V2H4V3 H8V2H6V2H5V1H3 L3,0 M6,1H7V2 M8,2V1 M3,8 V7H4V8H5V6H4 V5H4V4H5V5 H6V7H6V8H8 V7H7V6H8V5H7V4 L8,4 M5,4H6" transform="translate(8 3) scale(0.125)" />
<path d="M0,4 H2V5H1V8 H2V6H3V5H3V4 H3V3H1V1H2V2H4V3 H8V2H6V2H5V1H3 L3,0 M6,1H7V2 M8,2V1 M3,8 V7H4V8H5V6H4 V5H4V4H5V5 H6V7H6V8H8 V7H7V6H8V5H7V4 L8,4 M5,4H6" transform="translate(8 4) scale(0.125)" />
<path d="M0,4 H2V5H1V8 H2V6H3V5H3V4 H3V3H1V1H2V2H4V3 H8V2H6V2H5V1H3 L3,0 M6,1H7V2 M8,2V1 M3,8 V7H4V8H5V6H4 V5H4V4H5V5 H6V7H6V8H8 V7H7V6H8V5H7V4 L8,4 M5,4H6" transform="translate(8 5) scale(0.125)" />
<path d="M0,4 H2V5H1V8 H2V6H3V5H3V4 H3V3H1V1H2V2H4V3 H8V2H6V2H5V1H3 L3,0 M6,1H7V2 M8,2V1 M3,8 V7H4V8H5V6H4 V5H4V4H5V5 H6V7H6V8H8 V7H7V6H8V5H7V4 L8,4 M5,4H6" transform="translate(8 6) scale(0.125)" />
<path d="M0,4 H2V5H1V8 H2V6H3V5H3V4 H3V3H1V1H2V2H4V3 H8V2H6V2H5V1H3 L3,0 M6,1H7V2 M8,2V1 M3,8 V7H4V8H5V6H4 V5H4V4H5V5 H6V7H6V8H8 V7H7V6H8V5H7V4 L8,4 M5,4H6" transform="translate(8 9) scale(0.125)" />
<path d="M0,4 H2V5H1V8 H2V6H3V5H3V4 H3V3H1V1H2V2H4V3 H8V2H6V2H5V1H3 L3,0 M6,1H7V2 M8,2V1 M3,8 V7H4V8H5V6H4 V5H4V4H5V5 H6V7H6V8H8 V7H7V6H8V5H7V4 L8,4 M5,4H6" transform="translate(8 10) scale(0.125)" />
<path d="M0,4 H2V5H1V8 H2V6H3V5H3V4 H3V3H1V1H2V2H4V3 H8V2H6V2H5V1H3 L3,0 M6,1H7V2 M8,2V1 M3,8 V7H4V8H5V6H4 V5H4V4H5V5 H6V7H6V8H8 V7H7V6H8V5H7V4 L8,4 M5,4H6" transform="translate(8 12) scale(0.125)" />
<path d="M0,4 H2V5H1V8 H2V6H3V5H3V4 H3V3H1V1H2V2H4V3 H8V2H6V2H5V1H3 L3,0 M6,1H7V2 M8,2V1 M3,8 V7H4V8H5V6H4 V5H4V4H5V5 H6V7H6V8H8 V7H7V6H8V5H7V4 L8,4 M5,4H6" transform="translate(8 14) scale(0.125)" />
<path d="M0,4 H2V5H1V8 H2V6H3V5H3V4 H3V3H1V1H2V2H4V3 H8V2H6V2H5V1H3 L3,0 M6,1H7V2 M8,2V1 M3,8 V7H4V8H5V6H4 V5H4V4H5V5 H6V7H6V8H8 V7H7V6H8V5H7V4 L8,4 M5,4H6" transform="translate(8 15) scale(0.125)" />
<path d="M0,4 H2V5H1V8 H2V6H3V5H3V4 H3V3H1V1H2V2H4V3 H8V2H6V2H5V1H3 L3,0 M6,1H7V2 M8,2V1 M3,8 V7H4V8H5V6H4 V5H4V4H5V5 H6V7H6V8H8 V7H7V6H8V5H7V4 L8,4 M5,4H6" transform="translate(8 16) scale(0.125)" />
<path d="M0,4 H2V5H1V8 H2V6H3V5H3V4 H3V3H1V1H2V2H4V3 H8V2H6V2H5V1H3 L3,0 M6,1H7V2 M8,2V1 M3,8 V7H4V8H5V6H4 V5H4V4H5V5 H6V7H6V8H8 V7H7V6H8V5H7V4 L8,4 M5,4H6" transform="translate(8 17) scale(0.125)" />
<path d="M0,4 H2V5H1V8 H2V6H3V5H3V4 H3V3H1V1H2V2H4V3 H8V2H6V2H5V1H3 L3,0 M6,1H7V2 M8,2V1 M3,8 V7H4V8H5V6H4 V5H4V4H5V5 H6V7H6V8H8 V7H7V6H8V5H7V4 L8,4 M5,4H6" transform="translate(8 18) scale(0.125)" />
<path d="M0,4 H2V5H1V8 H2V6H3V5H3V4 H3V3H1V1H2V2H4V3 H8V2H6V2H5V1H3 L3,0 M6,1H7V2 M8,2V1 M3,8 V7H4V8H5V6H4 V5H4V4H5V5 H6V7H6V8H8 V7H7V6H8V5H7V4 L8,4 M5,4H6" transform="translate(9 2) scale(0.125)" />
<path d="M0,4 H2V5H1V8 H2V6H3V5H3V4 H3V3H1V1H2V2H4V3 H8V2H6V2H5V1H3 L3,0 M6,1H7V2 M8,2V1 M3,8 V7H4V8H5V6H4 V5H4V4H5V5 H6V7H6V8H8 V7H7V6H8V5H7V4 L8,4 M5,4H6" transform="translate(9 5) scale(0.125)" />
<path d="M0,4 H2V5H1V8 H2V6H3V5H3V4 H3V3H1V1H2V2H4V3 H8V2H6V2H5V1H3 L3,0 M6,1H7V2 M8,2V1 M3,8 V7H4V8H5V6H4 V5H4V4H5V5 H6V7H6V8H8 V7H7V6H8V5H7V4 L8,4 M5,4H6" transform="translate(9 9) scale(0.125)" />
<path d="M0,4 H2V5H1V8 H2V6H3V5H3V4 H3V3H1V1H2V2H4V3 H8V2H6V2H5V1H3 L3,0 M6,1H7V2 M8,2V1 M3,8 V7H4V8H5V6H4 V5H4V4H5V5 H6V7H6V8H8 V7H7V6H8V5H7V4 L8,4 M5,4H6" transform="translate(9 10) scale(0.125)" />
<path d="M0,4 H2V5H1V8 H2V6H3V5H3V4 H3V3H1V1H2V2H4V3 H8V2H6V2H5V1H3 L3,0 M6,1H7V2 M8,2V1 M3,8 V7H4V8H5V6H4 V5H4V4H5V5 H6V7H6V8H8 V7H7V6H8V5H7V4 L8,4 M5,4H6" transform="translate(9 12) scale(0.125)" />
<path d="M0,4 H2V5H1V8 H2V6H3V5H3V4 H3V3H1V1H2V2H4V3 H8V2H6V2H5V1H3 L3,0 M6,1H7V2 M8,2V1 M3,8 V7H4V8H5V6H4 V5H4V4H5V5 H6V7H6V8H8 V7H7V6H8V5H7V4 L8,4 M5,4H6" transform="translate(9 15) scale(0.125)" />
<path d="M0,4 H2V5H1V8 H2V6H3V5H3V4 H3V3H1V1H2V2H4V3 H8V2H6V2H5V1H3 L3,0 M6,1H7V2 M8,2V1 M3,8 V7H4V8H5V6H4 V5H4V4H5V5 H6V7H6V8H8 V7H7V6H8V5H7V4 L8,4 M5,4H6" transform="translate(9 18) scale(0.125)" />
<path d="M0,4 H2V5H1V8 H2V6H3V5H3V4 H3V3H1V1H2V2H4V3 H8V2H6V2H5V1H3 L3,0 M6,1H7V2 M8,2V1 M3,8 V7H4V8H5V6H4 V5H4V4H5V5 H6V7H6V8H8 V7H7V6H8V5H7V4 L8,4 M5,4H6" transform="translate(9 19) scale(0.125)" />
<path d="M0,4 H2V5H1V8 H2V6H3V5H3V4 H3V3H1V1H2V2H4V3 H8V2H6V2H5V1H3 L3,0 M6,1H7V2 M8,2V1 M3,8 V7H4V8H5V6H4 V5H4V4H5V5 H6V7H6V8H8 V7H7V6H8V5H7V4 L8,4 M5,4H6" transform="translate(9 20) scale(0.125)" />
<path d="M0,4 H2V5H1V8 H2V6H3V5H3V4 H3V3H1V1H2V2H4V3 H8V2H6V2H5V1H3 L3,0 M6,1H7V2 M8,2V1 M3,8 V7H4V8H5V6H4 V5H4V4H5V5 H6V7H6V8H8 V7H7V6H8V5H7V4 L8,4 M5,4H6" transform="translate(10 3) scale(0.125)" />
<path d="M0,4 H2V5H1V8 H2V6H3V5H3V4 H3V3H1V1H2V2H4V3 H8V2H6V2H5V1H3 L3,0 M6,1H7V2 M8,2V1 M3,8 V7H4V8H5V6H4 V5H4V4H5V5 H6V7H6V8H8 V7H7V6H8V5H7V4 L8,4 M5,4H6" transform="translate(10 6) scale(0.125)" />
<path d="M0,4 H2V5H1V8 H2V6H3V5H3V4 H3V3H1V1H2V2H4V3 H8V2H6V2H5V1H3 L3,0 M6,1H7V2 M8,2V1 M3,8 V7H4V8H5V6H4 V5H4V4H5V5 H6V7H6V8H8 V7H7V6H8V5H7V4 L8,4 M5,4H6" transform="translate(10 7) scale(0.125)" />
<path d="M0,4 H2V5H1V8 H2V6H3V5H3V4 H3V3H1V1H2V2H4V3 H8V2H6V2H5V1H3 L3,0 M6,1H7V2 M8,2V1 M3,8 V7H4V8H5V6H4 V5H4V4H5V5 H6V7H6V8H8 V7H7V6H8V5H7V4 L8,4 M5,4H6" transform="translate(10 8) scale(0.125)" />
<path d="M0,4 H2V5H1V8 H2V6H3V5H3V4 H3V3H1V1H2V2H4V3 H8V2H6V2H5V1H3 L3,0 M6,1H7V2 M8,2V1 M3,8 V7H4V8H5V6H4 V5H4V4H5V5 H6V7H6V8H8 V7H7V6H8V5H7V4 L8,4 M5,4H6" transform="translate(10 9) scale(0.125)" />
<path d="M0,4 H2V5H1V8 H2V6H3V5H3V4 H3V3H1V1H2V2H4V3 H8V2H6V2H5V1H3 L3,0 M6,1H7V2 M8,2V1 M3,8 V7H4V8H5V6H4 V5H4V4H5V5 H6V7H6V8H8 V7H7V6H8V5H7V4 L8,4 M5,4H6" transform="translate(10 11) scale(0.125)" />
<path d="M0,4 H2V5H1V8 H2V6H3V5H3V4 H3V3H1V1H2V2H4V3 H8V2H6V2H5V1H3 L3,0 M6,1H7V2 M8,2V1 M3,8 V7H4V8H5V6H4 V5H4V4H5V5 H6V7H6V8H8 V7H7V6H8V5H7V4 L8,4 M5,4H6" transform="translate(10 13) scale(0.125)" />
<path d="M0,4 H2V5H1V8 H2V6H3V5H3V4 H3V3H1V1H2V2H4V3 H8V2H6V2H5V1H3 L3,0 M6,1H7V2 M8,2V1 M3,8 V7H4V8H5V6H4 V5H4V4H5V5 H6V7H6V8H8 V7H7V6H8V5H7V4 L8,4 M5,4H6" transform="translate(10 16) scale(0.125)" />
<path d="M0,4 H2V5H1V8 H2V6H3V5H3V4 H3V3H1V1H2V2H4V3 H8V2H6V2H5V1H3 L3,0 M6,1H7V2 M8,2V1 M3,8 V7H4V8H5V6H4 V5H4V4H5V5 H6V7H6V8H8 V7H7V6H8V5H7V4 L8,4 M5,4H6" transform="translate(10 18) scale(0.125)" />
<path d="M0,4 H2V5H1V8 H2V6H3V5H3V4 H3V3H1V1H2V2H4V3 H8V2H6V2H5V1H3 L3,0 M6,1H7V2 M8,2V1 M3,8 V7H4V8H5V6H4 V5H4V4H5V5 H6V7H6V8H8 V7H7V6H8V5H7V4 L8,4 M5,4H6" transform="translate(11 0) scale(0.125)" />
<path d="M0,4 H2V5H1V8 H2V6H3V5H3V4 H3V3H1V1H2V2H4V3 H8V2H6V2H5V1H3 L3,0 M6,1H7V2 M8,2V1 M3,8 V7H4V8H5V6H4 V5H4V4H5V5 H6V7H6V8H8 V7H7V6H8V5H7V4 L8,4 M5,4H6" transform="translate(11 1) scale(0.125)" />
<path d="M0,4 H2V5H1V8 H2V6H3V5H3V4 H3V3H1V1H2V2H4V3 H8V2H6V2H5V1H3 L3,0 M6,1H7V2 M8,2V1 M3,8 V7H4V8H5V6H4 V5H4V4H5V5 H6V7H6V8H8 V7H7V6H8V5H7V4 L8,4 M5,4H6" transform="translate(11 3) scale(0.125)" />
<path d="M0,4 H2V5H1V8 H2V6H3V5H3V4 H3V3H1V1H2V2H4V3 H8V2H6V2H5V1H3 L3,0 M6,1H7V2 M8,2V1 M3,8 V7H4V8H5V6H4 V5H4V4H5V5 H6V7H6V8H8 V7H7V6H8V5H7V4 L8,4 M5,4H6" transform="translate(11 4) scale(0.125)" />
<path d="M0,4 H2V5H1V8 H2V6H3V5H3V4 H3V3H1V1H2V2H4V3 H8V2H6V2H5V1H3 L3,0 M6,1H7V2 M8,2V1 M3,8 V7H4V8H5V6H4 V5H4V4H5V5 H6V7H6V8H8 V7H7V6H8V5H7V4 L8,4 M5,4H6" transform="translate(11 5) scale(0.125)" />
<path d="M0,4 H2V5H1V8 H2V6H3V5H3V4 H3V3H1V1H2V2H4V3 H8V2H6V2H5V1H3 L3,0 M6,1H7V2 M8,2V1 M3,8 V7H4V8H5V6H4 V5H4V4H5V5 H6V7H6V8H8 V7H7V6H8V5H7V4 L8,4 M5,4H6" transform="translate(11 9) scale(0.125)" />
<path d="M0,4 H2V5H1V8 H2V6H3V5H3V4 H3V3H1V1H2V2H4V3 H8V2H6V2H5V1H3 L3,0 M6,1H7V2 M8,2V1 M3,8 V7H4V8H5V6H4 V5H4V4H5V5 H6V7H6V8H8 V7H7V6H8V5H7V4 L8,4 M5,4H6" transform="translate(11 10) scale(0.125)" />
<path d="M0,4 H2V5H1V8 H2V6H3V5H3V4 H3V3H1V1H2V2H4V3 H8V2H6V2H5V1H3 L3,0 M6,1H7V2 M8,2V1 M3,8 V7H4V8H5V6H4 V5H4V4H5V5 H6V7H6V8H8 V7H7V6H8V5H7V4 L8,4 M5,4H6" transform="translate(11 15) scale(0.125)" />
<path d="M0,4 H2V5H1V8 H2V6H3V5H3V4 H3V3H1V1H2V2H4V3 H8V2H6V2H5V1H3 L3,0 M6,1H7V2 M8,2V1 M3,8 V7H4V8H5V6H4 V5H4V4H5V5 H6V7H6V8H8 V7H7V6H8V5H7V4 L8,4 M5,4H6" transform="translate(11 16) scale(0.125)" />
<path d="M0,4 H2V5H1V8 H2V6H3V5H3V4 H3V3H1V1H2V2H4V3 H8V2H6V2H5V1H3 L3,0 M6,1H7V2 M8,2V1 M3,8 V7H4V8H5V6H4 V5H4V4H5V5 H6V7H6V8H8 V7H7V6H8V5H7V4 L8,4 M5,4H6" transform="translate(11 18) scale(0.125)" />
<path d="M0,4 H2V5H1V8 H2V6H3V5H3V4 H3V3H1V1H2V2H4V3 H8V2H6V2H5V1H3 L3,0 M6,1H7V2 M8,2V1 M3,8 V7H4V8H5V6H4 V5H4V4H5V5 H6V7H6V8H8 V7H7V6H8V5H7V4 L8,4 M5,4H6" transform="translate(12 1) scale(0.125)" />
<path d="M0,4 H2V5H1V8 H2V6H3V5H3V4 H3V3H1V1H2V2H4V3 H8V2H6V2H5V1H3 L3,0 M6,1H7V2 M8,2V1 M3,8 V7H4V8H5V6H4 V5H4V4H5V5 H6V7H6V8H8 V7H7V6H8V5H7V4 L8,4 M5,4H6" transform="translate(12 3) scale(0.125)" />
<path d="M0,4 H2V5H1V8 H2V6H3V5H3V4 H3V3H1V1H2V2H4V3 H8V2H6V2H5V1H3 L3,0 M6,1H7V2 M8,2V1 M3,8 V7H4V8H5V6H4 V5H4V4H5V5 H6V7H6V8H8 V7H7V6H8V5H7V4 L8,4 M5,4H6" transform="translate(12 5) scale(0.125)" />
<path d="M0,4 H2V5H1V8 H2V6H3V5H3V4 H3V3H1V1H2V2H4V3 H8V2H6V2H5V1H3 L3,0 M6,1H7V2 M8,2V1 M3,8 V7H4V8H5V6H4 V5H4V4H5V5 H6V7H6V8H8 V7H7V6H8V5H7V4 L8,4 M5,4H6" transform="translate(12 6) scale(0.125)" />
<path d="M0,4 H2V5H1V8 H2V6H3V5H3V4 H3V3H1V1H2V2H4V3 H8V2H6V2H5V1H3 L3,0 M6,1H7V2 M8,2V1 M3,8 V7H4V8H5V6H4 V5H4V4H5V5 H6V7H6V8H8 V7H7V6H8V5H7V4 L8,4 M5,4H6" transform="translate(12 11) scale(0.125)" />
<path d="M0,4 H2V5H1V8 H2V6H3V5H3V4 H3V3H1V1H2V2H4V3 H8V2H6V2H5V1H3 L3,0 M6,1H7V2 M8,2V1 M3,8 V7H4V8H5V6H4 V5H4V4H5V5 H6V7H6V8H8 V7H7V6H8V5H7V4 L8,4 M5,4H6" transform="translate(12 13) scale(0.125)" />
<path d="M0,4 H2V5H1V8 H2V6H3V5H3V4 H3V3H1V1H2V2H4V3 H8V2H6V2H5V1H3 L3,0 M6,1H7V2 M8,2V1 M3,8 V7H4V8H5V6H4 V5H4V4H5V5 H6V7H6V8H8 V7H7V6H8V5H7V4 L8,4 M5,4H6" transform="translate(12 16) scale(0.125)" />
<path d="M0,4 H2V5H1V8 H2V6H3V5H3V4 H3V3H1V1H2V2H4V3 H8V2H6V2H5V1H3 L3,0 M6,1H7V2 M8,2V1 M3,8 V7H4V8H5V6H4 V5H4V4H5V5 H6V7H6V8H8 V7H7V6H8V5H7V4 L8,4 M5,4H6" transform="translate(12 17) scale(0.125)" />
<path d="M0,4 H2V5H1V8 H2V6H3V5H3V4 H3V3H1V1H2V2H4V3 H8V2H6V2H5V1H3 L3,0 M6,1H7V2 M8,2V1 M3,8 V7H4V8H5V6H4 V5H4V4H5V5 H6V7H6V8H8 V7H7V6H8V5H7V4 L8,4 M5,4H6" transform="translate(13 8) scale(0.125)" />
<path d="M0,4 H2V5H1V8 H2V6H3V5H3V4 H3V3H1V1H2V2H4V3 H8V2H6V2H5V1H3 L3,0 M6,1H7V2 M8,2V1 M3,8 V7H4V8H5V6H4 V5H4V4H5V5 H6V7H6V8H8 V7H7V6H8V5H7V4 L8,4 M5,4H6" transform="translate(13 9) scale(0.125)" />
<path d="M0,4 H2V5H1V8 H2V6H3V5H3V4 H3V3H1V1H2V2H4V3 H8V2H6V2H5V1H3 L3,0 M6,1H7V2 M8,2V1 M3,8 V7H4V8H5V6H4 V5H4V4H5V5 H6V7H6V8H8 V7H7V6H8V5H7V4 L8,4 M5,4H6" transform="translate(13 10) scale(0.125)" />
<path d="M0,4 H2V5H1V8 H2V6H3V5H3V4 H3V3H1V1H2V2H4V3 H8V2H6V2H5V1H3 L3,0 M6,1H7V2 M8,2V1 M3,8 V7H4V8H5V6H4 V5H4V4H5V5 H6V7H6V8H8 V7H7V6H8V5H7V4 L8,4 M5,4H6" transform="translate(13 11) scale(0.125)" />
<path d="M0,4 H2V5H1V8 H2V6H3V5H3V4 H3V3H1V1H2V2H4V3 H8V2H6V2H5V1H3 L3,0 M6,1H7V2 M8,2V1 M3,8 V7H4V8H5V6H4 V5H4V4H5V5 H6V7H6V8H8 V7H7V6H8V5H7V4 L8,4 M5,4H6" transform="translate(13 12) scale(0.125)" />
<path d="M0,4 H2V5H1V8 H2V6H3V5H3V4 H3V3H1V1H2V2H4V3 H8V2H6V2H5V1H3 L3,0 M6,1H7V2 M8,2V1 M3,8 V7H4V8H5V6H4 V5H4V4H5V5 H6V7H6V8H8 V7H7V6H8V5H7V4 L8,4 M5,4H6" transform="translate(13 13) scale(0.125)" />
<path d="M0,4 H2V5H1V8 H2V6H3V5H3V4 H3V3H1V1H2V2H4V3 H8V2H6V2H5V1H3 L3,0 M6,1H7V2 M8,2V1 M3,8 V7H4V8H5V6H4 V5H4V4H5V5 H6V7H6V8H8 V7H7V6H8V5H7V4 L8,4 M5,4H6" transform="translate(13 14) scale(0.125)" />
<path d="M0,4 H2V5H1V8 H2V6H3V5H3V4 H3V3H1V1H2V2H4V3 H8V2H6V2H5V1H3 L3,0 M6,1H7V2 M8,2V1 M3,8 V7H4V8H5V6H4 V5H4V4H5V5 H6V7H6V8H8 V7H7V6H8V5H7V4 L8,4 M5,4H6" transform="translate(13 18) scale(0.125)" />
<path d="M0,4 H2V5H1V8 H2V6H3V5H3V4 H3V3H1V1H2V2H4V3 H8V2H6V2H5V1H3 L3,0 M6,1H7V2 M8,2V1 M3,8 V7H4V8H5V6H4 V5H4V4H5V5 H6V7H6V8H8 V7H7V6H8V5H7V4 L8,4 M5,4H6" transform="translate(13 19) scale(0.125)" />
<path d="M0,4 H2V5H1V8 H2V6H3V5H3V4 H3V3H1V1H2V2H4V3 H8V2H6V2H5V1H3 L3,0 M6,1H7V2 M8,2V1 M3,8 V7H4V8H5V6H4 V5H4V4H5V5 H6V7H6V8H8 V7H7V6H8V5H7V4 L8,4 M5,4H6" transform="translate(14 0) scale(0.125)" />
<path d="M0,4 H2V5H1V8 H2V6H3V5H3V4 H3V3H1V1H2V2H4V3 H8V2H6V2H5V1H3 L3,0 M6,1H7V2 M8,2V1 M3,8 V7H4V8H5V6H4 V5H4V4H5V5 H6V7H6V8H8 V7H7V6H8V5H7V4 L8,4 M5,4H6" transform="translate(14 1) scale(0.125)" />
<path d="M0,4 H2V5H1V8 H2V6H3V5H3V4 H3V3H1V1H2V2H4V3 H8V2H6V2H5V1H3 L3,0 M6,1H7V2 M8,2V1 M3,8 V7H4V8H5V6H4 V5H4V4H5V5 H6V7H6V8H8 V7H7V6H8V5H7V4 L8,4 M5,4H6" transform="translate(14 2) scale(0.125)" />
<path d="M0,4 H2V5H1V8 H2V6H3V5H3V4 H3V3H1V1H2V2H4V3 H8V2H6V2H5V1H3 L3,0 M6,1H7V2 M8,2V1 M3,8 V7H4V8H5V6H4 V5H4V4H5V5 H6V7H6V8H8 V7H7V6H8V5H7V4 L8,4 M5,4H6" transform="translate(14 3) scale(0.125)" />
<path d="M0,4 H2V5H1V8 H2V6H3V5H3V4 H3V3H1V1H2V2H4V3 H8V2H6V2H5V1H3 L3,0 M6,1H7V2 M8,2V1 M3,8 V7H4V8H5V6H4 V5H4V4H5V5 H6V7H6V8H8 V7H7V6H8V5H7V4 L8,4 M5,4H6" transform="translate(14 4) scale(0.125)" />
<path d="M0,4 H2V5H1V8 H2V6H3V5H3V4 H3V3H1V1H2V2H4V3 H8V2H6V2H5V1H3 L3,0 M6,1H7V2 M8,2V1 M3,8 V7H4V8H5V6H4 V5H4V4H5V5 H6V7H6V8H8 V7H7V6H8V5H7V4 L8,4 M5,4H6" transform="translate(14 5) scale(0.125)" />
<path d="M0,4 H2V5H1V8 H2V6H3V5H3V4 H3V3H1V1H2V2H4V3 H8V2H6V2H5V1H3 L3,0 M6,1H7V2 M8,2V1 M3,8 V7H4V8H5V6H4 V5H4V4H5V5 H6V7H6V8H8 V7H7V6H8V5H7V4 L8,4 M5,4H6" transform="translate(14 6) scale(0.125)" />
<path d="M0,4 H2V5H1V8 H2V6H3V5H3V4 H3V3H1V1H2V2H4V3 H8V2H6V2H5V1H3 L3,0 M6,1H7V2 M8,2V1 M3,8 V7H4V8H5V6H4 V5H4V4H5V5 H6V7H6V8H8 V7H7V6H8V5H7V4 L8,4 M5,4H6" transform="translate(14 12) scale(0.125)" />
<path d="M0,4 H2V5H1V8 H2V6H3V5H3V4 H3V3H1V1H2V2H4V3 H8V2H6V2H5V1H3 L3,0 M6,1H7V2 M8,2V1 M3,8 V7H4V8H5V6H4 V5H4V4H5V5 H6V7H6V8H8 V7H7V6H8V5H7V4 L8,4 M5,4H6" transform="translate(14 14) scale(0.125)" />
<path d="M0,4 H2V5H1V8 H2V6H3V5H3V4 H3V3H1V1H2V2H4V3 H8V2H6V2H5V1H3 L3,0 M6,1H7V2 M8,2V1 M3,8 V7H4V8H5V6H4 V5H4V4H5V5 H6V7H6V8H8 V7H7V6H8V5H7V4 L8,4 M5,4H6" transform="translate(14 15) scale(0.125)" />
<path d="M0,4 H2V5H1V8 H2V6H3V5H3V4 H3V3H1V1H2V2H4V3 H8V2H6V2H5V1H3 L3,0 M6,1H7V2 M8,2V1 M3,8 V7H4V8H5V6H4 V5H4V4H5V5 H6V7H6V8H8 V7H7V6H8V5H7V4 L8,4 M5,4H6" transform="translate(14 18) scale(0.125)" />
<path d="M0,4 H2V5H1V8 H2V6H3V5H3V4 H3V3H1V1H2V2H4V3 H8V2H6V2H5V1H3 L3,0 M6,1H7V2 M8,2V1 M3,8 V7H4V8H5V6H4 V5H4V4H5V5 H6V7H6V8H8 V7H7V6H8V5H7V4 L8,4 M5,4H6" transform="translate(14 19) scale(0.125)" />
<path d="M0,4 H2V5H1V8 H2V6H3V5H3V4 H3V3H1V1H2V2H4V3 H8V2H6V2H5V1H3 L3,0 M6,1H7V2 M8,2V1 M3,8 V7H4V8H5V6H4 V5H4V4H5V5 H6V7H6V8H8 V7H7V6H8V5H7V4 L8,4 M5,4H6" transform="translate(15 0) scale(0.125)" />
<path d="M0,4 H2V5H1V8 H2V6H3V5H3V4 H3V3H1V1H2V2H4V3 H8V2H6V2H5V1H3 L3,0 M6,1H7V2 M8,2V1 M3,8 V7H4V8H5V6H4 V5H4V4H5V5 H6V7H6V8H8 V7H7V6H8V5H7V4 L8,4 M5,4H6" transform="translate(15 6) scale(0.125)" />
<path d="M0,4 H2V5H1V8 H2V6H3V5H3V4 H3V3H1V1H2V2H4V3 H8V2H6V2H5V1H3 L3,0 M6,1H7V2 M8,2V1 M3,8 V7H4V8H5V6H4 V5H4V4H5V5 H6V7H6V8H8 V7H7V6H8V5H7V4 L8,4 M5,4H6" transform="translate(15 8) scale(0.125)" />
<path d="M0,4 H2V5H1V8 H2V6H3V5H3V4 H3V3H1V1H2V2H4V3 H8V2H6V2H5V1H3 L3,0 M6,1H7V2 M8,2V1 M3,8 V7H4V8H5V6H4 V5H4V4H5V5 H6V7H6V8H8 V7H7V6H8V5H7V4 L8,4 M5,4H6" transform="translate(15 10) scale(0.125)" />
<path d="M0,4 H2V5H1V8 H2V6H3V5H3V4 H3V3H1V1H2V2H4V3 H8V2H6V2H5V1H3 L3,0 M6,1H7V2 M8,2V1 M3,8 V7H4V8H5V6H4 V5H4V4H5V5 H6V7H6V8H8 V7H7V6H8V5H7V4 L8,4 M5,4H6" transform="translate(15 11) scale(0.125)" />
<path d="M0,4 H2V5H1V8 H2V6H3V5H3V4 H3V3H1V1H2V2H4V3 H8V2H6V2H5V1H3 L3,0 M6,1H7V2 M8,2V1 M3,8 V7H4V8H5V6H4 V5H4V4H5V5 H6V7H6V8H8 V7H7V6H8V5H7V4 L8,4 M5,4H6" transform="translate(15 12) scale(0.125)" />
<path d="M0,4 H2V5H1V8 H2V6H3V5H3V4 H3V3H1V1H2V2H4V3 H8V2H6V2H5V1H3 L3,0 M6,1H7V2 M8,2V1 M3,8 V7H4V8H5V6H4 V5H4V4H5V5 H6V7H6V8H8 V7H7V6H8V5H7V4 L8,4 M5,4H6" transform="translate(15 13) scale(0.125)" />
<path d="M0,4 H2V5H1V8 H2V6H3V5H3V4 H3V3H1V1H2V2H4V3 H8V2H6V2H5V1H3 L3,0 M6,1H7V2 M8,2V1 M3,8 V7H4V8H5V6H4 V5H4V4H5V5 H6V7H6V8H8 V7H7V6H8V5H7V4 L8,4 M5,4H6" transform="translate(15 14) scale(0.125)" />
<path d="M0,4 H2V5H1V8 H2V6H3V5H3V4 H3V3H1V1H2V2H4V3 H8V2H6V2H5V1H3 L3,0 M6,1H7V2 M8,2V1 M3,8 V7H4V8H5V6H4 V5H4V4H5V5 H6V7H6V8H8 V7H7V6H8V5H7V4 L8,4 M5,4H6" transform="translate(15 18) scale(0.125)" />
<path d="M0,4 H2V5H1V8 H2V6H3V5H3V4 H3V3H1V1H2V2H4V3 H8V2H6V2H5V1H3 L3,0 M6,1H7V2 M8,2V1 M3,8 V7H4V8H5V6H4 V5H4V4H5V5 H6V7H6V8H8 V7H7V6H8V5H7V4 L8,4 M5,4H6" transform="translate(16 0) scale(0.125)" />
<path d="M0,4 H2V5H1V8 H2V6H3V5H3V4 H3V3H1V1H2V2H4V3 H8V2H6V2H5V1H3 L3,0 M6,1H7V2 M8,2V1 M3,8 V7H4V8H5V6H4 V5H4V4H5V5 H6V7H6V8H8 V7H7V6H8V5H7V4 L8,4 M5,4H6" transform="translate(16 2) scale(0.125)" />
<path d="M0,4 H2V5H1V8 H2V6H3V5H3V4 H3V3H1V1H2V2H4V3 H8V2H6V2H5V1H3 L3,0 M6,1H7V2 M8,2V1 M3,8 V7H4V8H5V6H4 V5H4V4H5V5 H6V7H6V8H8 V7H7V6H8V5H7V4 L8,4 M5,4H6" transform="translate(16 3) scale(0.125)" />
<path d="M0,4 H2V5H1V8 H2V6H3V5H3V4 H3V3H1V1H2V2H4V3 H8V2H6V2H5V1H3 L3,0 M6,1H7V2 M8,2V1 M3,8 V7H4V8H5V6H4 V5H4V4H5V5 H6V7H6V8H8 V7H7V6H8V5H7V4 L8,4 M5,4H6" transform="translate(16 4) scale(0.125)" />
<path d="M0,4 H2V5H1V8 H2V6H3V5H3V4 H3V3H1V1H2V2H4V3 H8V2H6V2H5V1H3 L3,0 M6,1H7V2 M8,2V1 M3,8 V7H4V8H5V6H4 V5H4V4H5V5 H6V7H6V8H8 V7H7V6H8V5H7V4 L8,4 M5,4H6" transform="translate(16 6) scale(0.125)" />
<path d="M0,4 H2V5H1V8 H2V6H3V5H3V4 H3V3H1V1H2V2H4V3 H8V2H6V2H5V1H3 L3,0 M6,1H7V2 M8,2V1 M3,8 V7H4V8H5V6H4 V5H4V4H5V5 H6V7H6V8H8 V7H7V6H8V5H7V4 L8,4 M5,4H6" transform="translate(16 8) scale(0.125)" />
<path d="M0,4 H2V5H1V8 H2V6H3V5H3V4 H3V3H1V1H2V2H4V3 H8V2H6V2H5V1H3 L3,0 M6,1H7V2 M8,2V1 M3,8 V7H4V8H5V6H4 V5H4V4H5V5 H6V7H6V8H8 V7H7V6H8V5H7V4 L8,4 M5,4H6" transform="translate(16 10) scale(0.125)" />
<path d="M0,4 H2V5H1V8 H2V6H3V5H3V4 H3V3H1V1H2V2H4V3 H8V2H6V2H5V1H3 L3,0 M6,1H7V2 M8,2V1 M3,8 V7H4V8H5V6H4 V5H4V4H5V5 H6V7H6V8H8 V7H7V6H8V5H7V4 L8,4 M5,4H6" transform="translate(16 12) scale(0.125)" />
<path d="M0,4 H2V5H1V8 H2V6H3V5H3V4 H3V3H1V1H2V2H4V3 H8V2H6V2H5V1H3 L3,0 M6,1H7V2 M8,2V1 M3,8 V7H4V8H5V6H4 V5H4V4H5V5 H6V7H6V8H8 V7H7V6H8V5H7V4 L8,4 M5,4H6" transform="translate(16 15) scale(0.125)" />
<path d="M0,4 H2V5H1V8 H2V6H3V5H3V4 H3V3H1V1H2V2H4V3 H8V2H6V2H5V1H3 L3,0 M6,1H7V2 M8,2V1 M3,8 V7H4V8H5V6H4 V5H4V4H5V5 H6V7H6V8H8 V7H7V6H8V5H7V4 L8,4 M5,4H6" transform="translate(16 17) scale(0.125)" />
<path d="M0,4 H2V5H1V8 H2V6H3V5H3V4 H3V3H1V1H2V2H4V3 H8V2H6V2H5V1H3 L3,0 M6,1H7V2 M8,2V1 M3,8 V7H4V8H5V6H4 V5H4V4H5V5 H6V7H6V8H8 V7H7V6H8V5H7V4 L8,4 M5,4H6" transform="translate(16 19) scale(0.125)" />
<path d="M0,4 H2V5H1V8 H2V6H3V5H3V4 H3V3H1V1H2V2H4V3 H8V2H6V2H5V1H3 L3,0 M6,1H7V2 M8,2V1 M3,8 V7H4V8H5V6H4 V5H4V4H5V5 H6V7H6V8H8 V7H7V6H8V5H7V4 L8,4 M5,4H6" transform="translate(17 0) scale(0.125)" />
<path d="M0,4 H2V5H1V8 H2V6H3V5H3V4 H3V3H1V1H2V2H4V3 H8V2H6V2H5V1H3 L3,0 M6,1H7V2 M8,2V1 M3,8 V7H4V8H5V6H4 V5H4V4H5V5 H6V7H6V8H8 V7H7V6H8V5H7V4 L8,4 M5,4H6" transform="translate(17 2) scale(0.125)" />
<path d="M0,4 H2V5H1V8 H2V6H3V5H3V4 H3V3H1V1H2V2H4V3 H8V2H6V2H5V1H3 L3,0 M6,1H7V2 M8,2V1 M3,8 V7H4V8H5V6H4 V5H4V4H5V5 H6V7H6V8H8 V7H7V6H8V5H7V4 L8,4 M5,4H6" transform="translate(17 3) scale(0.125)" />
<path d="M0,4 H2V5H1V8 H2V6H3V5H3V4 H3V3H1V1H2V2H4V3 H8V2H6V2H5V1H3 L3,0 M6,1H7V2 M8,2V1 M3,8 V7H4V8H5V6H4 V5H4V4H5V5 H6V7H6V8H8 V7H7V6H8V5H7V4 L8,4 M5,4H6" transform="translate(17 4) scale(0.125)" />
<path d="M0,4 H2V5H1V8 H2V6H3V5H3V4 H3V3H1V1H2V2H4V3 H8V2H6V2H5V1H3 L3,0 M6,1H7V2 M8,2V1 M3,8 V7H4V8H5V6H4 V5H4V4H5V5 H6V7H6V8H8 V7H7V6H8V5H7V4 L8,4 M5,4H6" transform="translate(17 6) scale(0.125)" />
<path d="M0,4 H2V5H1V8 H2V6H3V5H3V4 H3V3H1V1H2V2H4V3 H8V2H6V2H5V1H3 L3,0 M6,1H7V2 M8,2V1 M3,8 V7H4V8H5V6H4 V5H4V4H5V5 H6V7H6V8H8 V7H7V6H8V5H7V4 L8,4 M5,4H6" transform="translate(17 8) scale(0.125)" />
<path d="M0,4 H2V5H1V8 H2V6H3V5H3V4 H3V3H1V1H2V2H4V3 H8V2H6V2H5V1H3 L3,0 M6,1H7V2 M8,2V1 M3,8 V7H4V8H5V6H4 V5H4V4H5V5 H6V7H6V8H8 V7H7V6H8V5H7V4 L8,4 M5,4H6" transform="translate(17 9) scale(0.125)" />
<path d="M0,4 H2V5H1V8 H2V6H3V5H3V4 H3V3H1V1H2V2H4V3 H8V2H6V2H5V1H3 L3,0 M6,1H7V2 M8,2V1 M3,8 V7H4V8H5V6H4 V5H4V4H5V5 H6V7H6V8H8 V7H7V6H8V5H7V4 L8,4 M5,4H6" transform="translate(17 10) scale(0.125)" />
<path d="M0,4 H2V5H1V8 H2V6H3V5H3V4 H3V3H1V1H2V2H4V3 H8V2H6V2H5V1H3 L3,0 M6,1H7V2 M8,2V1 M3,8 V7H4V8H5V6H4 V5H4V4H5V5 H6V7H6V8H8 V7H7V6H8V5H7V4 L8,4 M5,4H6" transform="translate(17 12) scale(0.125)" />
<path d="M0,4 H2V5H1V8 H2V6H3V5H3V4 H3V3H1V1H2V2H4V3 H8V2H6V2H5V1H3 L3,0 M6,1H7V2 M8,2V1 M3,8 V7H4V8H5V6H4 V5H4V4H5V5 H6V7H6V8H8 V7H7V6H8V5H7V4 L8,4 M5,4H6" transform="translate(17 15) scale(0.125)" />
<path d="M0,4 H2V5H1V8 H2V6H3V5H3V4 H3V3H1V1H2V2H4V3 H8V2H6V2H5V1H3 L3,0 M6,1H7V2 M8,2V1 M3,8 V7H4V8H5V6H4 V5H4V4H5V5 H6V7H6V8H8 V7H7V6H8V5H7V4 L8,4 M5,4H6" transform="translate(18 0) scale(0.125)" />
<path d="M0,4 H2V5H1V8 H2V6H3V5H3V4 H3V3H1V1H2V2H4V3 H8V2H6V2H5V1H3 L3,0 M6,1H7V2 M8,2V1 M3,8 V7H4V8H5V6H4 V5H4V4H5V5 H6V7H6V8H8 V7H7V6H8V5H7V4 L8,4 M5,4H6" transform="translate(18 2) scale(0.125)" />
<path d="M0,4 H2V5H1V8 H2V6H3V5H3V4 H3V3H1V1H2V2H4V3 H8V2H6V2H5V1H3 L3,0 M6,1H7V2 M8,2V1 M3,8 V7H4V8H5V6H4 V5H4V4H5V5 H6V7H6V8H8 V7H7V6H8V5H7V4 L8,4 M5,4H6" transform="translate(18 3) scale(0.125)" />
<path d="M0,4 H2V5H1V8 H2V6H3V5H3V4 H3V3H1V1H2V2H4V3 H8V2H6V2H5V1H3 L3,0 M6,1H7V2 M8,2V1 M3,8 V7H4V8H5V6H4 V5H4V4H5V5 H6V7H6V8H8 V7H7V6H8V5H7V4 L8,4 M5,4H6" transform="translate(18 4) scale(0.125)" />
<path d="M0,4 H2V5H1V8 H2V6H3V5H3V4 H3V3H1V1H2V2H4V3 H8V2H6V2H5V1H3 L3,0 M6,1H7V2 M8,2V1 M3,8 V7H4V8H5V6H4 V5H4V4H5V5 H6V7H6V8H8 V7H7V6H8V5H7V4 L8,4 M5,4H6" transform="translate(18 6) scale(0.125)" />
<path d="M0,4 H2V5H1V8 H2V6H3V5H3V4 H3V3H1V1H2V2H4V3 H8V2H6V2H5V1H3 L3,0 M6,1H7V2 M8,2V1 M3,8 V7H4V8H5V6H4 V5H4V4H5V5 H6V7H6V8H8 V7H7V6H8V5H7V4 L8,4 M5,4H6" transform="translate(18 8) scale(0.125)" />
<path d="M0,4 H2V5H1V8 H2V6H3V5H3V4 H3V3H1V1H2V2H4V3 H8V2H6V2H5V1H3 L3,0 M6,1H7V2 M8,2V1 M3,8 V7H4V8H5V6H4 V5H4V4H5V5 H6V7H6V8H8 V7H7V6H8V5H7V4 L8,4 M5,4H6" transform="translate(18 11) scale(0.125)" />
<path d="M0,4 H2V5H1V8 H2V6H3V5H3V4 H3V3H1V1H2V2H4V3 H8V2H6V2H5V1H3 L3,0 M6,1H7V2 M8,2V1 M3,8 V7H4V8H5V6H4 V5H4V4H5V5 H6V7H6V8H8 V7H7V6H8V5H7V4 L8,4 M5,4H6" transform="translate(18 13) scale(0.125)" />
<path d="M0,4 H2V5H1V8 H2V6H3V5H3V4 H3V3H1V1H2V2H4V3 H8V2H6V2H5V1H3 L3,0 M6,1H7V2 M8,2V1 M3,8 V7H4V8H5V6H4 V5H4V4H5V5 H6V7H6V8H8 V7H7V6H8V5H7V4 L8,4 M5,4H6" transform="translate(18 16) scale(0.125)" />
<path d="M0,4 H2V5H1V8 H2V6H3V5H3V4 H3V3H1V1H2V2H4V3 H8V2H6V2H5V1H3 L3,0 M6,1H7V2 M8,2V1 M3,8 V7H4V8H5V6H4 V5H4V4H5V5 H6V7H6V8H8 V7H7V6H8V5H7V4 L8,4 M5,4H6" transform="translate(18 18) scale(0.125)" />
<path d="M0,4 H2V5H1V8 H2V6H3V5H3V4 H3V3H1V1H2V2H4V3 H8V2H6V2H5V1H3 L3,0 M6,1H7V2 M8,2V1 M3,8 V7H4V8H5V6H4 V5H4V4H5V5 H6V7H6V8H8 V7H7V6H8V5H7V4 L8,4 M5,4H6" transform="translate(19 0) scale(0.125)" />
<path d="M0,4 H2V5H1V8 H2V6H3V5H3V4 H3V3H1V1H2V2H4V3 H8V2H6V2H5V1H3 L3,0 M6,1H7V2 M8,2V1 M3,8 V7H4V8H5V6H4 V5H4V4H5V5 H6V7H6V8H8 V7H7V6H8V5H7V4 L8,4 M5,4H6" transform="translate(19 6) scale(0.125)" />
<path d="M0,4 H2V5H1V8 H2V6H3V5H3V4 H3V3H1V1H2V2H4V3 H8V2H6V2H5V1H3 L3,0 M6,1H7V2 M8,2V1 M3,8 V7H4V8H5V6H4 V5H4V4H5V5 H6V7H6V8H8 V7H7V6H8V5H7V4 L8,4 M5,4H6" transform="translate(19 9) scale(0.125)" />
<path d="M0,4 H2V5H1V8 H2V6H3V5H3V4 H3V3H1V1H2V2H4V3 H8V2H6V2H5V1H3 L3,0 M6,1H7V2 M8,2V1 M3,8 V7H4V8H5V6H4 V5H4V4H5V5 H6V7H6V8H8 V7H7V6H8V5H7V4 L8,4 M5,4H6" transform="translate(19 10) scale(0.125)" />
<path d="M0,4 H2V5H1V8 H2V6H3V5H3V4 H3V3H1V1H2V2H4V3 H8V2H6V2H5V1H3 L3,0 M6,1H7V2 M8,2V1 M3,8 V7H4V8H5V6H4 V5H4V4H5V5 H6V7H6V8H8 V7H7V6H8V5H7V4 L8,4 M5,4H6" transform="translate(19 15) scale(0.125)" />
<path d="M0,4 H2V5H1V8 H2V6H3V5H3V4 H3V3H1V1H2V2H4V3 H8V2H6V2H5V1H3 L3,0 M6,1H7V2 M8,2V1 M3,8 V7H4V8H5V6H4 V5H4V4H5V5 H6V7H6V8H8 V7H7V6H8V5H7V4 L8,4 M5,4H6" transform="translate(19 16) scale(0.125)" />
<path d="M0,4 H2V5H1V8 H2V6H3V5H3V4 H3V3H1V1H2V2H4V3 H8V2H6V2H5V1H3 L3,0 M6,1H7V2 M8,2V1 M3,8 V7H4V8H5V6H4 V5H4V4H5V5 H6V7H6V8H8 V7H7V6H8V5H7V4 L8,4 M5,4H6" transform="translate(19 18) scale(0.125)" />
<path d="M0,4 H2V5H1V8 H2V6H3V5H3V4 H3V3H1V1H2V2H4V3 H8V2H6V2H5V1H3 L3,0 M6,1H7V2 M8,2V1 M3,8 V7H4V8H5V6H4 V5H4V4H5V5 H6V7H6V8H8 V7H7V6H8V5H7V4 L8,4 M5,4H6" transform="translate(20 0) scale(0.125)" />
<path d="M0,4 H2V5H1V8 H2V6H3V5H3V4 H3V3H1V1H2V2H4V3 H8V2H6V2H5V1H3 L3,0 M6,1H7V2 M8,2V1 M3,8 V7H4V8H5V6H4 V5H4V4H5V5 H6V7H6V8H8 V7H7V6H8V5H7V4 L8,4 M5,4H6" transform="translate(20 1) scale(0.125)" />
<path d="M0,4 H2V5H1V8 H2V6H3V5H3V4 H3V3H1V1H2V2H4V3 H8V2H6V2H5V1H3 L3,0 M6,1H7V2 M8,2V1 M3,8 V7H4V8H5V6H4 V5H4V4H5V5 H6V7H6V8H8 V7H7V6H8V5H7V4 L8,4 M5,4H6" transform="translate(20 2) scale(0.125)" />
<path d="M0,4 H2V5H1V8 H2V6H3V5H3V4 H3V3H1V1H2V2H4V3 H8V2H6V2H5V1H3 L3,0 M6,1H7V2 M8,2V1 M3,8 V7H4V8H5V6H4 V5H4V4H5V5 H6V7H6V8H8 V7H7V6H8V5H7V4 L8,4 M5,4H6" transform="translate(20 3) scale(0.125)" />
<path d="M0,4 H2V5H1V8 H2V6H3V5H3V4 H3V3H1V1H2V2H4V3 H8V2H6V2H5V1H3 L3,0 M6,1H7V2 M8,2V1 M3,8 V7H4V8H5V6H4 V5H4V4H5V5 H6V7H6V8H8 V7H7V6H8V5H7V4 L8,4 M5,4H6" transform="translate(20 4) scale(0.125)" />
<path d="M0,4 H2V5H1V8 H2V6H3V5H3V4 H3V3H1V1H2V2H4V3 H8V2H6V2H5V1H3 L3,0 M6,1H7V2 M8,2V1 M3,8 V7H4V8H5V6H4 V5H4V4H5V5 H6V7H6V8H8 V7H7V6H8V5H7V4 L8,4 M5,4H6" transform="translate(20 5) scale(0.125)" />
<path d="M0,4 H2V5H1V8 H2V6H3V5H3V4 H3V3H1V1H2V2H4V3 H8V2H6V2H5V1H3 L3,0 M6,1H7V2 M8,2V1 M3,8 V7H4V8H5V6H4 V5H4V4H5V5 H6V7H6V8H8 V7H7V6H8V5H7V4 L8,4 M5,4H6" transform="translate(20 6) scale(0.125)" />
<path d="M0,4 H2V5H1V8 H2V6H3V5H3V4 H3V3H1V1H2V2H4V3 H8V2H6V2H5V1H3 L3,0 M6,1H7V2 M8,2V1 M3,8 V7H4V8H5V6H4 V5H4V4H5V5 H6V7H6V8H8 V7H7V6H8V5H7V4 L8,4 M5,4H6" transform="translate(20 8) scale(0.125)" />
<path d="M0,4 H2V5H1V8 H2V6H3V5H3V4 H3V3H1V1H2V2H4V3 H8V2H6V2H5V1H3 L3,0 M6,1H7V2 M8,2V1 M3,8 V7H4V8H5V6H4 V5H4V4H5V5 H6V7H6V8H8 V7H7V6H8V5H7V4 L8,4 M5,4H6" transform="translate(20 11) scale(0.125)" />
<path d="M0,4 H2V5H1V8 H2V6H3V5H3V4 H3V3H1V1H2V2H4V3 H8V2H6V2H5V1H3 L3,0 M6,1H7V2 M8,2V1 M3,8 V7H4V8H5V6H4 V5H4V4H5V5 H6V7H6V8H8 V7H7V6H8V5H7V4 L8,4 M5,4H6" transform="translate(20 13) scale(0.125)" />
<path d="M0,4 H2V5H1V8 H2V6H3V5H3V4 H3V3H1V1H2V2H4V3 H8V2H6V2H5V1H3 L3,0 M6,1H7V2 M8,2V1 M3,8 V7H4V8H5V6H4 V5H4V4H5V5 H6V7H6V8H8 V7H7V6H8V5H7V4 L8,4 M5,4H6" transform="translate(20 16) scale(0.125)" />
<path d="M0,4 H2V5H1V8 H2V6H3V5H3V4 H3V3H1V1H2V2H4V3 H8V2H6V2H5V1H3 L3,0 M6,1H7V2 M8,2V1 M3,8 V7H4V8H5V6H4 V5H4V4H5V5 H6V7H6V8H8 V7H7V6H8V5H7V4 L8,4 M5,4H6" transform="translate(20 18) scale(0.125)" />
<path d="M0,4 H2V5H1V8 H2V6H3V5H3V4 H3V3H1V1H2V2H4V3 H8V2H6V2H5V1H3 L3,0 M6,1H7V2 M8,2V1 M3,8 V7H4V8H5V6H4 V5H4V4H5V5 H6V7H6V8H8 V7H7V6H8V5H7V4 L8,4 M5,4H6" transform="translate(20 19) scale(0.125)" />
</svg>