<svg version="1.1" xmlns="http://www.w3.org/2000/svg"
	width="700" height="700"
	viewBox="-15 -15 105 105"
	fill="none"
	stroke="black"
	stroke-width="0.3"
	stroke-linecap="round"
>
	<path d="M0,1H3 M0,2H3 M1,0V3 M2,0V3 M0,0L3,3 M0,3L3,0" transform="translate(0 0)" />
<path d="M0,1H3 M0,2H3 M1,0V3 M2,0V3 M0,0L3,3 M0,3L3,0" transform="translate(0 3)" />
<path d="M0,1H3 M0,2H3 M1,0V3 M2,0V3 M0,0L3,3 M0,3L3,0" transform="translate(0 6)" />
<path d="M0,1H3 M0,2H3 M1,0V3 M2,0V3 M0,0L3,3 M0,3L3,0" transform="translate(0 9)" />
<path d="M0,1H3 M0,2H3 M1,0V3 M2,0V3 M0,0L3,3 M0,3L3,0" transform="translate(0 12)" />
<path d="M0,1H3 M0,2H3 M1,0V3 M2,0V3 M0,0L3,3 M0,3L3,0" transform="translate(0 15)" />
<path d="M0,1H3 M0,2H3 M1,0V3 M2,0V3 M0,0L3,3 M0,3L3,0" transform="translate(0 18)" />
<path d="M0,1H3 M0,2H3 M1,0V3 M2,0V3 M0,0L3,3 M0,3L3,0" transform="translate(0 27)" />
<path d="M0,1H3 M0,2H3 M1,0V3 M2,0V3 M0,0L3,3 M0,3L3,0" transform="translate(0 42)" />
<path d="M0,1H3 M0,2H3 M1,0V3 M2,0V3 M0,0L3,3 M0,3L3,0" transform="translate(0 45)" />
<path d="M0,1H3 M0,2H3 M1,0V3 M2,0V3 M0,0L3,3 M0,3L3,0" transform="translate(0 48)" />
<path d="M0,1H3 M0,2H3 M1,0V3 M2,0V3 M0,0L3,3 M0,3L3,0" transform="translate(0 51)" />
<path d="M0,1H3 M0,2H3 M1,0V3 M2,0V3 M0,0L3,3 M0,3L3,0" transform="translate(0 54)" />
<path d="M0,1H3 M0,2H3 M1,0V3 M2,0V3 M0,0L3,3 M0,3L3,0" transform="translate(0 57)" />
<path d="M0,1H3 M0,2H3 M1,0V3 M2,0V3 M0,0L3,3 M0,3L3,0" transform="translate(0 60)" />
<path d="M0,1H3 M0,2H3 M1,0V3 M2,0V3 M0,0L3,3 M0,3L3,0" transform="translate(3 0)" />
<path d="M0,1H3 M0,2H3 M1,0V3 M2,0V3 M0,0L3,3 M0,3L3,0" transform="translate(3 18)" />
<path d="M0,1H3 M0,2H3 M1,0V3 M2,0V3 M0,0L3,3 M0,3L3,0" transform="translate(3 27)" />
<path d="M0,1H3 M0,2H3 M1,0V3 M2,0V3 M0,0L3,3 M0,3L3,0" transform="translate(3 33)" />
<path d="M0,1H3 M0,2H3 M1,0V3 M2,0V3 M0,0L3,3 M0,3L3,0" transform="translate(3 42)" />
<path d="M0,1H3 M0,2H3 M1,0V3 M2,0V3 M0,0L3,3 M0,3L3,0" transform="translate(3 60)" />
<path d="M0,1H3 M0,2H3 M1,0V3 M2,0V3 M0,0L3,3 M0,3L3,0" transform="translate(6 0)" />
<path d="M0,1H3 M0,2H3 M1,0V3 M2,0V3 M0,0L3,3 M0,3L3,0" transform="translate(6 6)" />
<path d="M0,1H3 M0,2H3 M1,0V3 M2,0V3 M0,0L3,3 M0,3L3,0" transform="translate(6 9)" />
<path d="M0,1H3 M0,2H3 M1,0V3 M2,0V3 M0,0L3,3 M0,3L3,0" transform="translate(6 12)" />
<path d="M0,1H3 M0,2H3 M1,0V3 M2,0V3 M0,0L3,3 M0,3L3,0" transform="translate(6 18)" />
<path d="M0,1H3 M0,2H3 M1,0V3 M2,0V3 M0,0L3,3 M0,3L3,0" transform="translate(6 24)" />
<path d="M0,1H3 M0,2H3 M1,0V3 M2,0V3 M0,0L3,3 M0,3L3,0" transform="translate(6 27)" />
<path d="M0,1H3 M0,2H3 M1,0V3 M2,0V3 M0,0L3,3 M0,3L3,0" transform="translate(6 30)" />
<path d="M0,1H3 M0,2H3 M1,0V3 M2,0V3 M0,0L3,3 M0,3L3,0" transform="translate(6 36)" />
<path d="M0,1H3 M0,2H3 M1,0V3 M2,0V3 M0,0L3,3 M0,3L3,0" transform="translate(6 42)" />
<path d="M0,1H3 M0,2H3 M1,0V3 M2,0V3 M0,0L3,3 M0,3L3,0" transform="translate(6 48)" />
<path d="M0,1H3 M0,2H3 M1,0V3 M2,0V3 M0,0L3,3 M0,3L3,0" transform="translate(6 51)" />
<path d="M0,1H3 M0,2H3 M1,0V3 M2,0V3 M0,0L3,3 M0,3L3,0" transform="translate(6 54)" />
<path d="M0,1H3 M0,2H3 M1,0V3 M2,0V3 M0,0L3,3 M0,3L3,0" transform="translate(6 60)" />
<path d="M0,1H3 M0,2H3 M1,0V3 M2,0V3 M0,0L3,3 M0,3L3,0" transform="translate(9 0)" />
<path d="M0,1H3 M0,2H3 M1,0V3 M2,0V3 M0,0L3,3 M0,3L3,0" transform="translate(9 6)" />
<path d="M0,1H3 M0,2H3 M1,0V3 M2,0V3 M0,0L3,3 M0,3L3,0" transform="translate(9 9)" />
<path d="M0,1H3 M0,2H3 M1,0V3 M2,0V3 M0,0L3,3 M0,3L3,0" transform="translate(9 12)" />
<path d="M0,1H3 M0,2H3 M1,0V3 M2,0V3 M0,0L3,3 M0,3L3,0" transform="translate(9 18)" />
<path d="M0,1H3 M0,2H3 M1,0V3 M2,0V3 M0,0L3,3 M0,3L3,0" transform="translate(9 24)" />
<path d="M0,1H3 M0,2H3 M1,0V3 M2,0V3 M0,0L3,3 M0,3L3,0" transform="translate(9 27)" />
<path d="M0,1H3 M0,2H3 M1,0V3 M2,0V3 M0,0L3,3 M0,3L3,0" transform="translate(9 30)" />
<path d="M0,1H3 M0,2H3 M1,0V3 M2,0V3 M0,0L3,3 M0,3L3,0" transform="translate(9 33)" />
<path d="M0,1H3 M0,2H3 M1,0V3 M2,0V3 M0,0L3,3 M0,3L3,0" transform="translate(9 42)" />
<path d="M0,1H3 M0,2H3 M1,0V3 M2,0V3 M0,0L3,3 M0,3L3,0" transform="translate(9 48)" />
<path d="M0,1H3 M0,2H3 M1,0V3 M2,0V3 M0,0L3,3 M0,3L3,0" transform="translate(9 51)" />
<path d="M0,1H3 M0,2H3 M1,0V3 M2,0V3 M0,0L3,3 M0,3L3,0" transform="translate(9 54)" />
<path d="M0,1H3 M0,2H3 M1,0V3 M2,0V3 M0,0L3,3 M0,3L3,0" transform="translate(9 60)" />
<path d="M0,1H3 M0,2H3 M1,0V3 M2,0V3 M0,0L3,3 M0,3L3,0" transform="translate(12 0)" />
<path d="M0,1H3 M0,2H3 M1,0V3 M2,0V3 M0,0L3,3 M0,3L3,0" transform="translate(12 6)" />
<path d="M0,1H3 M0,2H3 M1,0V3 M2,0V3 M0,0L3,3 M0,3L3,0" transform="translate(12 9)" />
<path d="M0,1H3 M0,2H3 M1,0V3 M2,0V3 M0,0L3,3 M0,3L3,0" transform="translate(12 12)" />
<path d="M0,1H3 M0,2H3 M1,0V3 M2,0V3 M0,0L3,3 M0,3L3,0" transform="translate(12 18)" />
<path d="M0,1H3 M0,2H3 M1,0V3 M2,0V3 M0,0L3,3 M0,3L3,0" transform="translate(12 24)" />
<path d="M0,1H3 M0,2H3 M1,0V3 M2,0V3 M0,0L3,3 M0,3L3,0" transform="translate(12 33)" />
<path d="M0,1H3 M0,2H3 M1,0V3 M2,0V3 M0,0L3,3 M0,3L3,0" transform="translate(12 36)" />
<path d="M0,1H3 M0,2H3 M1,0V3 M2,0V3 M0,0L3,3 M0,3L3,0" transform="translate(12 42)" />
<path d="M0,1H3 M0,2H3 M1,0V3 M2,0V3 M0,0L3,3 M0,3L3,0" transform="translate(12 48)" />
<path d="M0,1H3 M0,2H3 M1,0V3 M2,0V3 M0,0L3,3 M0,3L3,0" transform="translate(12 51)" />
<path d="M0,1H3 M0,2H3 M1,0V3 M2,0V3 M0,0L3,3 M0,3L3,0" transform="translate(12 54)" />
<path d="M0,1H3 M0,2H3 M1,0V3 M2,0V3 M0,0L3,3 M0,3L3,0" transform="translate(12 60)" />
<path d="M0,1H3 M0,2H3 M1,0V3 M2,0V3 M0,0L3,3 M0,3L3,0" transform="translate(15 0)" />
<path d="M0,1H3 M0,2H3 M1,0V3 M2,0V3 M0,0L3,3 M0,3L3,0" transform="translate(15 18)" />
<path d="M0,1H3 M0,2H3 M1,0V3 M2,0V3 M0,0L3,3 M0,3L3,0" transform="translate(15 24)" />
<path d="M0,1H3 M0,2H3 M1,0V3 M2,0V3 M0,0L3,3 M0,3L3,0" transform="translate(15 30)" />
<path d="M0,1H3 M0,2H3 M1,0V3 M2,0V3 M0,0L3,3 M0,3L3,0" transform="translate(15 36)" />
<path d="M0,1H3 M0,2H3 M1,0V3 M2,0V3 M0,0L3,3 M0,3L3,0" transform="translate(15 42)" />
<path d="M0,1H3 M0,2H3 M1,0V3 M2,0V3 M0,0L3,3 M0,3L3,0" transform="translate(15 60)" />
<path d="M0,1H3 M0,2H3 M1,0V3 M2,0V3 M0,0L3,3 M0,3L3,0" transform="translate(18 0)" />
<path d="M0,1H3 M0,2H3 M1,0V3 M2,0V3 M0,0L3,3 M0,3L3,0" transform="translate(18 3)" />
<path d="M0,1H3 M0,2H3 M1,0V3 M2,0V3 M0,0L3,3 M0,3L3,0" transform="translate(18 6)" />
<path d="M0,1H3 M0,2H3 M1,0V3 M2,0V3 M0,0L3,3 M0,3L3,0" transform="translate(18 9)" />
<path d="M0,1H3 M0,2H3 M1,0V3 M2,0V3 M0,0L3,3 M0,3L3,0" transform="translate(18 12)" />
<path d="M0,1H3 M0,2H3 M1,0V3 M2,0V3 M0,0L3,3 M0,3L3,0" transform="translate(18 15)" />
<path d="M0,1H3 M0,2H3 M1,0V3 M2,0V3 M0,0L3,3 M0,3L3,0" transform="translate(18 18)" />
<path d="M0,1H3 M0,2H3 M1,0V3 M2,0V3 M0,0L3,3 M0,3L3,0" transform="translate(18 24)" />
<path d="M0,1H3 M0,2H3 M1,0V3 M2,0V3 M0,0L3,3 M0,3L3,0" transform="translate(18 30)" />
<path d="M0,1H3 M0,2H3 M1,0V3 M2,0V3 M0,0L3,3 M0,3L3,0" transform="translate(18 36)" />
<path d="M0,1H3 M0,2H3 M1,0V3 M2,0V3 M0,0L3,3 M0,3L3,0" transform="translate(18 42)" />
<path d="M0,1H3 M0,2H3 M1,0V3 M2,0V3 M0,0L3,3 M0,3L3,0" transform="translate(18 45)" />
<path d="M0,1H3 M0,2H3 M1,0V3 M2,0V3 M0,0L3,3 M0,3L3,0" transform="translate(18 48)" />
<path d="M0,1H3 M0,2H3 M1,0V3 M2,0V3 M0,0L3,3 M0,3L3,0" transform="translate(18 51)" />
<path d="M0,1H3 M0,2H3 M1,0V3 M2,0V3 M0,0L3,3 M0,3L3,0" transform="translate(18 54)" />
<path d="M0,1H3 M0,2H3 M1,0V3 M2,0V3 M0,0L3,3 M0,3L3,0" transform="translate(18 57)" />
<path d="M0,1H3 M0,2H3 M1,0V3 M2,0V3 M0,0L3,3 M0,3L3,0" transform="translate(18 60)" />
<path d="M0,1H3 M0,2H3 M1,0V3 M2,0V3 M0,0L3,3 M0,3L3,0" transform="translate(21 24)" />
<path d="M0,1H3 M0,2H3 M1,0V3 M2,0V3 M0,0L3,3 M0,3L3,0" transform="translate(21 27)" />
<path d="M0,1H3 M0,2H3 M1,0V3 M2,0V3 M0,0L3,3 M0,3L3,0" transform="translate(21 30)" />
<path d="M0,1H3 M0,2H3 M1,0V3 M2,0V3 M0,0L3,3 M0,3L3,0" transform="translate(21 33)" />
<path d="M0,1H3 M0,2H3 M1,0V3 M2,0V3 M0,0L3,3 M0,3L3,0" transform="translate(21 36)" />
<path d="M0,1H3 M0,2H3 M1,0V3 M2,0V3 M0,0L3,3 M0,3L3,0" transform="translate(24 0)" />
<path d="M0,1H3 M0,2H3 M1,0V3 M2,0V3 M0,0L3,3 M0,3L3,0" transform="translate(24 6)" />
<path d="M0,1H3 M0,2H3 M1,0V3 M2,0V3 M0,0L3,3 M0,3L3,0" transform="translate(24 9)" />
<path d="M0,1H3 M0,2H3 M1,0V3 M2,0V3 M0,0L3,3 M0,3L3,0" transform="translate(24 12)" />
<path d="M0,1H3 M0,2H3 M1,0V3 M2,0V3 M0,0L3,3 M0,3L3,0" transform="translate(24 15)" />
<path d="M0,1H3 M0,2H3 M1,0V3 M2,0V3 M0,0L3,3 M0,3L3,0" transform="translate(24 18)" />
<path d="M0,1H3 M0,2H3 M1,0V3 M2,0V3 M0,0L3,3 M0,3L3,0" transform="translate(24 27)" />
<path d="M0,1H3 M0,2H3 M1,0V3 M2,0V3 M0,0L3,3 M0,3L3,0" transform="translate(24 30)" />
<path d="M0,1H3 M0,2H3 M1,0V3 M2,0V3 M0,0L3,3 M0,3L3,0" transform="translate(24 36)" />
<path d="M0,1H3 M0,2H3 M1,0V3 M2,0V3 M0,0L3,3 M0,3L3,0" transform="translate(24 42)" />
<path d="M0,1H3 M0,2H3 M1,0V3 M2,0V3 M0,0L3,3 M0,3L3,0" transform="translate(24 45)" />
<path d="M0,1H3 M0,2H3 M1,0V3 M2,0V3 M0,0L3,3 M0,3L3,0" transform="translate(24 48)" />
<path d="M0,1H3 M0,2H3 M1,0V3 M2,0V3 M0,0L3,3 M0,3L3,0" transform="translate(24 51)" />
<path d="M0,1H3 M0,2H3 M1,0V3 M2,0V3 M0,0L3,3 M0,3L3,0" transform="translate(24 54)" />
<path d="M0,1H3 M0,2H3 M1,0V3 M2,0V3 M0,0L3,3 M0,3L3,0" transform="translate(27 0)" />
<path d="M0,1H3 M0,2H3 M1,0V3 M2,0V3 M0,0L3,3 M0,3L3,0" transform="translate(27 6)" />
<path d="M0,1H3 M0,2H3 M1,0V3 M2,0V3 M0,0L3,3 M0,3L3,0" transform="translate(27 9)" />
<path d="M0,1H3 M0,2H3 M1,0V3 M2,0V3 M0,0L3,3 M0,3L3,0" transform="translate(27 15)" />
<path d="M0,1H3 M0,2H3 M1,0V3 M2,0V3 M0,0L3,3 M0,3L3,0" transform="translate(27 21)" />
<path d="M0,1H3 M0,2H3 M1,0V3 M2,0V3 M0,0L3,3 M0,3L3,0" transform="translate(27 24)" />
<path d="M0,1H3 M0,2H3 M1,0V3 M2,0V3 M0,0L3,3 M0,3L3,0" transform="translate(27 27)" />
<path d="M0,1H3 M0,2H3 M1,0V3 M2,0V3 M0,0L3,3 M0,3L3,0" transform="translate(27 30)" />
<path d="M0,1H3 M0,2H3 M1,0V3 M2,0V3 M0,0L3,3 M0,3L3,0" transform="translate(27 36)" />
<path d="M0,1H3 M0,2H3 M1,0V3 M2,0V3 M0,0L3,3 M0,3L3,0" transform="translate(27 45)" />
<path d="M0,1H3 M0,2H3 M1,0V3 M2,0V3 M0,0L3,3 M0,3L3,0" transform="translate(27 54)" />
<path d="M0,1H3 M0,2H3 M1,0V3 M2,0V3 M0,0L3,3 M0,3L3,0" transform="translate(27 57)" />
<path d="M0,1H3 M0,2H3 M1,0V3 M2,0V3 M0,0L3,3 M0,3L3,0" transform="translate(27 60)" />
<path d="M0,1H3 M0,2H3 M1,0V3 M2,0V3 M0,0L3,3 M0,3L3,0" transform="translate(30 3)" />
<path d="M0,1H3 M0,2H3 M1,0V3 M2,0V3 M0,0L3,3 M0,3L3,0" transform="translate(30 6)" />
<path d="M0,1H3 M0,2H3 M1,0V3 M2,0V3 M0,0L3,3 M0,3L3,0" transform="translate(30 12)" />
<path d="M0,1H3 M0,2H3 M1,0V3 M2,0V3 M0,0L3,3 M0,3L3,0" transform="translate(30 18)" />
<path d="M0,1H3 M0,2H3 M1,0V3 M2,0V3 M0,0L3,3 M0,3L3,0" transform="translate(30 21)" />
<path d="M0,1H3 M0,2H3 M1,0V3 M2,0V3 M0,0L3,3 M0,3L3,0" transform="translate(30 24)" />
<path d="M0,1H3 M0,2H3 M1,0V3 M2,0V3 M0,0L3,3 M0,3L3,0" transform="translate(30 33)" />
<path d="M0,1H3 M0,2H3 M1,0V3 M2,0V3 M0,0L3,3 M0,3L3,0" transform="translate(30 39)" />
<path d="M0,1H3 M0,2H3 M1,0V3 M2,0V3 M0,0L3,3 M0,3L3,0" transform="translate(30 48)" />
<path d="M0,1H3 M0,2H3 M1,0V3 M2,0V3 M0,0L3,3 M0,3L3,0" transform="translate(30 54)" />
<path d="M0,1H3 M0,2H3 M1,0V3 M2,0V3 M0,0L3,3 M0,3L3,0" transform="translate(33 0)" />
<path d="M0,1H3 M0,2H3 M1,0V3 M2,0V3 M0,0L3,3 M0,3L3,0" transform="translate(33 3)" />
<path d="M0,1H3 M0,2H3 M1,0V3 M2,0V3 M0,0L3,3 M0,3L3,0" transform="translate(33 9)" />
<path d="M0,1H3 M0,2H3 M1,0V3 M2,0V3 M0,0L3,3 M0,3L3,0" transform="translate(33 12)" />
<path d="M0,1H3 M0,2H3 M1,0V3 M2,0V3 M0,0L3,3 M0,3L3,0" transform="translate(33 45)" />
<path d="M0,1H3 M0,2H3 M1,0V3 M2,0V3 M0,0L3,3 M0,3L3,0" transform="translate(33 48)" />
<path d="M0,1H3 M0,2H3 M1,0V3 M2,0V3 M0,0L3,3 M0,3L3,0" transform="translate(33 54)" />
<path d="M0,1H3 M0,2H3 M1,0V3 M2,0V3 M0,0L3,3 M0,3L3,0" transform="translate(36 0)" />
<path d="M0,1H3 M0,2H3 M1,0V3 M2,0V3 M0,0L3,3 M0,3L3,0" transform="translate(36 9)" />
<path d="M0,1H3 M0,2H3 M1,0V3 M2,0V3 M0,0L3,3 M0,3L3,0" transform="translate(36 12)" />
<path d="M0,1H3 M0,2H3 M1,0V3 M2,0V3 M0,0L3,3 M0,3L3,0" transform="translate(36 15)" />
<path d="M0,1H3 M0,2H3 M1,0V3 M2,0V3 M0,0L3,3 M0,3L3,0" transform="translate(36 18)" />
<path d="M0,1H3 M0,2H3 M1,0V3 M2,0V3 M0,0L3,3 M0,3L3,0" transform="translate(36 24)" />
<path d="M0,1H3 M0,2H3 M1,0V3 M2,0V3 M0,0L3,3 M0,3L3,0" transform="translate(36 30)" />
<path d="M0,1H3 M0,2H3 M1,0V3 M2,0V3 M0,0L3,3 M0,3L3,0" transform="translate(36 33)" />
<path d="M0,1H3 M0,2H3 M1,0V3 M2,0V3 M0,0L3,3 M0,3L3,0" transform="translate(36 39)" />
<path d="M0,1H3 M0,2H3 M1,0V3 M2,0V3 M0,0L3,3 M0,3L3,0" transform="translate(36 48)" />
<path d="M0,1H3 M0,2H3 M1,0V3 M2,0V3 M0,0L3,3 M0,3L3,0" transform="translate(36 51)" />
<path d="M0,1H3 M0,2H3 M1,0V3 M2,0V3 M0,0L3,3 M0,3L3,0" transform="translate(39 24)" />
<path d="M0,1H3 M0,2H3 M1,0V3 M2,0V3 M0,0L3,3 M0,3L3,0" transform="translate(39 30)" />
<path d="M0,1H3 M0,2H3 M1,0V3 M2,0V3 M0,0L3,3 M0,3L3,0" transform="translate(39 33)" />
<path d="M0,1H3 M0,2H3 M1,0V3 M2,0V3 M0,0L3,3 M0,3L3,0" transform="translate(39 36)" />
<path d="M0,1H3 M0,2H3 M1,0V3 M2,0V3 M0,0L3,3 M0,3L3,0" transform="translate(39 39)" />
<path d="M0,1H3 M0,2H3 M1,0V3 M2,0V3 M0,0L3,3 M0,3L3,0" transform="translate(39 42)" />
<path d="M0,1H3 M0,2H3 M1,0V3 M2,0V3 M0,0L3,3 M0,3L3,0" transform="translate(39 54)" />
<path d="M0,1H3 M0,2H3 M1,0V3 M2,0V3 M0,0L3,3 M0,3L3,0" transform="translate(39 57)" />
<path d="M0,1H3 M0,2H3 M1,0V3 M2,0V3 M0,0L3,3 M0,3L3,0" transform="translate(42 0)" />
<path d="M0,1H3 M0,2H3 M1,0V3 M2,0V3 M0,0L3,3 M0,3L3,0" transform="translate(42 3)" />
<path d="M0,1H3 M0,2H3 M1,0V3 M2,0V3 M0,0L3,3 M0,3L3,0" transform="translate(42 6)" />
<path d="M0,1H3 M0,2H3 M1,0V3 M2,0V3 M0,0L3,3 M0,3L3,0" transform="translate(42 9)" />
<path d="M0,1H3 M0,2H3 M1,0V3 M2,0V3 M0,0L3,3 M0,3L3,0" transform="translate(42 12)" />
<path d="M0,1H3 M0,2H3 M1,0V3 M2,0V3 M0,0L3,3 M0,3L3,0" transform="translate(42 15)" />
<path d="M0,1H3 M0,2H3 M1,0V3 M2,0V3 M0,0L3,3 M0,3L3,0" transform="translate(42 18)" />
<path d="M0,1H3 M0,2H3 M1,0V3 M2,0V3 M0,0L3,3 M0,3L3,0" transform="translate(42 30)" />
<path d="M0,1H3 M0,2H3 M1,0V3 M2,0V3 M0,0L3,3 M0,3L3,0" transform="translate(42 36)" />
<path d="M0,1H3 M0,2H3 M1,0V3 M2,0V3 M0,0L3,3 M0,3L3,0" transform="translate(42 42)" />
<path d="M0,1H3 M0,2H3 M1,0V3 M2,0V3 M0,0L3,3 M0,3L3,0" transform="translate(42 45)" />
<path d="M0,1H3 M0,2H3 M1,0V3 M2,0V3 M0,0L3,3 M0,3L3,0" transform="translate(42 54)" />
<path d="M0,1H3 M0,2H3 M1,0V3 M2,0V3 M0,0L3,3 M0,3L3,0" transform="translate(42 57)" />
<path d="M0,1H3 M0,2H3 M1,0V3 M2,0V3 M0,0L3,3 M0,3L3,0" transform="translate(45 0)" />
<path d="M0,1H3 M0,2H3 M1,0V3 M2,0V3 M0,0L3,3 M0,3L3,0" transform="translate(45 18)" />
<path d="M0,1H3 M0,2H3 M1,0V3 M2,0V3 M0,0L3,3 M0,3L3,0" transform="translate(45 24)" />
<path d="M0,1H3 M0,2H3 M1,0V3 M2,0V3 M0,0L3,3 M0,3L3,0" transform="translate(45 33)" />
<path d="M0,1H3 M0,2H3 M1,0V3 M2,0V3 M0,0L3,3 M0,3L3,0" transform="translate(45 36)" />
<path d="M0,1H3 M0,2H3 M1,0V3 M2,0V3 M0,0L3,3 M0,3L3,0" transform="translate(45 39)" />
<path d="M0,1H3 M0,2H3 M1,0V3 M2,0V3 M0,0L3,3 M0,3L3,0" transform="translate(45 42)" />
<path d="M0,1H3 M0,2H3 M1,0V3 M2,0V3 M0,0L3,3 M0,3L3,0" transform="translate(45 54)" />
<path d="M0,1H3 M0,2H3 M1,0V3 M2,0V3 M0,0L3,3 M0,3L3,0" transform="translate(48 0)" />
<path d="M0,1H3 M0,2H3 M1,0V3 M2,0V3 M0,0L3,3 M0,3L3,0" transform="translate(48 6)" />
<path d="M0,1H3 M0,2H3 M1,0V3 M2,0V3 M0,0L3,3 M0,3L3,0" transform="translate(48 9)" />
<path d="M0,1H3 M0,2H3 M1,0V3 M2,0V3 M0,0L3,3 M0,3L3,0" transform="translate(48 12)" />
<path d="M0,1H3 M0,2H3 M1,0V3 M2,0V3 M0,0L3,3 M0,3L3,0" transform="translate(48 18)" />
<path d="M0,1H3 M0,2H3 M1,0V3 M2,0V3 M0,0L3,3 M0,3L3,0" transform="translate(48 24)" />
<path d="M0,1H3 M0,2H3 M1,0V3 M2,0V3 M0,0L3,3 M0,3L3,0" transform="translate(48 30)" />
<path d="M0,1H3 M0,2H3 M1,0V3 M2,0V3 M0,0L3,3 M0,3L3,0" transform="translate(48 36)" />
<path d="M0,1H3 M0,2H3 M1,0V3 M2,0V3 M0,0L3,3 M0,3L3,0" transform="translate(48 45)" />
<path d="M0,1H3 M0,2H3 M1,0V3 M2,0V3 M0,0L3,3 M0,3L3,0" transform="translate(48 51)" />
<path d="M0,1H3 M0,2H3 M1,0V3 M2,0V3 M0,0L3,3 M0,3L3,0" transform="translate(48 57)" />
<path d="M0,1H3 M0,2H3 M1,0V3 M2,0V3 M0,0L3,3 M0,3L3,0" transform="translate(51 0)" />
<path d="M0,1H3 M0,2H3 M1,0V3 M2,0V3 M0,0L3,3 M0,3L3,0" transform="translate(51 6)" />
<path d="M0,1H3 M0,2H3 M1,0V3 M2,0V3 M0,0L3,3 M0,3L3,0" transform="translate(51 9)" />
<path d="M0,1H3 M0,2H3 M1,0V3 M2,0V3 M0,0L3,3 M0,3L3,0" transform="translate(51 12)" />
<path d="M0,1H3 M0,2H3 M1,0V3 M2,0V3 M0,0L3,3 M0,3L3,0" transform="translate(51 18)" />
<path d="M0,1H3 M0,2H3 M1,0V3 M2,0V3 M0,0L3,3 M0,3L3,0" transform="translate(51 24)" />
<path d="M0,1H3 M0,2H3 M1,0V3 M2,0V3 M0,0L3,3 M0,3L3,0" transform="translate(51 27)" />
<path d="M0,1H3 M0,2H3 M1,0V3 M2,0V3 M0,0L3,3 M0,3L3,0" transform="translate(51 30)" />
<path d="M0,1H3 M0,2H3 M1,0V3 M2,0V3 M0,0L3,3 M0,3L3,0" transform="translate(51 36)" />
<path d="M0,1H3 M0,2H3 M1,0V3 M2,0V3 M0,0L3,3 M0,3L3,0" transform="translate(51 45)" />
<path d="M0,1H3 M0,2H3 M1,0V3 M2,0V3 M0,0L3,3 M0,3L3,0" transform="translate(54 0)" />
<path d="M0,1H3 M0,2H3 M1,0V3 M2,0V3 M0,0L3,3 M0,3L3,0" transform="translate(54 6)" />
<path d="M0,1H3 M0,2H3 M1,0V3 M2,0V3 M0,0L3,3 M0,3L3,0" transform="translate(54 9)" />
<path d="M0,1H3 M0,2H3 M1,0V3 M2,0V3 M0,0L3,3 M0,3L3,0" transform="translate(54 12)" />
<path d="M0,1H3 M0,2H3 M1,0V3 M2,0V3 M0,0L3,3 M0,3L3,0" transform="translate(54 18)" />
<path d="M0,1H3 M0,2H3 M1,0V3 M2,0V3 M0,0L3,3 M0,3L3,0" transform="translate(54 24)" />
<path d="M0,1H3 M0,2H3 M1,0V3 M2,0V3 M0,0L3,3 M0,3L3,0" transform="translate(54 33)" />
<path d="M0,1H3 M0,2H3 M1,0V3 M2,0V3 M0,0L3,3 M0,3L3,0" transform="translate(54 39)" />
<path d="M0,1H3 M0,2H3 M1,0V3 M2,0V3 M0,0L3,3 M0,3L3,0" transform="translate(54 48)" />
<path d="M0,1H3 M0,2H3 M1,0V3 M2,0V3 M0,0L3,3 M0,3L3,0" transform="translate(54 51)" />
<path d="M0,1H3 M0,2H3 M1,0V3 M2,0V3 M0,0L3,3 M0,3L3,0" transform="translate(54 54)" />
<path d="M0,1H3 M0,2H3 M1,0V3 M2,0V3 M0,0L3,3 M0,3L3,0" transform="translate(57 0)" />
<path d="M0,1H3 M0,2H3 M1,0V3 M2,0V3 M0,0L3,3 M0,3L3,0" transform="translate(57 18)" />
<path d="M0,1H3 M0,2H3 M1,0V3 M2,0V3 M0,0L3,3 M0,3L3,0" transform="translate(57 27)" />
<path d="M0,1H3 M0,2H3 M1,0V3 M2,0V3 M0,0L3,3 M0,3L3,0" transform="translate(57 30)" />
<path d="M0,1H3 M0,2H3 M1,0V3 M2,0V3 M0,0L3,3 M0,3L3,0" transform="translate(57 45)" />
<path d="M0,1H3 M0,2H3 M1,0V3 M2,0V3 M0,0L3,3 M0,3L3,0" transform="translate(57 48)" />
<path d="M0,1H3 M0,2H3 M1,0V3 M2,0V3 M0,0L3,3 M0,3L3,0" transform="translate(57 54)" />
<path d="M0,1H3 M0,2H3 M1,0V3 M2,0V3 M0,0L3,3 M0,3L3,0" transform="translate(60 0)" />
<path d="M0,1H3 M0,2H3 M1,0V3 M2,0V3 M0,0L3,3 M0,3L3,0" transform="translate(60 3)" />
<path d="M0,1H3 M0,2H3 M1,0V3 M2,0V3 M0,0L3,3 M0,3L3,0" transform="translate(60 6)" />
<path d="M0,1H3 M0,2H3 M1,0V3 M2,0V3 M0,0L3,3 M0,3L3,0" transform="translate(60 9)" />
<path d="M0,1H3 M0,2H3 M1,0V3 M2,0V3 M0,0L3,3 M0,3L3,0" transform="translate(60 12)" />
<path d="M0,1H3 M0,2H3 M1,0V3 M2,0V3 M0,0L3,3 M0,3L3,0" transform="translate(60 15)" />
<path d="M0,1H3 M0,2H3 M1,0V3 M2,0V3 M0,0L3,3 M0,3L3,0" transform="translate(60 18)" />
<path d="M0,1H3 M0,2H3 M1,0V3 M2,0V3 M0,0L3,3 M0,3L3,0" transform="translate(60 24)" />
<path d="M0,1H3 M0,2H3 M1,0V3 M2,0V3 M0,0L3,3 M0,3L3,0" transform="translate(60 27)" />
<path d="M0,1H3 M0,2H3 M1,0V3 M2,0V3 M0,0L3,3 M0,3L3,0" transform="translate(60 33)" />
<path d="M0,1H3 M0,2H3 M1,0V3 M2,0V3 M0,0L3,3 M0,3L3,0" transform="translate(60 39)" />
<path d="M0,1H3 M0,2H3 M1,0V3 M2,0V3 M0,0L3,3 M0,3L3,0" transform="translate(60 48)" />
<path d="M0,1H3 M0,2H3 M1,0V3 M2,0V3 M0,0L3,3 M0,3L3,0" transform="translate(60 54)" />
<path d="M0,1H3 M0,2H3 M1,0V3 M2,0V3 M0,0L3,3 M0,3L3,0" transform="translate(60 57)" />
</svg>
