<svg version="1.1" xmlns="http://www.w3.org/2000/svg"
	width="350" height="350"
	viewBox="-5 -5 35 35"
	fill="none"
	stroke="black"
	stroke-width="0.125"
>
	<path d="M0,0 L1,0 L0,1 L1,1 Z" transform="translate(0 0)" />
<path d="M0,0 L1,0 L0,1 L1,1 Z" transform="translate(0 1)" />
<path d="M0,0 L1,0 L0,1 L1,1 Z" transform="translate(0 2)" />
<path d="M0,0 L1,0 L0,1 L1,1 Z" transform="translate(0 3)" />
<path d="M0,0 L1,0 L0,1 L1,1 Z" transform="translate(0 4)" />
<path d="M0,0 L1,0 L0,1 L1,1 Z" transform="translate(0 5)" />
<path d="M0,0 L1,0 L0,1 L1,1 Z" transform="translate(0 6)" />
<path d="M0,0 L1,0 L0,1 L1,1 Z" transform="translate(0 8)" />
<path d="M0,0 L1,0 L0,1 L1,1 Z" transform="translate(0 10)" />
<path d="M0,0 L1,0 L0,1 L1,1 Z" transform="translate(0 12)" />
<path d="M0,0 L1,0 L0,1 L1,1 Z" transform="translate(0 14)" />
<path d="M0,0 L1,0 L0,1 L1,1 Z" transform="translate(0 15)" />
<path d="M0,0 L1,0 L0,1 L1,1 Z" transform="translate(0 16)" />
<path d="M0,0 L1,0 L0,1 L1,1 Z" transform="translate(0 17)" />
<path d="M0,0 L1,0 L0,1 L1,1 Z" transform="translate(0 18)" />
<path d="M0,0 L1,0 L0,1 L1,1 Z" transform="translate(0 19)" />
<path d="M0,0 L1,0 L0,1 L1,1 Z" transform="translate(0 20)" />
<path d="M0,0 L1,0 L0,1 L1,1 Z" transform="translate(1 0)" />
<path d="M0,0 L1,0 L0,1 L1,1 Z" transform="translate(1 6)" />
<path d="M0,0 L1,0 L0,1 L1,1 Z" transform="translate(1 8)" />
<path d="M0,0 L1,0 L0,1 L1,1 Z" transform="translate(1 11)" />
<path d="M0,0 L1,0 L0,1 L1,1 Z" transform="translate(1 14)" />
<path d="M0,0 L1,0 L0,1 L1,1 Z" transform="translate(1 20)" />
<path d="M0,0 L1,0 L0,1 L1,1 Z" transform="translate(2 0)" />
<path d="M0,0 L1,0 L0,1 L1,1 Z" transform="translate(2 2)" />
<path d="M0,0 L1,0 L0,1 L1,1 Z" transform="translate(2 3)" />
<path d="M0,0 L1,0 L0,1 L1,1 Z" transform="translate(2 4)" />
<path d="M0,0 L1,0 L0,1 L1,1 Z" transform="translate(2 6)" />
<path d="M0,0 L1,0 L0,1 L1,1 Z" transform="translate(2 10)" />
<path d="M0,0 L1,0 L0,1 L1,1 Z" transform="translate(2 11)" />
<path d="M0,0 L1,0 L0,1 L1,1 Z" transform="translate(2 12)" />
<path d="M0,0 L1,0 L0,1 L1,1 Z" transform="translate(2 14)" />
<path d="M0,0 L1,0 L0,1 L1,1 Z" transform="translate(2 16)" />
<path d="M0,0 L1,0 L0,1 L1,1 Z" transform="translate(2 17)" />
<path d="M0,0 L1,0 L0,1 L1,1 Z" transform="translate(2 18)" />
<path d="M0,0 L1,0 L0,1 L1,1 Z" transform="translate(2 20)" />
<path d="M0,0 L1,0 L0,1 L1,1 Z" transform="translate(3 0)" />
<path d="M0,0 L1,0 L0,1 L1,1 Z" transform="translate(3 2)" />
<path d="M0,0 L1,0 L0,1 L1,1 Z" transform="translate(3 3)" />
<path d="M0,0 L1,0 L0,1 L1,1 Z" transform="translate(3 4)" />
<path d="M0,0 L1,0 L0,1 L1,1 Z" transform="translate(3 6)" />
<path d="M0,0 L1,0 L0,1 L1,1 Z" transform="translate(3 8)" />
<path d="M0,0 L1,0 L0,1 L1,1 Z" transform="translate(3 9)" />
<path d="M0,0 L1,0 L0,1 L1,1 Z" transform="translate(3 11)" />
<path d="M0,0 L1,0 L0,1 L1,1 Z" transform="translate(3 14)" />
<path d="M0,0 L1,0 L0,1 L1,1 Z" transform="translate(3 16)" />
<path d="M0,0 L1,0 L0,1 L1,1 Z" transform="translate(3 17)" />
<path d="M0,0 L1,0 L0,1 L1,1 Z" transform="translate(3 18)" />
<path d="M0,0 L1,0 L0,1 L1,1 Z" transform="translate(3 20)" />
<path d="M0,0 L1,0 L0,1 L1,1 Z" transform="translate(4 0)" />
<path d="M0,0 L1,0 L0,1 L1,1 Z" transform="translate(4 2)" />
<path d="M0,0 L1,0 L0,1 L1,1 Z" transform="translate(4 3)" />
<path d="M0,0 L1,0 L0,1 L1,1 Z" transform="translate(4 4)" />
<path d="M0,0 L1,0 L0,1 L1,1 Z" transform="translate(4 6)" />
<path d="M0,0 L1,0 L0,1 L1,1 Z" transform="translate(4 14)" />
<path d="M0,0 L1,0 L0,1 L1,1 Z" transform="translate(4 16)" />
<path d="M0,0 L1,0 L0,1 L1,1 Z" transform="translate(4 17)" />
<path d="M0,0 L1,0 L0,1 L1,1 Z" transform="translate(4 18)" />
<path d="M0,0 L1,0 L0,1 L1,1 Z" transform="translate(4 20)" />
<path d="M0,0 L1,0 L0,1 L1,1 Z" transform="translate(5 0)" />
<path d="M0,0 L1,0 L0,1 L1,1 Z" transform="translate(5 6)" />
<path d="M0,0 L1,0 L0,1 L1,1 Z" transform="translate(5 9)" />
<path d="M0,0 L1,0 L0,1 L1,1 Z" transform="translate(5 14)" />
<path d="M0,0 L1,0 L0,1 L1,1 Z" transform="translate(5 20)" />
<path d="M0,0 L1,0 L0,1 L1,1 Z" transform="translate(6 0)" />
<path d="M0,0 L1,0 L0,1 L1,1 Z" transform="translate(6 1)" />
<path d="M0,0 L1,0 L0,1 L1,1 Z" transform="translate(6 2)" />
<path d="M0,0 L1,0 L0,1 L1,1 Z" transform="translate(6 3)" />
<path d="M0,0 L1,0 L0,1 L1,1 Z" transform="translate(6 4)" />
<path d="M0,0 L1,0 L0,1 L1,1 Z" transform="translate(6 5)" />
<path d="M0,0 L1,0 L0,1 L1,1 Z" transform="translate(6 6)" />
<path d="M0,0 L1,0 L0,1 L1,1 Z" transform="translate(6 8)" />
<path d="M0,0 L1,0 L0,1 L1,1 Z" transform="translate(6 10)" />
<path d="M0,0 L1,0 L0,1 L1,1 Z" transform="translate(6 12)" />
<path d="M0,0 L1,0 L0,1 L1,1 Z" transform="translate(6 14)" />
<path d="M0,0 L1,0 L0,1 L1,1 Z" transform="translate(6 15)" />
<path d="M0,0 L1,0 L0,1 L1,1 Z" transform="translate(6 16)" />
<path d="M0,0 L1,0 L0,1 L1,1 Z" transform="translate(6 17)" />
<path d="M0,0 L1,0 L0,1 L1,1 Z" transform="translate(6 18)" />
<path d="M0,0 L1,0 L0,1 L1,1 Z" transform="translate(6 19)" />
<path d="M0,0 L1,0 L0,1 L1,1 Z" transform="translate(6 20)" />
<path d="M0,0 L1,0 L0,1 L1,1 Z" transform="translate(7 8)" />
<path d="M0,0 L1,0 L0,1 L1,1 Z" transform="translate(7 9)" />
<path d="M0,0 L1,0 L0,1 L1,1 Z" transform="translate(7 10)" />
<path d="M0,0 L1,0 L0,1 L1,1 Z" transform="translate(8 0)" />
<path d="M0,0 L1,0 L0,1 L1,1 Z" transform="translate(8 2)" />
<path d="M0,0 L1,0 L0,1 L1,1 Z" transform="translate(8 3)" />
<path d="M0,0 L1,0 L0,1 L1,1 Z" transform="translate(8 5)" />
<path d="M0,0 L1,0 L0,1 L1,1 Z" transform="translate(8 6)" />
<path d="M0,0 L1,0 L0,1 L1,1 Z" transform="translate(8 7)" />
<path d="M0,0 L1,0 L0,1 L1,1 Z" transform="translate(8 9)" />
<path d="M0,0 L1,0 L0,1 L1,1 Z" transform="translate(8 10)" />
<path d="M0,0 L1,0 L0,1 L1,1 Z" transform="translate(8 14)" />
<path d="M0,0 L1,0 L0,1 L1,1 Z" transform="translate(8 17)" />
<path d="M0,0 L1,0 L0,1 L1,1 Z" transform="translate(8 19)" />
<path d="M0,0 L1,0 L0,1 L1,1 Z" transform="translate(8 20)" />
<path d="M0,0 L1,0 L0,1 L1,1 Z" transform="translate(9 2)" />
<path d="M0,0 L1,0 L0,1 L1,1 Z" transform="translate(9 3)" />
<path d="M0,0 L1,0 L0,1 L1,1 Z" transform="translate(9 8)" />
<path d="M0,0 L1,0 L0,1 L1,1 Z" transform="translate(9 9)" />
<path d="M0,0 L1,0 L0,1 L1,1 Z" transform="translate(9 12)" />
<path d="M0,0 L1,0 L0,1 L1,1 Z" transform="translate(9 15)" />
<path d="M0,0 L1,0 L0,1 L1,1 Z" transform="translate(9 18)" />
<path d="M0,0 L1,0 L0,1 L1,1 Z" transform="translate(9 19)" />
<path d="M0,0 L1,0 L0,1 L1,1 Z" transform="translate(9 20)" />
<path d="M0,0 L1,0 L0,1 L1,1 Z" transform="translate(10 0)" />
<path d="M0,0 L1,0 L0,1 L1,1 Z" transform="translate(10 2)" />
<path d="M0,0 L1,0 L0,1 L1,1 Z" transform="translate(10 3)" />
<path d="M0,0 L1,0 L0,1 L1,1 Z" transform="translate(10 5)" />
<path d="M0,0 L1,0 L0,1 L1,1 Z" transform="translate(10 6)" />
<path d="M0,0 L1,0 L0,1 L1,1 Z" transform="translate(10 7)" />
<path d="M0,0 L1,0 L0,1 L1,1 Z" transform="translate(10 10)" />
<path d="M0,0 L1,0 L0,1 L1,1 Z" transform="translate(10 12)" />
<path d="M0,0 L1,0 L0,1 L1,1 Z" transform="translate(10 13)" />
<path d="M0,0 L1,0 L0,1 L1,1 Z" transform="translate(10 14)" />
<path d="M0,0 L1,0 L0,1 L1,1 Z" transform="translate(10 15)" />
<path d="M0,0 L1,0 L0,1 L1,1 Z" transform="translate(10 16)" />
<path d="M0,0 L1,0 L0,1 L1,1 Z" transform="translate(10 17)" />
<path d="M0,0 L1,0 L0,1 L1,1 Z" transform="translate(10 20)" />
<path d="M0,0 L1,0 L0,1 L1,1 Z" transform="translate(11 1)" />
<path d="M0,0 L1,0 L0,1 L1,1 Z" transform="translate(11 2)" />
<path d="M0,0 L1,0 L0,1 L1,1 Z" transform="translate(11 4)" />
<path d="M0,0 L1,0 L0,1 L1,1 Z" transform="translate(11 5)" />
<path d="M0,0 L1,0 L0,1 L1,1 Z" transform="translate(11 7)" />
<path d="M0,0 L1,0 L0,1 L1,1 Z" transform="translate(11 10)" />
<path d="M0,0 L1,0 L0,1 L1,1 Z" transform="translate(11 12)" />
<path d="M0,0 L1,0 L0,1 L1,1 Z" transform="translate(11 13)" />
<path d="M0,0 L1,0 L0,1 L1,1 Z" transform="translate(11 19)" />
<path d="M0,0 L1,0 L0,1 L1,1 Z" transform="translate(12 0)" />
<path d="M0,0 L1,0 L0,1 L1,1 Z" transform="translate(12 2)" />
<path d="M0,0 L1,0 L0,1 L1,1 Z" transform="translate(12 3)" />
<path d="M0,0 L1,0 L0,1 L1,1 Z" transform="translate(12 4)" />
<path d="M0,0 L1,0 L0,1 L1,1 Z" transform="translate(12 6)" />
<path d="M0,0 L1,0 L0,1 L1,1 Z" transform="translate(12 7)" />
<path d="M0,0 L1,0 L0,1 L1,1 Z" transform="translate(12 8)" />
<path d="M0,0 L1,0 L0,1 L1,1 Z" transform="translate(12 10)" />
<path d="M0,0 L1,0 L0,1 L1,1 Z" transform="translate(12 11)" />
<path d="M0,0 L1,0 L0,1 L1,1 Z" transform="translate(12 13)" />
<path d="M0,0 L1,0 L0,1 L1,1 Z" transform="translate(12 16)" />
<path d="M0,0 L1,0 L0,1 L1,1 Z" transform="translate(12 17)" />
<path d="M0,0 L1,0 L0,1 L1,1 Z" transform="translate(13 8)" />
<path d="M0,0 L1,0 L0,1 L1,1 Z" transform="translate(13 9)" />
<path d="M0,0 L1,0 L0,1 L1,1 Z" transform="translate(13 10)" />
<path d="M0,0 L1,0 L0,1 L1,1 Z" transform="translate(13 13)" />
<path d="M0,0 L1,0 L0,1 L1,1 Z" transform="translate(13 15)" />
<path d="M0,0 L1,0 L0,1 L1,1 Z" transform="translate(13 17)" />
<path d="M0,0 L1,0 L0,1 L1,1 Z" transform="translate(13 19)" />
<path d="M0,0 L1,0 L0,1 L1,1 Z" transform="translate(13 20)" />
<path d="M0,0 L1,0 L0,1 L1,1 Z" transform="translate(14 0)" />
<path d="M0,0 L1,0 L0,1 L1,1 Z" transform="translate(14 1)" />
<path d="M0,0 L1,0 L0,1 L1,1 Z" transform="translate(14 2)" />
<path d="M0,0 L1,0 L0,1 L1,1 Z" transform="translate(14 3)" />
<path d="M0,0 L1,0 L0,1 L1,1 Z" transform="translate(14 4)" />
<path d="M0,0 L1,0 L0,1 L1,1 Z" transform="translate(14 5)" />
<path d="M0,0 L1,0 L0,1 L1,1 Z" transform="translate(14 6)" />
<path d="M0,0 L1,0 L0,1 L1,1 Z" transform="translate(14 8)" />
<path d="M0,0 L1,0 L0,1 L1,1 Z" transform="translate(14 9)" />
<path d="M0,0 L1,0 L0,1 L1,1 Z" transform="translate(14 13)" />
<path d="M0,0 L1,0 L0,1 L1,1 Z" transform="translate(14 14)" />
<path d="M0,0 L1,0 L0,1 L1,1 Z" transform="translate(14 16)" />
<path d="M0,0 L1,0 L0,1 L1,1 Z" transform="translate(15 0)" />
<path d="M0,0 L1,0 L0,1 L1,1 Z" transform="translate(15 6)" />
<path d="M0,0 L1,0 L0,1 L1,1 Z" transform="translate(15 8)" />
<path d="M0,0 L1,0 L0,1 L1,1 Z" transform="translate(15 10)" />
<path d="M0,0 L1,0 L0,1 L1,1 Z" transform="translate(15 11)" />
<path d="M0,0 L1,0 L0,1 L1,1 Z" transform="translate(15 12)" />
<path d="M0,0 L1,0 L0,1 L1,1 Z" transform="translate(15 13)" />
<path d="M0,0 L1,0 L0,1 L1,1 Z" transform="translate(15 14)" />
<path d="M0,0 L1,0 L0,1 L1,1 Z" transform="translate(15 18)" />
<path d="M0,0 L1,0 L0,1 L1,1 Z" transform="translate(16 0)" />
<path d="M0,0 L1,0 L0,1 L1,1 Z" transform="translate(16 2)" />
<path d="M0,0 L1,0 L0,1 L1,1 Z" transform="translate(16 3)" />
<path d="M0,0 L1,0 L0,1 L1,1 Z" transform="translate(16 4)" />
<path d="M0,0 L1,0 L0,1 L1,1 Z" transform="translate(16 6)" />
<path d="M0,0 L1,0 L0,1 L1,1 Z" transform="translate(16 9)" />
<path d="M0,0 L1,0 L0,1 L1,1 Z" transform="translate(16 11)" />
<path d="M0,0 L1,0 L0,1 L1,1 Z" transform="translate(16 14)" />
<path d="M0,0 L1,0 L0,1 L1,1 Z" transform="translate(16 18)" />
<path d="M0,0 L1,0 L0,1 L1,1 Z" transform="translate(16 19)" />
<path d="M0,0 L1,0 L0,1 L1,1 Z" transform="translate(16 20)" />
<path d="M0,0 L1,0 L0,1 L1,1 Z" transform="translate(17 0)" />
<path d="M0,0 L1,0 L0,1 L1,1 Z" transform="translate(17 2)" />
<path d="M0,0 L1,0 L0,1 L1,1 Z" transform="translate(17 3)" />
<path d="M0,0 L1,0 L0,1 L1,1 Z" transform="translate(17 4)" />
<path d="M0,0 L1,0 L0,1 L1,1 Z" transform="translate(17 6)" />
<path d="M0,0 L1,0 L0,1 L1,1 Z" transform="translate(17 8)" />
<path d="M0,0 L1,0 L0,1 L1,1 Z" transform="translate(17 13)" />
<path d="M0,0 L1,0 L0,1 L1,1 Z" transform="translate(17 16)" />
<path d="M0,0 L1,0 L0,1 L1,1 Z" transform="translate(17 17)" />
<path d="M0,0 L1,0 L0,1 L1,1 Z" transform="translate(17 19)" />
<path d="M0,0 L1,0 L0,1 L1,1 Z" transform="translate(18 0)" />
<path d="M0,0 L1,0 L0,1 L1,1 Z" transform="translate(18 2)" />
<path d="M0,0 L1,0 L0,1 L1,1 Z" transform="translate(18 3)" />
<path d="M0,0 L1,0 L0,1 L1,1 Z" transform="translate(18 4)" />
<path d="M0,0 L1,0 L0,1 L1,1 Z" transform="translate(18 6)" />
<path d="M0,0 L1,0 L0,1 L1,1 Z" transform="translate(18 8)" />
<path d="M0,0 L1,0 L0,1 L1,1 Z" transform="translate(18 11)" />
<path d="M0,0 L1,0 L0,1 L1,1 Z" transform="translate(18 13)" />
<path d="M0,0 L1,0 L0,1 L1,1 Z" transform="translate(18 16)" />
<path d="M0,0 L1,0 L0,1 L1,1 Z" transform="translate(18 17)" />
<path d="M0,0 L1,0 L0,1 L1,1 Z" transform="translate(19 0)" />
<path d="M0,0 L1,0 L0,1 L1,1 Z" transform="translate(19 6)" />
<path d="M0,0 L1,0 L0,1 L1,1 Z" transform="translate(19 9)" />
<path d="M0,0 L1,0 L0,1 L1,1 Z" transform="translate(19 11)" />
<path d="M0,0 L1,0 L0,1 L1,1 Z" transform="translate(19 12)" />
<path d="M0,0 L1,0 L0,1 L1,1 Z" transform="translate(19 14)" />
<path d="M0,0 L1,0 L0,1 L1,1 Z" transform="translate(19 16)" />
<path d="M0,0 L1,0 L0,1 L1,1 Z" transform="translate(19 17)" />
<path d="M0,0 L1,0 L0,1 L1,1 Z" transform="translate(19 20)" />
<path d="M0,0 L1,0 L0,1 L1,1 Z" transform="translate(20 0)" />
<path d="M0,0 L1,0 L0,1 L1,1 Z" transform="translate(20 1)" />
<path d="M0,0 L1,0 L0,1 L1,1 Z" transform="translate(20 2)" />
<path d="M0,0 L1,0 L0,1 L1,1 Z" transform="translate(20 3)" />
<path d="M0,0 L1,0 L0,1 L1,1 Z" transform="translate(20 4)" />
<path d="M0,0 L1,0 L0,1 L1,1 Z" transform="translate(20 5)" />
<path d="M0,0 L1,0 L0,1 L1,1 Z" transform="translate(20 6)" />
<path d="M0,0 L1,0 L0,1 L1,1 Z" transform="translate(20 8)" />
<path d="M0,0 L1,0 L0,1 L1,1 Z" transform="translate(20 11)" />
<path d="M0,0 L1,0 L0,1 L1,1 Z" transform="translate(20 12)" />
<path d="M0,0 L1,0 L0,1 L1,1 Z" transform="translate(20 15)" />
</svg>