<svg version="1.1" xmlns="http://www.w3.org/2000/svg"
	width="700" height="700"
	viewBox="-10 -10 70 70"
	fill="none"
	stroke="black"
	stroke-width="0.2"
	stroke-linecap="round"
>
	<path d="M0,0 A1,1 0,0,0 2,0 A1,1 0,0,0 2,2 A1,1 0,0,0 0,2 A1,1 0,0,0 0,0" transform="translate(0 0)" />
<path d="M0,0 A1,1 0,0,0 2,0 A1,1 0,0,0 2,2 A1,1 0,0,0 0,2 A1,1 0,0,0 0,0" transform="translate(0 2)" />
<path d="M0,0 A1,1 0,0,0 2,0 A1,1 0,0,0 2,2 A1,1 0,0,0 0,2 A1,1 0,0,0 0,0" transform="translate(0 4)" />
<path d="M0,0 A1,1 0,0,0 2,0 A1,1 0,0,0 2,2 A1,1 0,0,0 0,2 A1,1 0,0,0 0,0" transform="translate(0 6)" />
<path d="M0,0 A1,1 0,0,0 2,0 A1,1 0,0,0 2,2 A1,1 0,0,0 0,2 A1,1 0,0,0 0,0" transform="translate(0 8)" />
<path d="M0,0 A1,1 0,0,0 2,0 A1,1 0,0,0 2,2 A1,1 0,0,0 0,2 A1,1 0,0,0 0,0" transform="translate(0 10)" />
<path d="M0,0 A1,1 0,0,0 2,0 A1,1 0,0,0 2,2 A1,1 0,0,0 0,2 A1,1 0,0,0 0,0" transform="translate(0 12)" />
<path d="M0,0 A1,1 0,0,0 2,0 A1,1 0,0,0 2,2 A1,1 0,0,0 0,2 A1,1 0,0,0 0,0" transform="translate(0 24)" />
<path d="M0,0 A1,1 0,0,0 2,0 A1,1 0,0,0 2,2 A1,1 0,0,0 0,2 A1,1 0,0,0 0,0" transform="translate(0 28)" />
<path d="M0,0 A1,1 0,0,0 2,0 A1,1 0,0,0 2,2 A1,1 0,0,0 0,2 A1,1 0,0,0 0,0" transform="translate(0 30)" />
<path d="M0,0 A1,1 0,0,0 2,0 A1,1 0,0,0 2,2 A1,1 0,0,0 0,2 A1,1 0,0,0 0,0" transform="translate(0 32)" />
<path d="M0,0 A1,1 0,0,0 2,0 A1,1 0,0,0 2,2 A1,1 0,0,0 0,2 A1,1 0,0,0 0,0" transform="translate(0 34)" />
<path d="M0,0 A1,1 0,0,0 2,0 A1,1 0,0,0 2,2 A1,1 0,0,0 0,2 A1,1 0,0,0 0,0" transform="translate(0 36)" />
<path d="M0,0 A1,1 0,0,0 2,0 A1,1 0,0,0 2,2 A1,1 0,0,0 0,2 A1,1 0,0,0 0,0" transform="translate(0 38)" />
<path d="M0,0 A1,1 0,0,0 2,0 A1,1 0,0,0 2,2 A1,1 0,0,0 0,2 A1,1 0,0,0 0,0" transform="translate(0 40)" />
<path d="M0,0 A1,1 0,0,0 2,0 A1,1 0,0,0 2,2 A1,1 0,0,0 0,2 A1,1 0,0,0 0,0" transform="translate(2 0)" />
<path d="M0,0 A1,1 0,0,0 2,0 A1,1 0,0,0 2,2 A1,1 0,0,0 0,2 A1,1 0,0,0 0,0" transform="translate(2 12)" />
<path d="M0,0 A1,1 0,0,0 2,0 A1,1 0,0,0 2,2 A1,1 0,0,0 0,2 A1,1 0,0,0 0,0" transform="translate(2 18)" />
<path d="M0,0 A1,1 0,0,0 2,0 A1,1 0,0,0 2,2 A1,1 0,0,0 0,2 A1,1 0,0,0 0,0" transform="translate(2 20)" />
<path d="M0,0 A1,1 0,0,0 2,0 A1,1 0,0,0 2,2 A1,1 0,0,0 0,2 A1,1 0,0,0 0,0" transform="translate(2 24)" />
<path d="M0,0 A1,1 0,0,0 2,0 A1,1 0,0,0 2,2 A1,1 0,0,0 0,2 A1,1 0,0,0 0,0" transform="translate(2 28)" />
<path d="M0,0 A1,1 0,0,0 2,0 A1,1 0,0,0 2,2 A1,1 0,0,0 0,2 A1,1 0,0,0 0,0" transform="translate(2 40)" />
<path d="M0,0 A1,1 0,0,0 2,0 A1,1 0,0,0 2,2 A1,1 0,0,0 0,2 A1,1 0,0,0 0,0" transform="translate(4 0)" />
<path d="M0,0 A1,1 0,0,0 2,0 A1,1 0,0,0 2,2 A1,1 0,0,0 0,2 A1,1 0,0,0 0,0" transform="translate(4 4)" />
<path d="M0,0 A1,1 0,0,0 2,0 A1,1 0,0,0 2,2 A1,1 0,0,0 0,2 A1,1 0,0,0 0,0" transform="translate(4 6)" />
<path d="M0,0 A1,1 0,0,0 2,0 A1,1 0,0,0 2,2 A1,1 0,0,0 0,2 A1,1 0,0,0 0,0" transform="translate(4 8)" />
<path d="M0,0 A1,1 0,0,0 2,0 A1,1 0,0,0 2,2 A1,1 0,0,0 0,2 A1,1 0,0,0 0,0" transform="translate(4 12)" />
<path d="M0,0 A1,1 0,0,0 2,0 A1,1 0,0,0 2,2 A1,1 0,0,0 0,2 A1,1 0,0,0 0,0" transform="translate(4 16)" />
<path d="M0,0 A1,1 0,0,0 2,0 A1,1 0,0,0 2,2 A1,1 0,0,0 0,2 A1,1 0,0,0 0,0" transform="translate(4 18)" />
<path d="M0,0 A1,1 0,0,0 2,0 A1,1 0,0,0 2,2 A1,1 0,0,0 0,2 A1,1 0,0,0 0,0" transform="translate(4 20)" />
<path d="M0,0 A1,1 0,0,0 2,0 A1,1 0,0,0 2,2 A1,1 0,0,0 0,2 A1,1 0,0,0 0,0" transform="translate(4 22)" />
<path d="M0,0 A1,1 0,0,0 2,0 A1,1 0,0,0 2,2 A1,1 0,0,0 0,2 A1,1 0,0,0 0,0" transform="translate(4 24)" />
<path d="M0,0 A1,1 0,0,0 2,0 A1,1 0,0,0 2,2 A1,1 0,0,0 0,2 A1,1 0,0,0 0,0" transform="translate(4 28)" />
<path d="M0,0 A1,1 0,0,0 2,0 A1,1 0,0,0 2,2 A1,1 0,0,0 0,2 A1,1 0,0,0 0,0" transform="translate(4 32)" />
<path d="M0,0 A1,1 0,0,0 2,0 A1,1 0,0,0 2,2 A1,1 0,0,0 0,2 A1,1 0,0,0 0,0" transform="translate(4 34)" />
<path d="M0,0 A1,1 0,0,0 2,0 A1,1 0,0,0 2,2 A1,1 0,0,0 0,2 A1,1 0,0,0 0,0" transform="translate(4 36)" />
<path d="M0,0 A1,1 0,0,0 2,0 A1,1 0,0,0 2,2 A1,1 0,0,0 0,2 A1,1 0,0,0 0,0" transform="translate(4 40)" />
<path d="M0,0 A1,1 0,0,0 2,0 A1,1 0,0,0 2,2 A1,1 0,0,0 0,2 A1,1 0,0,0 0,0" transform="translate(6 0)" />
<path d="M0,0 A1,1 0,0,0 2,0 A1,1 0,0,0 2,2 A1,1 0,0,0 0,2 A1,1 0,0,0 0,0" transform="translate(6 4)" />
<path d="M0,0 A1,1 0,0,0 2,0 A1,1 0,0,0 2,2 A1,1 0,0,0 0,2 A1,1 0,0,0 0,0" transform="translate(6 6)" />
<path d="M0,0 A1,1 0,0,0 2,0 A1,1 0,0,0 2,2 A1,1 0,0,0 0,2 A1,1 0,0,0 0,0" transform="translate(6 8)" />
<path d="M0,0 A1,1 0,0,0 2,0 A1,1 0,0,0 2,2 A1,1 0,0,0 0,2 A1,1 0,0,0 0,0" transform="translate(6 12)" />
<path d="M0,0 A1,1 0,0,0 2,0 A1,1 0,0,0 2,2 A1,1 0,0,0 0,2 A1,1 0,0,0 0,0" transform="translate(6 16)" />
<path d="M0,0 A1,1 0,0,0 2,0 A1,1 0,0,0 2,2 A1,1 0,0,0 0,2 A1,1 0,0,0 0,0" transform="translate(6 24)" />
<path d="M0,0 A1,1 0,0,0 2,0 A1,1 0,0,0 2,2 A1,1 0,0,0 0,2 A1,1 0,0,0 0,0" transform="translate(6 28)" />
<path d="M0,0 A1,1 0,0,0 2,0 A1,1 0,0,0 2,2 A1,1 0,0,0 0,2 A1,1 0,0,0 0,0" transform="translate(6 32)" />
<path d="M0,0 A1,1 0,0,0 2,0 A1,1 0,0,0 2,2 A1,1 0,0,0 0,2 A1,1 0,0,0 0,0" transform="translate(6 34)" />
<path d="M0,0 A1,1 0,0,0 2,0 A1,1 0,0,0 2,2 A1,1 0,0,0 0,2 A1,1 0,0,0 0,0" transform="translate(6 36)" />
<path d="M0,0 A1,1 0,0,0 2,0 A1,1 0,0,0 2,2 A1,1 0,0,0 0,2 A1,1 0,0,0 0,0" transform="translate(6 40)" />
<path d="M0,0 A1,1 0,0,0 2,0 A1,1 0,0,0 2,2 A1,1 0,0,0 0,2 A1,1 0,0,0 0,0" transform="translate(8 0)" />
<path d="M0,0 A1,1 0,0,0 2,0 A1,1 0,0,0 2,2 A1,1 0,0,0 0,2 A1,1 0,0,0 0,0" transform="translate(8 4)" />
<path d="M0,0 A1,1 0,0,0 2,0 A1,1 0,0,0 2,2 A1,1 0,0,0 0,2 A1,1 0,0,0 0,0" transform="translate(8 6)" />
<path d="M0,0 A1,1 0,0,0 2,0 A1,1 0,0,0 2,2 A1,1 0,0,0 0,2 A1,1 0,0,0 0,0" transform="translate(8 8)" />
<path d="M0,0 A1,1 0,0,0 2,0 A1,1 0,0,0 2,2 A1,1 0,0,0 0,2 A1,1 0,0,0 0,0" transform="translate(8 12)" />
<path d="M0,0 A1,1 0,0,0 2,0 A1,1 0,0,0 2,2 A1,1 0,0,0 0,2 A1,1 0,0,0 0,0" transform="translate(8 16)" />
<path d="M0,0 A1,1 0,0,0 2,0 A1,1 0,0,0 2,2 A1,1 0,0,0 0,2 A1,1 0,0,0 0,0" transform="translate(8 18)" />
<path d="M0,0 A1,1 0,0,0 2,0 A1,1 0,0,0 2,2 A1,1 0,0,0 0,2 A1,1 0,0,0 0,0" transform="translate(8 22)" />
<path d="M0,0 A1,1 0,0,0 2,0 A1,1 0,0,0 2,2 A1,1 0,0,0 0,2 A1,1 0,0,0 0,0" transform="translate(8 24)" />
<path d="M0,0 A1,1 0,0,0 2,0 A1,1 0,0,0 2,2 A1,1 0,0,0 0,2 A1,1 0,0,0 0,0" transform="translate(8 28)" />
<path d="M0,0 A1,1 0,0,0 2,0 A1,1 0,0,0 2,2 A1,1 0,0,0 0,2 A1,1 0,0,0 0,0" transform="translate(8 32)" />
<path d="M0,0 A1,1 0,0,0 2,0 A1,1 0,0,0 2,2 A1,1 0,0,0 0,2 A1,1 0,0,0 0,0" transform="translate(8 34)" />
<path d="M0,0 A1,1 0,0,0 2,0 A1,1 0,0,0 2,2 A1,1 0,0,0 0,2 A1,1 0,0,0 0,0" transform="translate(8 36)" />
<path d="M0,0 A1,1 0,0,0 2,0 A1,1 0,0,0 2,2 A1,1 0,0,0 0,2 A1,1 0,0,0 0,0" transform="translate(8 40)" />
<path d="M0,0 A1,1 0,0,0 2,0 A1,1 0,0,0 2,2 A1,1 0,0,0 0,2 A1,1 0,0,0 0,0" transform="translate(10 0)" />
<path d="M0,0 A1,1 0,0,0 2,0 A1,1 0,0,0 2,2 A1,1 0,0,0 0,2 A1,1 0,0,0 0,0" transform="translate(10 12)" />
<path d="M0,0 A1,1 0,0,0 2,0 A1,1 0,0,0 2,2 A1,1 0,0,0 0,2 A1,1 0,0,0 0,0" transform="translate(10 16)" />
<path d="M0,0 A1,1 0,0,0 2,0 A1,1 0,0,0 2,2 A1,1 0,0,0 0,2 A1,1 0,0,0 0,0" transform="translate(10 24)" />
<path d="M0,0 A1,1 0,0,0 2,0 A1,1 0,0,0 2,2 A1,1 0,0,0 0,2 A1,1 0,0,0 0,0" transform="translate(10 28)" />
<path d="M0,0 A1,1 0,0,0 2,0 A1,1 0,0,0 2,2 A1,1 0,0,0 0,2 A1,1 0,0,0 0,0" transform="translate(10 40)" />
<path d="M0,0 A1,1 0,0,0 2,0 A1,1 0,0,0 2,2 A1,1 0,0,0 0,2 A1,1 0,0,0 0,0" transform="translate(12 0)" />
<path d="M0,0 A1,1 0,0,0 2,0 A1,1 0,0,0 2,2 A1,1 0,0,0 0,2 A1,1 0,0,0 0,0" transform="translate(12 2)" />
<path d="M0,0 A1,1 0,0,0 2,0 A1,1 0,0,0 2,2 A1,1 0,0,0 0,2 A1,1 0,0,0 0,0" transform="translate(12 4)" />
<path d="M0,0 A1,1 0,0,0 2,0 A1,1 0,0,0 2,2 A1,1 0,0,0 0,2 A1,1 0,0,0 0,0" transform="translate(12 6)" />
<path d="M0,0 A1,1 0,0,0 2,0 A1,1 0,0,0 2,2 A1,1 0,0,0 0,2 A1,1 0,0,0 0,0" transform="translate(12 8)" />
<path d="M0,0 A1,1 0,0,0 2,0 A1,1 0,0,0 2,2 A1,1 0,0,0 0,2 A1,1 0,0,0 0,0" transform="translate(12 10)" />
<path d="M0,0 A1,1 0,0,0 2,0 A1,1 0,0,0 2,2 A1,1 0,0,0 0,2 A1,1 0,0,0 0,0" transform="translate(12 12)" />
<path d="M0,0 A1,1 0,0,0 2,0 A1,1 0,0,0 2,2 A1,1 0,0,0 0,2 A1,1 0,0,0 0,0" transform="translate(12 16)" />
<path d="M0,0 A1,1 0,0,0 2,0 A1,1 0,0,0 2,2 A1,1 0,0,0 0,2 A1,1 0,0,0 0,0" transform="translate(12 20)" />
<path d="M0,0 A1,1 0,0,0 2,0 A1,1 0,0,0 2,2 A1,1 0,0,0 0,2 A1,1 0,0,0 0,0" transform="translate(12 24)" />
<path d="M0,0 A1,1 0,0,0 2,0 A1,1 0,0,0 2,2 A1,1 0,0,0 0,2 A1,1 0,0,0 0,0" transform="translate(12 28)" />
<path d="M0,0 A1,1 0,0,0 2,0 A1,1 0,0,0 2,2 A1,1 0,0,0 0,2 A1,1 0,0,0 0,0" transform="translate(12 30)" />
<path d="M0,0 A1,1 0,0,0 2,0 A1,1 0,0,0 2,2 A1,1 0,0,0 0,2 A1,1 0,0,0 0,0" transform="translate(12 32)" />
<path d="M0,0 A1,1 0,0,0 2,0 A1,1 0,0,0 2,2 A1,1 0,0,0 0,2 A1,1 0,0,0 0,0" transform="translate(12 34)" />
<path d="M0,0 A1,1 0,0,0 2,0 A1,1 0,0,0 2,2 A1,1 0,0,0 0,2 A1,1 0,0,0 0,0" transform="translate(12 36)" />
<path d="M0,0 A1,1 0,0,0 2,0 A1,1 0,0,0 2,2 A1,1 0,0,0 0,2 A1,1 0,0,0 0,0" transform="translate(12 38)" />
<path d="M0,0 A1,1 0,0,0 2,0 A1,1 0,0,0 2,2 A1,1 0,0,0 0,2 A1,1 0,0,0 0,0" transform="translate(12 40)" />
<path d="M0,0 A1,1 0,0,0 2,0 A1,1 0,0,0 2,2 A1,1 0,0,0 0,2 A1,1 0,0,0 0,0" transform="translate(14 16)" />
<path d="M0,0 A1,1 0,0,0 2,0 A1,1 0,0,0 2,2 A1,1 0,0,0 0,2 A1,1 0,0,0 0,0" transform="translate(14 20)" />
<path d="M0,0 A1,1 0,0,0 2,0 A1,1 0,0,0 2,2 A1,1 0,0,0 0,2 A1,1 0,0,0 0,0" transform="translate(14 22)" />
<path d="M0,0 A1,1 0,0,0 2,0 A1,1 0,0,0 2,2 A1,1 0,0,0 0,2 A1,1 0,0,0 0,0" transform="translate(14 24)" />
<path d="M0,0 A1,1 0,0,0 2,0 A1,1 0,0,0 2,2 A1,1 0,0,0 0,2 A1,1 0,0,0 0,0" transform="translate(16 0)" />
<path d="M0,0 A1,1 0,0,0 2,0 A1,1 0,0,0 2,2 A1,1 0,0,0 0,2 A1,1 0,0,0 0,0" transform="translate(16 4)" />
<path d="M0,0 A1,1 0,0,0 2,0 A1,1 0,0,0 2,2 A1,1 0,0,0 0,2 A1,1 0,0,0 0,0" transform="translate(16 6)" />
<path d="M0,0 A1,1 0,0,0 2,0 A1,1 0,0,0 2,2 A1,1 0,0,0 0,2 A1,1 0,0,0 0,0" transform="translate(16 8)" />
<path d="M0,0 A1,1 0,0,0 2,0 A1,1 0,0,0 2,2 A1,1 0,0,0 0,2 A1,1 0,0,0 0,0" transform="translate(16 10)" />
<path d="M0,0 A1,1 0,0,0 2,0 A1,1 0,0,0 2,2 A1,1 0,0,0 0,2 A1,1 0,0,0 0,0" transform="translate(16 12)" />
<path d="M0,0 A1,1 0,0,0 2,0 A1,1 0,0,0 2,2 A1,1 0,0,0 0,2 A1,1 0,0,0 0,0" transform="translate(16 24)" />
<path d="M0,0 A1,1 0,0,0 2,0 A1,1 0,0,0 2,2 A1,1 0,0,0 0,2 A1,1 0,0,0 0,0" transform="translate(16 28)" />
<path d="M0,0 A1,1 0,0,0 2,0 A1,1 0,0,0 2,2 A1,1 0,0,0 0,2 A1,1 0,0,0 0,0" transform="translate(16 30)" />
<path d="M0,0 A1,1 0,0,0 2,0 A1,1 0,0,0 2,2 A1,1 0,0,0 0,2 A1,1 0,0,0 0,0" transform="translate(16 32)" />
<path d="M0,0 A1,1 0,0,0 2,0 A1,1 0,0,0 2,2 A1,1 0,0,0 0,2 A1,1 0,0,0 0,0" transform="translate(16 34)" />
<path d="M0,0 A1,1 0,0,0 2,0 A1,1 0,0,0 2,2 A1,1 0,0,0 0,2 A1,1 0,0,0 0,0" transform="translate(16 36)" />
<path d="M0,0 A1,1 0,0,0 2,0 A1,1 0,0,0 2,2 A1,1 0,0,0 0,2 A1,1 0,0,0 0,0" transform="translate(18 2)" />
<path d="M0,0 A1,1 0,0,0 2,0 A1,1 0,0,0 2,2 A1,1 0,0,0 0,2 A1,1 0,0,0 0,0" transform="translate(18 8)" />
<path d="M0,0 A1,1 0,0,0 2,0 A1,1 0,0,0 2,2 A1,1 0,0,0 0,2 A1,1 0,0,0 0,0" transform="translate(18 14)" />
<path d="M0,0 A1,1 0,0,0 2,0 A1,1 0,0,0 2,2 A1,1 0,0,0 0,2 A1,1 0,0,0 0,0" transform="translate(18 20)" />
<path d="M0,0 A1,1 0,0,0 2,0 A1,1 0,0,0 2,2 A1,1 0,0,0 0,2 A1,1 0,0,0 0,0" transform="translate(18 24)" />
<path d="M0,0 A1,1 0,0,0 2,0 A1,1 0,0,0 2,2 A1,1 0,0,0 0,2 A1,1 0,0,0 0,0" transform="translate(18 30)" />
<path d="M0,0 A1,1 0,0,0 2,0 A1,1 0,0,0 2,2 A1,1 0,0,0 0,2 A1,1 0,0,0 0,0" transform="translate(18 36)" />
<path d="M0,0 A1,1 0,0,0 2,0 A1,1 0,0,0 2,2 A1,1 0,0,0 0,2 A1,1 0,0,0 0,0" transform="translate(18 38)" />
<path d="M0,0 A1,1 0,0,0 2,0 A1,1 0,0,0 2,2 A1,1 0,0,0 0,2 A1,1 0,0,0 0,0" transform="translate(18 40)" />
<path d="M0,0 A1,1 0,0,0 2,0 A1,1 0,0,0 2,2 A1,1 0,0,0 0,2 A1,1 0,0,0 0,0" transform="translate(20 0)" />
<path d="M0,0 A1,1 0,0,0 2,0 A1,1 0,0,0 2,2 A1,1 0,0,0 0,2 A1,1 0,0,0 0,0" transform="translate(20 2)" />
<path d="M0,0 A1,1 0,0,0 2,0 A1,1 0,0,0 2,2 A1,1 0,0,0 0,2 A1,1 0,0,0 0,0" transform="translate(20 4)" />
<path d="M0,0 A1,1 0,0,0 2,0 A1,1 0,0,0 2,2 A1,1 0,0,0 0,2 A1,1 0,0,0 0,0" transform="translate(20 10)" />
<path d="M0,0 A1,1 0,0,0 2,0 A1,1 0,0,0 2,2 A1,1 0,0,0 0,2 A1,1 0,0,0 0,0" transform="translate(20 12)" />
<path d="M0,0 A1,1 0,0,0 2,0 A1,1 0,0,0 2,2 A1,1 0,0,0 0,2 A1,1 0,0,0 0,0" transform="translate(20 20)" />
<path d="M0,0 A1,1 0,0,0 2,0 A1,1 0,0,0 2,2 A1,1 0,0,0 0,2 A1,1 0,0,0 0,0" transform="translate(20 22)" />
<path d="M0,0 A1,1 0,0,0 2,0 A1,1 0,0,0 2,2 A1,1 0,0,0 0,2 A1,1 0,0,0 0,0" transform="translate(20 26)" />
<path d="M0,0 A1,1 0,0,0 2,0 A1,1 0,0,0 2,2 A1,1 0,0,0 0,2 A1,1 0,0,0 0,0" transform="translate(20 32)" />
<path d="M0,0 A1,1 0,0,0 2,0 A1,1 0,0,0 2,2 A1,1 0,0,0 0,2 A1,1 0,0,0 0,0" transform="translate(20 36)" />
<path d="M0,0 A1,1 0,0,0 2,0 A1,1 0,0,0 2,2 A1,1 0,0,0 0,2 A1,1 0,0,0 0,0" transform="translate(22 0)" />
<path d="M0,0 A1,1 0,0,0 2,0 A1,1 0,0,0 2,2 A1,1 0,0,0 0,2 A1,1 0,0,0 0,0" transform="translate(22 2)" />
<path d="M0,0 A1,1 0,0,0 2,0 A1,1 0,0,0 2,2 A1,1 0,0,0 0,2 A1,1 0,0,0 0,0" transform="translate(22 10)" />
<path d="M0,0 A1,1 0,0,0 2,0 A1,1 0,0,0 2,2 A1,1 0,0,0 0,2 A1,1 0,0,0 0,0" transform="translate(22 18)" />
<path d="M0,0 A1,1 0,0,0 2,0 A1,1 0,0,0 2,2 A1,1 0,0,0 0,2 A1,1 0,0,0 0,0" transform="translate(22 20)" />
<path d="M0,0 A1,1 0,0,0 2,0 A1,1 0,0,0 2,2 A1,1 0,0,0 0,2 A1,1 0,0,0 0,0" transform="translate(22 30)" />
<path d="M0,0 A1,1 0,0,0 2,0 A1,1 0,0,0 2,2 A1,1 0,0,0 0,2 A1,1 0,0,0 0,0" transform="translate(22 32)" />
<path d="M0,0 A1,1 0,0,0 2,0 A1,1 0,0,0 2,2 A1,1 0,0,0 0,2 A1,1 0,0,0 0,0" transform="translate(22 36)" />
<path d="M0,0 A1,1 0,0,0 2,0 A1,1 0,0,0 2,2 A1,1 0,0,0 0,2 A1,1 0,0,0 0,0" transform="translate(24 0)" />
<path d="M0,0 A1,1 0,0,0 2,0 A1,1 0,0,0 2,2 A1,1 0,0,0 0,2 A1,1 0,0,0 0,0" transform="translate(24 4)" />
<path d="M0,0 A1,1 0,0,0 2,0 A1,1 0,0,0 2,2 A1,1 0,0,0 0,2 A1,1 0,0,0 0,0" transform="translate(24 6)" />
<path d="M0,0 A1,1 0,0,0 2,0 A1,1 0,0,0 2,2 A1,1 0,0,0 0,2 A1,1 0,0,0 0,0" transform="translate(24 8)" />
<path d="M0,0 A1,1 0,0,0 2,0 A1,1 0,0,0 2,2 A1,1 0,0,0 0,2 A1,1 0,0,0 0,0" transform="translate(24 10)" />
<path d="M0,0 A1,1 0,0,0 2,0 A1,1 0,0,0 2,2 A1,1 0,0,0 0,2 A1,1 0,0,0 0,0" transform="translate(24 12)" />
<path d="M0,0 A1,1 0,0,0 2,0 A1,1 0,0,0 2,2 A1,1 0,0,0 0,2 A1,1 0,0,0 0,0" transform="translate(24 18)" />
<path d="M0,0 A1,1 0,0,0 2,0 A1,1 0,0,0 2,2 A1,1 0,0,0 0,2 A1,1 0,0,0 0,0" transform="translate(24 20)" />
<path d="M0,0 A1,1 0,0,0 2,0 A1,1 0,0,0 2,2 A1,1 0,0,0 0,2 A1,1 0,0,0 0,0" transform="translate(24 22)" />
<path d="M0,0 A1,1 0,0,0 2,0 A1,1 0,0,0 2,2 A1,1 0,0,0 0,2 A1,1 0,0,0 0,0" transform="translate(24 26)" />
<path d="M0,0 A1,1 0,0,0 2,0 A1,1 0,0,0 2,2 A1,1 0,0,0 0,2 A1,1 0,0,0 0,0" transform="translate(24 32)" />
<path d="M0,0 A1,1 0,0,0 2,0 A1,1 0,0,0 2,2 A1,1 0,0,0 0,2 A1,1 0,0,0 0,0" transform="translate(24 34)" />
<path d="M0,0 A1,1 0,0,0 2,0 A1,1 0,0,0 2,2 A1,1 0,0,0 0,2 A1,1 0,0,0 0,0" transform="translate(26 16)" />
<path d="M0,0 A1,1 0,0,0 2,0 A1,1 0,0,0 2,2 A1,1 0,0,0 0,2 A1,1 0,0,0 0,0" transform="translate(26 18)" />
<path d="M0,0 A1,1 0,0,0 2,0 A1,1 0,0,0 2,2 A1,1 0,0,0 0,2 A1,1 0,0,0 0,0" transform="translate(26 20)" />
<path d="M0,0 A1,1 0,0,0 2,0 A1,1 0,0,0 2,2 A1,1 0,0,0 0,2 A1,1 0,0,0 0,0" transform="translate(26 22)" />
<path d="M0,0 A1,1 0,0,0 2,0 A1,1 0,0,0 2,2 A1,1 0,0,0 0,2 A1,1 0,0,0 0,0" transform="translate(26 24)" />
<path d="M0,0 A1,1 0,0,0 2,0 A1,1 0,0,0 2,2 A1,1 0,0,0 0,2 A1,1 0,0,0 0,0" transform="translate(26 26)" />
<path d="M0,0 A1,1 0,0,0 2,0 A1,1 0,0,0 2,2 A1,1 0,0,0 0,2 A1,1 0,0,0 0,0" transform="translate(26 28)" />
<path d="M0,0 A1,1 0,0,0 2,0 A1,1 0,0,0 2,2 A1,1 0,0,0 0,2 A1,1 0,0,0 0,0" transform="translate(26 36)" />
<path d="M0,0 A1,1 0,0,0 2,0 A1,1 0,0,0 2,2 A1,1 0,0,0 0,2 A1,1 0,0,0 0,0" transform="translate(26 38)" />
<path d="M0,0 A1,1 0,0,0 2,0 A1,1 0,0,0 2,2 A1,1 0,0,0 0,2 A1,1 0,0,0 0,0" transform="translate(28 0)" />
<path d="M0,0 A1,1 0,0,0 2,0 A1,1 0,0,0 2,2 A1,1 0,0,0 0,2 A1,1 0,0,0 0,0" transform="translate(28 2)" />
<path d="M0,0 A1,1 0,0,0 2,0 A1,1 0,0,0 2,2 A1,1 0,0,0 0,2 A1,1 0,0,0 0,0" transform="translate(28 4)" />
<path d="M0,0 A1,1 0,0,0 2,0 A1,1 0,0,0 2,2 A1,1 0,0,0 0,2 A1,1 0,0,0 0,0" transform="translate(28 6)" />
<path d="M0,0 A1,1 0,0,0 2,0 A1,1 0,0,0 2,2 A1,1 0,0,0 0,2 A1,1 0,0,0 0,0" transform="translate(28 8)" />
<path d="M0,0 A1,1 0,0,0 2,0 A1,1 0,0,0 2,2 A1,1 0,0,0 0,2 A1,1 0,0,0 0,0" transform="translate(28 10)" />
<path d="M0,0 A1,1 0,0,0 2,0 A1,1 0,0,0 2,2 A1,1 0,0,0 0,2 A1,1 0,0,0 0,0" transform="translate(28 12)" />
<path d="M0,0 A1,1 0,0,0 2,0 A1,1 0,0,0 2,2 A1,1 0,0,0 0,2 A1,1 0,0,0 0,0" transform="translate(28 20)" />
<path d="M0,0 A1,1 0,0,0 2,0 A1,1 0,0,0 2,2 A1,1 0,0,0 0,2 A1,1 0,0,0 0,0" transform="translate(28 24)" />
<path d="M0,0 A1,1 0,0,0 2,0 A1,1 0,0,0 2,2 A1,1 0,0,0 0,2 A1,1 0,0,0 0,0" transform="translate(28 28)" />
<path d="M0,0 A1,1 0,0,0 2,0 A1,1 0,0,0 2,2 A1,1 0,0,0 0,2 A1,1 0,0,0 0,0" transform="translate(28 30)" />
<path d="M0,0 A1,1 0,0,0 2,0 A1,1 0,0,0 2,2 A1,1 0,0,0 0,2 A1,1 0,0,0 0,0" transform="translate(28 34)" />
<path d="M0,0 A1,1 0,0,0 2,0 A1,1 0,0,0 2,2 A1,1 0,0,0 0,2 A1,1 0,0,0 0,0" transform="translate(28 36)" />
<path d="M0,0 A1,1 0,0,0 2,0 A1,1 0,0,0 2,2 A1,1 0,0,0 0,2 A1,1 0,0,0 0,0" transform="translate(28 38)" />
<path d="M0,0 A1,1 0,0,0 2,0 A1,1 0,0,0 2,2 A1,1 0,0,0 0,2 A1,1 0,0,0 0,0" transform="translate(30 0)" />
<path d="M0,0 A1,1 0,0,0 2,0 A1,1 0,0,0 2,2 A1,1 0,0,0 0,2 A1,1 0,0,0 0,0" transform="translate(30 12)" />
<path d="M0,0 A1,1 0,0,0 2,0 A1,1 0,0,0 2,2 A1,1 0,0,0 0,2 A1,1 0,0,0 0,0" transform="translate(30 16)" />
<path d="M0,0 A1,1 0,0,0 2,0 A1,1 0,0,0 2,2 A1,1 0,0,0 0,2 A1,1 0,0,0 0,0" transform="translate(30 22)" />
<path d="M0,0 A1,1 0,0,0 2,0 A1,1 0,0,0 2,2 A1,1 0,0,0 0,2 A1,1 0,0,0 0,0" transform="translate(30 24)" />
<path d="M0,0 A1,1 0,0,0 2,0 A1,1 0,0,0 2,2 A1,1 0,0,0 0,2 A1,1 0,0,0 0,0" transform="translate(30 26)" />
<path d="M0,0 A1,1 0,0,0 2,0 A1,1 0,0,0 2,2 A1,1 0,0,0 0,2 A1,1 0,0,0 0,0" transform="translate(30 28)" />
<path d="M0,0 A1,1 0,0,0 2,0 A1,1 0,0,0 2,2 A1,1 0,0,0 0,2 A1,1 0,0,0 0,0" transform="translate(30 36)" />
<path d="M0,0 A1,1 0,0,0 2,0 A1,1 0,0,0 2,2 A1,1 0,0,0 0,2 A1,1 0,0,0 0,0" transform="translate(32 0)" />
<path d="M0,0 A1,1 0,0,0 2,0 A1,1 0,0,0 2,2 A1,1 0,0,0 0,2 A1,1 0,0,0 0,0" transform="translate(32 4)" />
<path d="M0,0 A1,1 0,0,0 2,0 A1,1 0,0,0 2,2 A1,1 0,0,0 0,2 A1,1 0,0,0 0,0" transform="translate(32 6)" />
<path d="M0,0 A1,1 0,0,0 2,0 A1,1 0,0,0 2,2 A1,1 0,0,0 0,2 A1,1 0,0,0 0,0" transform="translate(32 8)" />
<path d="M0,0 A1,1 0,0,0 2,0 A1,1 0,0,0 2,2 A1,1 0,0,0 0,2 A1,1 0,0,0 0,0" transform="translate(32 12)" />
<path d="M0,0 A1,1 0,0,0 2,0 A1,1 0,0,0 2,2 A1,1 0,0,0 0,2 A1,1 0,0,0 0,0" transform="translate(32 16)" />
<path d="M0,0 A1,1 0,0,0 2,0 A1,1 0,0,0 2,2 A1,1 0,0,0 0,2 A1,1 0,0,0 0,0" transform="translate(32 18)" />
<path d="M0,0 A1,1 0,0,0 2,0 A1,1 0,0,0 2,2 A1,1 0,0,0 0,2 A1,1 0,0,0 0,0" transform="translate(32 20)" />
<path d="M0,0 A1,1 0,0,0 2,0 A1,1 0,0,0 2,2 A1,1 0,0,0 0,2 A1,1 0,0,0 0,0" transform="translate(32 24)" />
<path d="M0,0 A1,1 0,0,0 2,0 A1,1 0,0,0 2,2 A1,1 0,0,0 0,2 A1,1 0,0,0 0,0" transform="translate(32 30)" />
<path d="M0,0 A1,1 0,0,0 2,0 A1,1 0,0,0 2,2 A1,1 0,0,0 0,2 A1,1 0,0,0 0,0" transform="translate(32 34)" />
<path d="M0,0 A1,1 0,0,0 2,0 A1,1 0,0,0 2,2 A1,1 0,0,0 0,2 A1,1 0,0,0 0,0" transform="translate(32 38)" />
<path d="M0,0 A1,1 0,0,0 2,0 A1,1 0,0,0 2,2 A1,1 0,0,0 0,2 A1,1 0,0,0 0,0" transform="translate(34 0)" />
<path d="M0,0 A1,1 0,0,0 2,0 A1,1 0,0,0 2,2 A1,1 0,0,0 0,2 A1,1 0,0,0 0,0" transform="translate(34 4)" />
<path d="M0,0 A1,1 0,0,0 2,0 A1,1 0,0,0 2,2 A1,1 0,0,0 0,2 A1,1 0,0,0 0,0" transform="translate(34 6)" />
<path d="M0,0 A1,1 0,0,0 2,0 A1,1 0,0,0 2,2 A1,1 0,0,0 0,2 A1,1 0,0,0 0,0" transform="translate(34 8)" />
<path d="M0,0 A1,1 0,0,0 2,0 A1,1 0,0,0 2,2 A1,1 0,0,0 0,2 A1,1 0,0,0 0,0" transform="translate(34 12)" />
<path d="M0,0 A1,1 0,0,0 2,0 A1,1 0,0,0 2,2 A1,1 0,0,0 0,2 A1,1 0,0,0 0,0" transform="translate(34 16)" />
<path d="M0,0 A1,1 0,0,0 2,0 A1,1 0,0,0 2,2 A1,1 0,0,0 0,2 A1,1 0,0,0 0,0" transform="translate(34 18)" />
<path d="M0,0 A1,1 0,0,0 2,0 A1,1 0,0,0 2,2 A1,1 0,0,0 0,2 A1,1 0,0,0 0,0" transform="translate(34 24)" />
<path d="M0,0 A1,1 0,0,0 2,0 A1,1 0,0,0 2,2 A1,1 0,0,0 0,2 A1,1 0,0,0 0,0" transform="translate(34 30)" />
<path d="M0,0 A1,1 0,0,0 2,0 A1,1 0,0,0 2,2 A1,1 0,0,0 0,2 A1,1 0,0,0 0,0" transform="translate(34 36)" />
<path d="M0,0 A1,1 0,0,0 2,0 A1,1 0,0,0 2,2 A1,1 0,0,0 0,2 A1,1 0,0,0 0,0" transform="translate(36 0)" />
<path d="M0,0 A1,1 0,0,0 2,0 A1,1 0,0,0 2,2 A1,1 0,0,0 0,2 A1,1 0,0,0 0,0" transform="translate(36 4)" />
<path d="M0,0 A1,1 0,0,0 2,0 A1,1 0,0,0 2,2 A1,1 0,0,0 0,2 A1,1 0,0,0 0,0" transform="translate(36 6)" />
<path d="M0,0 A1,1 0,0,0 2,0 A1,1 0,0,0 2,2 A1,1 0,0,0 0,2 A1,1 0,0,0 0,0" transform="translate(36 8)" />
<path d="M0,0 A1,1 0,0,0 2,0 A1,1 0,0,0 2,2 A1,1 0,0,0 0,2 A1,1 0,0,0 0,0" transform="translate(36 12)" />
<path d="M0,0 A1,1 0,0,0 2,0 A1,1 0,0,0 2,2 A1,1 0,0,0 0,2 A1,1 0,0,0 0,0" transform="translate(36 16)" />
<path d="M0,0 A1,1 0,0,0 2,0 A1,1 0,0,0 2,2 A1,1 0,0,0 0,2 A1,1 0,0,0 0,0" transform="translate(36 20)" />
<path d="M0,0 A1,1 0,0,0 2,0 A1,1 0,0,0 2,2 A1,1 0,0,0 0,2 A1,1 0,0,0 0,0" transform="translate(36 22)" />
<path d="M0,0 A1,1 0,0,0 2,0 A1,1 0,0,0 2,2 A1,1 0,0,0 0,2 A1,1 0,0,0 0,0" transform="translate(36 26)" />
<path d="M0,0 A1,1 0,0,0 2,0 A1,1 0,0,0 2,2 A1,1 0,0,0 0,2 A1,1 0,0,0 0,0" transform="translate(36 32)" />
<path d="M0,0 A1,1 0,0,0 2,0 A1,1 0,0,0 2,2 A1,1 0,0,0 0,2 A1,1 0,0,0 0,0" transform="translate(36 34)" />
<path d="M0,0 A1,1 0,0,0 2,0 A1,1 0,0,0 2,2 A1,1 0,0,0 0,2 A1,1 0,0,0 0,0" transform="translate(36 36)" />
<path d="M0,0 A1,1 0,0,0 2,0 A1,1 0,0,0 2,2 A1,1 0,0,0 0,2 A1,1 0,0,0 0,0" transform="translate(38 0)" />
<path d="M0,0 A1,1 0,0,0 2,0 A1,1 0,0,0 2,2 A1,1 0,0,0 0,2 A1,1 0,0,0 0,0" transform="translate(38 12)" />
<path d="M0,0 A1,1 0,0,0 2,0 A1,1 0,0,0 2,2 A1,1 0,0,0 0,2 A1,1 0,0,0 0,0" transform="translate(38 20)" />
<path d="M0,0 A1,1 0,0,0 2,0 A1,1 0,0,0 2,2 A1,1 0,0,0 0,2 A1,1 0,0,0 0,0" transform="translate(38 30)" />
<path d="M0,0 A1,1 0,0,0 2,0 A1,1 0,0,0 2,2 A1,1 0,0,0 0,2 A1,1 0,0,0 0,0" transform="translate(38 32)" />
<path d="M0,0 A1,1 0,0,0 2,0 A1,1 0,0,0 2,2 A1,1 0,0,0 0,2 A1,1 0,0,0 0,0" transform="translate(38 36)" />
<path d="M0,0 A1,1 0,0,0 2,0 A1,1 0,0,0 2,2 A1,1 0,0,0 0,2 A1,1 0,0,0 0,0" transform="translate(40 0)" />
<path d="M0,0 A1,1 0,0,0 2,0 A1,1 0,0,0 2,2 A1,1 0,0,0 0,2 A1,1 0,0,0 0,0" transform="translate(40 2)" />
<path d="M0,0 A1,1 0,0,0 2,0 A1,1 0,0,0 2,2 A1,1 0,0,0 0,2 A1,1 0,0,0 0,0" transform="translate(40 4)" />
<path d="M0,0 A1,1 0,0,0 2,0 A1,1 0,0,0 2,2 A1,1 0,0,0 0,2 A1,1 0,0,0 0,0" transform="translate(40 6)" />
<path d="M0,0 A1,1 0,0,0 2,0 A1,1 0,0,0 2,2 A1,1 0,0,0 0,2 A1,1 0,0,0 0,0" transform="translate(40 8)" />
<path d="M0,0 A1,1 0,0,0 2,0 A1,1 0,0,0 2,2 A1,1 0,0,0 0,2 A1,1 0,0,0 0,0" transform="translate(40 10)" />
<path d="M0,0 A1,1 0,0,0 2,0 A1,1 0,0,0 2,2 A1,1 0,0,0 0,2 A1,1 0,0,0 0,0" transform="translate(40 12)" />
<path d="M0,0 A1,1 0,0,0 2,0 A1,1 0,0,0 2,2 A1,1 0,0,0 0,2 A1,1 0,0,0 0,0" transform="translate(40 16)" />
<path d="M0,0 A1,1 0,0,0 2,0 A1,1 0,0,0 2,2 A1,1 0,0,0 0,2 A1,1 0,0,0 0,0" transform="translate(40 20)" />
<path d="M0,0 A1,1 0,0,0 2,0 A1,1 0,0,0 2,2 A1,1 0,0,0 0,2 A1,1 0,0,0 0,0" transform="translate(40 22)" />
<path d="M0,0 A1,1 0,0,0 2,0 A1,1 0,0,0 2,2 A1,1 0,0,0 0,2 A1,1 0,0,0 0,0" transform="translate(40 26)" />
<path d="M0,0 A1,1 0,0,0 2,0 A1,1 0,0,0 2,2 A1,1 0,0,0 0,2 A1,1 0,0,0 0,0" transform="translate(40 32)" />
<path d="M0,0 A1,1 0,0,0 2,0 A1,1 0,0,0 2,2 A1,1 0,0,0 0,2 A1,1 0,0,0 0,0" transform="translate(40 36)" />
<path d="M0,0 A1,1 0,0,0 2,0 A1,1 0,0,0 2,2 A1,1 0,0,0 0,2 A1,1 0,0,0 0,0" transform="translate(40 38)" />
</svg>
