<svg id="Layer_1" data-name="Layer 1" xmlns="http://www.w3.org/2000/svg" width="816" height="40" viewBox="0 0 816 40">
    <defs>
        <style>
            .cls-1 {
                fill: #ffc300;
            }

            .cls-2 {
                fill: #fff;
            }

            .cls-3 {
                fill: #21409a;
            }

            .cls-4 {
                fill: #272d68;
            }
        </style>
    </defs>
    <polygon class="cls-1" points="777,41 810,0 834,0 43,0 6,40" />
    <circle class="cls-3" cx="408" cy="20" r="15.5" />
    <path class="cls-2"
        d="M413.6,26l-3.2-3.2a1.5,1.5,0,0,1,0-2l4.7-4.7c.2-.2.2-.5,0-.6l-1.7-1.8h-.6l-1.1,1.1-.7-.7,1.1-1.1a1.5,1.5,0,0,1,1-.4,1.8,1.8,0,0,1,1,.4l1.7,1.8a1.3,1.3,0,0,1,0,2l-4.7,4.7a.5.5,0,0,0,0,.6l3.2,3.2Z" />
    <rect class="cls-2" x="413.3" y="22.7" width="2.8" height="7.36" rx="1.4"
        transform="translate(102.8 301) rotate(-45)" />
    <rect class="cls-2" x="399.8" y="19" width="2.1" height="2.12" transform="translate(103.2 289.3) rotate(-45)" />
    <rect class="cls-1" x="400.1" y="16.5" width="13.8" height="4.6" rx="0.9"
        transform="translate(106 293.3) rotate(-45)" />
    <rect class="cls-1" x="401.3" y="17.5" width="2.1" height="2.12" transform="translate(104.7 289.9) rotate(-45)" />
    <rect class="cls-2" x="402.8" y="16" width="2.1" height="2.12" transform="translate(106.2 290.5) rotate(-45)" />
    <rect class="cls-1" x="404.3" y="14.5" width="2.1" height="2.12" transform="translate(107.7 291.2) rotate(-45)" />
    <rect class="cls-3" x="405.8" y="13" width="2.1" height="2.12" transform="translate(109.2 291.8) rotate(-45)" />
    <rect class="cls-2" x="407.3" y="11.5" width="2.1" height="2.12" transform="translate(110.7 292.4) rotate(-45)" />
    <rect class="cls-1" x="398.3" y="17.5" width="2.1" height="2.12" transform="translate(103.9 287.8) rotate(-45)" />
    <rect class="cls-1" x="401.3" y="14.5" width="2.1" height="2.12" transform="translate(106.8 289) rotate(-45)" />
    <rect class="cls-1" x="404.3" y="11.5" width="2.1" height="2.12" transform="translate(109.8 290.3) rotate(-45)" />
    <rect class="cls-1" x="405.8" y="10" width="2.1" height="2.12" transform="translate(111.3 290.9) rotate(-45)" />
    <rect class="cls-1" x="399.8" y="13" width="2.1" height="2.12" transform="translate(107.5 287.5) rotate(-45)" />
    <rect class="cls-1" x="404.3" y="8.5" width="2.1" height="2.12" transform="translate(112 289.4) rotate(-45)" />
    <rect class="cls-1" x="395.3" y="14.5" width="2.1" height="2.12" transform="translate(105.1 284.8) rotate(-45)" />
    <rect class="cls-1" x="399.8" y="10" width="2.1" height="2.12" transform="translate(109.6 286.7) rotate(-45)" />
    <path class="cls-2"
        d="M414.3,24.1l-.3-.4a1.5,1.5,0,0,0-2,0h0a1.5,1.5,0,0,0,0,2l.4.3a.9.9,0,0,1,0-1.3l.6-.6A.9.9,0,0,1,414.3,24.1Z" />
    <path class="cls-3"
        d="M403.8,25.3a1,1,0,0,1-.9-.4l-2-2a1.3,1.3,0,0,1-.4-.9,1.5,1.5,0,0,1,.4-.9l8.5-8.5a1.5,1.5,0,0,1,.9-.4,1.3,1.3,0,0,1,.9.4l2,2a1.3,1.3,0,0,1,0,1.8l-8.5,8.5A1,1,0,0,1,403.8,25.3ZM410.3,13l-.4.2-8.4,8.4a.8.8,0,0,0-.2.4.8.8,0,0,0,.2.4l1.9,1.9.4.2.4-.2,8.4-8.4.2-.4-.2-.4-1.9-1.9Z" />
    <path class="cls-2"
        d="M416.3,30a1.2,1.2,0,0,1-.9-.4l-3.9-3.9a1.3,1.3,0,0,1,0-1.8l.7-.7a1.3,1.3,0,0,1,1.8,0l3.9,3.9a1.2,1.2,0,0,1,0,1.9l-.6.6A1.3,1.3,0,0,1,416.3,30Zm-3.2-6.4-.4.2-.6.6a.6.6,0,0,0,0,.8l3.9,3.9h.7l.7-.7a.5.5,0,0,0,0-.7l-3.9-3.9Z" />
    <path class="cls-3"
        d="M447.2,29.7h-2.7l-4.4-6.8h-2.3v6.8h-2.3V13h5.7a5,5,0,0,1,5.3,5,4.8,4.8,0,0,1-1.1,3,4.1,4.1,0,0,1-2.8,1.7Zm-6-14.6h-3.4v5.7h3a3.7,3.7,0,0,0,2.5-.8,2.5,2.5,0,0,0,.9-2,2.9,2.9,0,0,0-.8-2.1A2.9,2.9,0,0,0,441.2,15.1Z" />
    <path class="cls-3"
        d="M459.5,23.4a5.9,5.9,0,0,1-.1,1.1h-9.6a4.6,4.6,0,0,0,1.3,2.6,4.6,4.6,0,0,0,2.9.9,6.2,6.2,0,0,0,2.3-.4,7.5,7.5,0,0,0,2-1l.9,1.7a6.7,6.7,0,0,1-2.4,1.2,8.7,8.7,0,0,1-2.8.5,6.5,6.5,0,0,1-2.9-.6A4.6,4.6,0,0,1,449,28a8.4,8.4,0,0,1-1.1-2.1,8.5,8.5,0,0,1-.4-2.3,6.4,6.4,0,0,1,1.7-4.5,6,6,0,0,1,4.5-1.8,5.7,5.7,0,0,1,4.2,1.6A6.1,6.1,0,0,1,459.5,23.4Zm-9.7-.7h7.5a3.9,3.9,0,0,0-1.1-2.5,3.3,3.3,0,0,0-2.5-1,3.5,3.5,0,0,0-2.6,1A4,4,0,0,0,449.8,22.7Z" />
    <path class="cls-3"
        d="M463.8,29.7h-2.2V17.6h2.1v1.7a4.3,4.3,0,0,1,3.9-2,4.7,4.7,0,0,1,3.4,1.3,5.1,5.1,0,0,1,1.4,3.8v7.3h-2.2V23a4.1,4.1,0,0,0-.8-2.7,2.8,2.8,0,0,0-2.3-1,3.1,3.1,0,0,0-2.4,1,4,4,0,0,0-.9,2.7Z" />
    <path class="cls-3"
        d="M480.8,30a6.2,6.2,0,0,1-4.6-1.8,6.5,6.5,0,0,1-1.8-4.6,6.1,6.1,0,0,1,1.8-4.5,6.2,6.2,0,0,1,4.6-1.8,6.1,6.1,0,0,1,4.5,1.8,6.7,6.7,0,0,1,0,9.1A6.1,6.1,0,0,1,480.8,30Zm4.1-6.4a4.1,4.1,0,0,0-1.2-3,3.7,3.7,0,0,0-2.9-1.3,3.8,3.8,0,0,0-3,1.3,4.1,4.1,0,0,0-1.2,3,4.3,4.3,0,0,0,1.2,3.1,3.8,3.8,0,0,0,3,1.3,3.7,3.7,0,0,0,2.9-1.3A4.3,4.3,0,0,0,484.9,23.6Z" />
    <path class="cls-3" d="M493.1,26.7l3.6-9.1h2.4l-5.3,12.1h-1.5L487,17.6h2.4Z" />
    <path class="cls-3"
        d="M509.7,19.4V17.6h2.1V29.7h-2.1V28a5.3,5.3,0,0,1-4.2,2,5.6,5.6,0,0,1-4.4-1.9,6.4,6.4,0,0,1-1.7-4.5,6.1,6.1,0,0,1,1.7-4.5,5.9,5.9,0,0,1,4.4-1.8A5.1,5.1,0,0,1,509.7,19.4Zm.2,4.2a4.1,4.1,0,0,0-1.2-3,4.1,4.1,0,0,0-6,0,4.4,4.4,0,0,0-1.1,3,4.5,4.5,0,0,0,1.1,3.1,4.1,4.1,0,0,0,6,0A4.1,4.1,0,0,0,509.9,23.6Z" />
    <path class="cls-3"
        d="M521.8,27.3l.8,1.7a4.7,4.7,0,0,1-3.2,1,3.6,3.6,0,0,1-2.9-1.2,5.4,5.4,0,0,1-1-3.3V19.4h-2.1V17.6h2.2V13.3h2.1v4.3H522v1.8h-4.3v6.2c0,1.6.6,2.4,1.9,2.4A3.6,3.6,0,0,0,521.8,27.3Z" />
    <path class="cls-3"
        d="M535,23.4a5.9,5.9,0,0,1-.1,1.1h-9.6a4.6,4.6,0,0,0,1.3,2.6,4.4,4.4,0,0,0,2.9.9,6.2,6.2,0,0,0,2.3-.4,7.5,7.5,0,0,0,2-1l.9,1.7a6.7,6.7,0,0,1-2.4,1.2,9.2,9.2,0,0,1-2.8.5,6.5,6.5,0,0,1-2.9-.6,4.6,4.6,0,0,1-2.1-1.4,8.4,8.4,0,0,1-1.1-2.1,5.9,5.9,0,0,1-.4-2.3,6.4,6.4,0,0,1,1.7-4.5,5.9,5.9,0,0,1,4.4-1.8,5.4,5.4,0,0,1,4.2,1.6A6.1,6.1,0,0,1,535,23.4Zm-9.7-.7h7.5a3.9,3.9,0,0,0-1.1-2.5,3.4,3.4,0,0,0-2.6-1,3.5,3.5,0,0,0-2.5,1A4,4,0,0,0,525.3,22.7Z" />
    <path class="cls-4"
        d="M249.5,30,244,13.2h3.7L251,24.5l3.8-11.3H257l3.8,11.3,3.4-11.3h3.6L262.3,30h-2.8l-3.6-11-3.5,11Z" />
    <path class="cls-4"
        d="M269.3,30V12.8h3.1v6.4a4.3,4.3,0,0,1,3.8-1.9,4.5,4.5,0,0,1,3.4,1.3,4.8,4.8,0,0,1,1.4,3.8V30h-3.1V23.3c0-2-1.1-3.1-2.6-3.1a2.9,2.9,0,0,0-2.9,3.2V30Z" />
    <path class="cls-4"
        d="M282.9,15.7a1.9,1.9,0,0,1,0-2.8,2.1,2.1,0,0,1,2.8,0,2.1,2.1,0,0,1,0,2.8A2.1,2.1,0,0,1,282.9,15.7Z" />
    <rect class="cls-4" x="282.7" y="17.6" width="3.2" height="12.33" />
    <path class="cls-4"
        d="M297.6,29.2a6.7,6.7,0,0,1-3.7,1.1c-2.8,0-4.3-1.7-4.3-4.9V20.3h-2V17.6h2V13.3h3.2v4.3h4.1v2.7h-4.1v4.9c0,1.4.6,2.2,1.7,2.2a3.5,3.5,0,0,0,2.1-.7Z" />
    <path class="cls-4"
        d="M310.8,24.9h-9.3a3.3,3.3,0,0,0,3.6,2.6,7.8,7.8,0,0,0,4-1.2l1.3,2.2a8.7,8.7,0,0,1-5.4,1.7,6.7,6.7,0,0,1-5-1.8,6.9,6.9,0,0,1-1.7-4.6,6.2,6.2,0,0,1,1.8-4.6,5.9,5.9,0,0,1,4.6-1.9,6,6,0,0,1,4.4,1.7,5.8,5.8,0,0,1,1.8,4.5C310.9,23.9,310.8,24.4,310.8,24.9Zm-9.3-2.4h6.3a3,3,0,0,0-3.1-2.5A3.1,3.1,0,0,0,301.5,22.5Z" />
    <path class="cls-4"
        d="M312.3,26.8l1.1-.8a4.8,4.8,0,0,0,4.4,2.9,4,4,0,0,0,2.7-.9,3,3,0,0,0,1.1-2.3c0-1.3-.7-2.1-2.2-2.9l-1.7-.8-1.7-.7c-1.9-1-2.8-2.3-2.8-4a4,4,0,0,1,1.3-3.1A5.1,5.1,0,0,1,318,13a5.4,5.4,0,0,1,4.7,2.4l-1,.9a4.4,4.4,0,0,0-3.7-2.1c-2,0-3.4,1.2-3.4,3a3.2,3.2,0,0,0,2,2.8l1.9.9,1.9.9a4.2,4.2,0,0,1,2.7,3.8,4.3,4.3,0,0,1-1.5,3.4,6.3,6.3,0,0,1-9.3-2.2Z" />
    <path class="cls-4"
        d="M326,19.4a6.3,6.3,0,0,1,10.8,4.5,6.1,6.1,0,0,1-1.8,4.5,6.3,6.3,0,0,1-9,0,6.1,6.1,0,0,1-1.8-4.5A6.1,6.1,0,0,1,326,19.4Zm8.1,8.1a5.3,5.3,0,0,0,0-7.2,4.8,4.8,0,0,0-3.6-1.5,4.7,4.7,0,0,0-3.5,1.5,5.3,5.3,0,0,0,0,7.2,4.7,4.7,0,0,0,3.5,1.5A4.8,4.8,0,0,0,334.1,27.5Z" />
    <path class="cls-4"
        d="M339.4,28.9a4.9,4.9,0,0,1-1.3-3.7V17.9h1.3v7.3A3.5,3.5,0,0,0,343,29c2.3,0,3.6-1.5,3.6-3.8V17.9H348v7.3c0,3.1-1.9,5.1-5,5.1A4.9,4.9,0,0,1,339.4,28.9Z" />
    <path class="cls-4" d="M350,30V17.9h1.3v1.9a3.6,3.6,0,0,1,3.5-2.3l1.5.2V19l-1.3-.2c-2.2,0-3.5,1.8-3.5,4.3V30Z" />
    <path class="cls-4"
        d="M358.5,28.5a6.1,6.1,0,0,1-1.7-4.6,6,6,0,0,1,1.7-4.5,6.2,6.2,0,0,1,4.6-1.8,6.1,6.1,0,0,1,5.4,3.1l-1.1.6a4.9,4.9,0,0,0-4.3-2.5,4.6,4.6,0,0,0-3.6,1.5,4.9,4.9,0,0,0-1.4,3.6,5.3,5.3,0,0,0,1.4,3.7,4.6,4.6,0,0,0,3.4,1.4,5.2,5.2,0,0,0,4.4-2.5l1.1.7a5.8,5.8,0,0,1-2.2,2.2,6.8,6.8,0,0,1-7.7-.9Z" />
    <path class="cls-4"
        d="M381.3,24.4H371.2a4.6,4.6,0,0,0,4.9,4.6,7.5,7.5,0,0,0,4.4-1.5l.6,1.1a8.6,8.6,0,0,1-5.1,1.6c-4.4,0-6.2-3.2-6.2-6.3a6.2,6.2,0,0,1,1.6-4.5,5.7,5.7,0,0,1,4.4-1.8,5.5,5.5,0,0,1,5.6,5.8A5.1,5.1,0,0,1,381.3,24.4Zm-10.1-1.2H380a4.1,4.1,0,0,0-4.2-4.4A4.5,4.5,0,0,0,371.2,23.2Z" />
    <rect class="cls-3" x="774.8" y="39.8" width="3.6" height="3.64" transform="translate(198.1 561.3) rotate(-45)" />
    <rect class="cls-1" x="777.3" y="37.2" width="3.6" height="3.64" transform="translate(200.6 562.4) rotate(-45)" />
    <rect class="cls-3" x="785" y="29.5" width="3.6" height="3.64" transform="translate(208.3 565.6) rotate(-45)" />
    <rect class="cls-2" x="779.9" y="34.6" width="3.6" height="3.64" transform="translate(203.2 563.4) rotate(-45)" />
    <rect class="cls-1" x="785.1" y="29.4" width="3.6" height="3.64" transform="translate(208.4 565.6) rotate(-45)" />
    <rect class="cls-2" x="772.2" y="37.2" width="3.6" height="3.64" transform="translate(199.1 558.7) rotate(-45)" />
    <rect class="cls-2" x="782.5" y="26.9" width="3.6" height="3.64" transform="translate(209.4 563) rotate(-45)" />
    <rect class="cls-2" x="779.9" y="39.7" width="3.6" height="3.64" transform="translate(199.6 564.9) rotate(-45)" />
    <rect class="cls-1" x="777.3" y="32" width="3.6" height="3.64" transform="translate(204.3 560.9) rotate(-45)" />
    <rect class="cls-3" x="779.9" y="29.5" width="3.6" height="3.64" transform="translate(206.8 561.9) rotate(-45)" />
    <rect class="cls-3" x="769.6" y="34.6" width="3.6" height="3.64" transform="translate(200.2 556.2) rotate(-45)" />
    <rect class="cls-1" x="777.3" y="26.9" width="3.6" height="3.64" transform="translate(207.9 559.4) rotate(-45)" />
    <rect class="cls-1" x="777.3" y="21.8" width="3.6" height="3.64" transform="translate(211.5 557.8) rotate(-45)" />
    <rect class="cls-1" x="769.6" y="29.5" width="3.6" height="3.64" transform="translate(203.8 554.6) rotate(-45)" />
    <rect class="cls-1" x="789.1" y="38.1" width="7.3" height="3.64" transform="translate(203.9 572.2) rotate(-45)" />
    <rect class="cls-2" x="794.7" y="34.3" width="3.6" height="3.64" transform="translate(207.8 573.8) rotate(-45)" />
    <rect class="cls-1" x="797.3" y="31.7" width="3.6" height="3.64" transform="translate(210.3 574.9) rotate(-45)" />
    <rect class="cls-2" x="805" y="24" width="3.6" height="3.64" transform="translate(218 578.1) rotate(-45)" />
    <rect class="cls-2" x="799.9" y="29.2" width="3.6" height="3.64" transform="translate(212.9 576) rotate(-45)" />
    <rect class="cls-1" x="805" y="24" width="3.6" height="3.64" transform="translate(218.1 578.1) rotate(-45)" />
    <rect class="cls-1" x="792.2" y="31.7" width="3.6" height="3.64" transform="translate(208.8 571.3) rotate(-45)" />
    <rect class="cls-2" x="802.5" y="21.4" width="3.6" height="3.64" transform="translate(219.1 575.5) rotate(-45)" />
    <rect class="cls-2" x="799.9" y="34.3" width="3.6" height="3.64" transform="translate(209.3 577.4) rotate(-45)" />
    <rect class="cls-2" x="797.3" y="26.6" width="3.6" height="3.64" transform="translate(214 573.4) rotate(-45)" />
    <rect class="cls-1" x="799.9" y="24" width="3.6" height="3.64" transform="translate(216.5 574.4) rotate(-45)" />
    <rect class="cls-2" x="789.6" y="29.2" width="3.6" height="3.64" transform="translate(209.9 568.7) rotate(-45)" />
    <rect class="cls-1" x="797.3" y="21.4" width="3.6" height="3.64" transform="translate(217.6 571.9) rotate(-45)" />
    <rect class="cls-2" x="797.3" y="16.3" width="3.6" height="3.64" transform="translate(221.2 570.3) rotate(-45)" />
    <rect class="cls-2" x="789.6" y="24" width="3.6" height="3.64" transform="translate(213.5 567.2) rotate(-45)" />
    <rect class="cls-1" x="788.9" y="12" width="7.3" height="3.64" transform="translate(222.4 564.5) rotate(-45)" />
    <rect class="cls-2" x="794.6" y="8.2" width="3.6" height="3.64" transform="translate(226.2 566) rotate(-45)" />
    <rect class="cls-1" x="797.1" y="5.6" width="3.6" height="3.64" transform="translate(228.8 567.1) rotate(-45)" />
    <rect class="cls-2" x="804.8" y="-2.1" width="3.6" height="3.64" transform="translate(236.5 570.3) rotate(-45)" />
    <rect class="cls-2" x="799.7" y="3" width="3.6" height="3.64" transform="translate(231.3 568.2) rotate(-45)" />
    <rect class="cls-1" x="804.9" y="-2.1" width="3.6" height="3.64" transform="translate(236.5 570.3) rotate(-45)" />
    <rect class="cls-1" x="792" y="5.6" width="3.6" height="3.64" transform="translate(227.3 563.5) rotate(-45)" />
    <rect class="cls-2" x="799.7" y="8.1" width="3.6" height="3.64" transform="translate(227.7 569.7) rotate(-45)" />
    <rect class="cls-2" x="797.1" y="0.4" width="3.6" height="3.64" transform="translate(232.4 565.6) rotate(-45)" />
    <rect class="cls-1" x="799.7" y="-2.1" width="3.6" height="3.64" transform="translate(235 566.7) rotate(-45)" />
    <rect class="cls-2" x="789.4" y="3" width="3.6" height="3.64" transform="translate(228.3 560.9) rotate(-45)" />
    <rect class="cls-1" x="792" y="21" width="3.6" height="3.64" transform="translate(216.4 568) rotate(-45)" />
    <rect class="cls-2" x="792" y="15.9" width="3.6" height="3.61" transform="translate(220 566.5) rotate(-45)" />
    <rect class="cls-2" x="789.4" y="-2.1" width="3.6" height="3.64" transform="translate(232 559.4) rotate(-45)" />
    <rect class="cls-1" x="815.4" y="-2" width="3.6" height="3.64" transform="translate(1395.3 577.6) rotate(-135)" />
    <rect class="cls-2" x="810.3" y="-2" width="3.6" height="3.64" transform="translate(1386.5 574) rotate(-135)" />
    <rect class="cls-1" x="1.1" y="41.6" width="7.3" height="3.64" transform="translate(-29.3 16.1) rotate(-45)" />
    <rect class="cls-3" x="6.8" y="37.8" width="3.6" height="3.64" transform="translate(-25.5 17.7) rotate(-45)" />
    <rect class="cls-1" x="9.3" y="35.2" width="3.6" height="3.64" transform="translate(-22.9 18.7) rotate(-45)" />
    <rect class="cls-3" x="17" y="27.5" width="3.6" height="3.64" transform="translate(-15.2 21.9) rotate(-45)" />
    <rect class="cls-2" x="11.9" y="32.6" width="3.6" height="3.64" transform="translate(-20.3 19.8) rotate(-45)" />
    <rect class="cls-1" x="17.1" y="27.4" width="3.6" height="3.64" transform="translate(-15.2 21.9) rotate(-45)" />
    <rect class="cls-2" x="4.2" y="35.2" width="3.6" height="3.64" transform="translate(-24.4 15.1) rotate(-45)" />
    <rect class="cls-2" x="14.5" y="24.9" width="3.6" height="3.64" transform="translate(-14.1 19.4) rotate(-45)" />
    <rect class="cls-2" x="11.9" y="37.7" width="3.6" height="3.64" transform="translate(-24 21.3) rotate(-45)" />
    <rect class="cls-1" x="9.3" y="30" width="3.6" height="3.64" transform="translate(-19.3 17.2) rotate(-45)" />
    <rect class="cls-3" x="11.9" y="27.5" width="3.6" height="3.64" transform="translate(-16.7 18.3) rotate(-45)" />
    <rect class="cls-3" x="1.6" y="32.6" width="3.6" height="3.64" transform="translate(-23.3 12.5) rotate(-45)" />
    <rect class="cls-1" x="9.3" y="24.9" width="3.6" height="3.64" transform="translate(-15.6 15.7) rotate(-45)" />
    <rect class="cls-1" x="9.3" y="19.8" width="3.6" height="3.64" transform="translate(-12 14.2) rotate(-45)" />
    <rect class="cls-1" x="1.6" y="27.5" width="3.6" height="3.64" transform="translate(-19.7 11) rotate(-45)" />
    <rect class="cls-1" x="21.1" y="36.1" width="7.3" height="3.64" transform="translate(-19.6 28.6) rotate(-45)" />
    <rect class="cls-2" x="26.7" y="32.3" width="3.6" height="3.64" transform="translate(-15.8 30.2) rotate(-45)" />
    <rect class="cls-1" x="29.3" y="29.7" width="3.6" height="3.64" transform="translate(-13.2 31.3) rotate(-45)" />
    <rect class="cls-2" x="37" y="22" width="3.6" height="3.64" transform="translate(-5.5 34.4) rotate(-45)" />
    <rect class="cls-2" x="31.9" y="27.2" width="3.6" height="3.64" transform="translate(-10.6 32.3) rotate(-45)" />
    <rect class="cls-1" x="37" y="22" width="3.6" height="3.64" transform="translate(-5.5 34.5) rotate(-45)" />
    <rect class="cls-1" x="24.2" y="29.7" width="3.6" height="3.64" transform="translate(-14.7 27.6) rotate(-45)" />
    <rect class="cls-2" x="34.5" y="19.4" width="3.6" height="3.64" transform="translate(-4.4 31.9) rotate(-45)" />
    <rect class="cls-2" x="31.9" y="32.3" width="3.6" height="3.64" transform="translate(-14.3 33.8) rotate(-45)" />
    <rect class="cls-2" x="29.3" y="24.6" width="3.6" height="3.64" transform="translate(-9.6 29.7) rotate(-45)" />
    <rect class="cls-1" x="31.9" y="22" width="3.6" height="3.64" transform="translate(-7 30.8) rotate(-45)" />
    <rect class="cls-2" x="21.6" y="27.2" width="3.6" height="3.64" transform="translate(-13.6 25) rotate(-45)" />
    <rect class="cls-1" x="29.3" y="19.4" width="3.6" height="3.64" transform="translate(-5.9 28.2) rotate(-45)" />
    <rect class="cls-2" x="24.2" y="40" width="3.6" height="3.61" transform="translate(-22 30.6) rotate(-45)" />
    <rect class="cls-2" x="29.3" y="14.3" width="3.6" height="3.64" transform="translate(-2.3 26.7) rotate(-45)" />
    <rect class="cls-2" x="21.6" y="22" width="3.6" height="3.64" transform="translate(-10 23.5) rotate(-45)" />
    <rect class="cls-1" x="20.9" y="10" width="7.3" height="3.64" transform="translate(-1.2 20.8) rotate(-45)" />
    <rect class="cls-2" x="26.6" y="6.2" width="3.6" height="3.64" transform="translate(2.7 22.4) rotate(-45)" />
    <rect class="cls-1" x="29.1" y="3.6" width="3.6" height="3.64" transform="translate(5.2 23.5) rotate(-45)" />
    <rect class="cls-2" x="36.8" y="-4.1" width="3.6" height="3.64" transform="translate(12.9 26.7) rotate(-45)" />
    <rect class="cls-2" x="31.7" y="1" width="3.6" height="3.64" transform="translate(7.8 24.5) rotate(-45)" />
    <rect class="cls-1" x="36.9" y="-4.1" width="3.6" height="3.64" transform="translate(13 26.7) rotate(-45)" />
    <rect class="cls-1" x="24" y="3.6" width="3.6" height="3.64" transform="translate(3.7 19.8) rotate(-45)" />
    <rect class="cls-2" x="31.7" y="6.1" width="3.6" height="3.64" transform="translate(4.2 26) rotate(-45)" />
    <rect class="cls-2" x="29.1" y="-1.6" width="3.6" height="3.64" transform="translate(8.9 22) rotate(-45)" />
    <rect class="cls-1" x="31.7" y="-4.1" width="3.6" height="3.64" transform="translate(11.4 23) rotate(-45)" />
    <rect class="cls-2" x="21.4" y="1" width="3.6" height="3.64" transform="translate(4.8 17.3) rotate(-45)" />
    <rect class="cls-1" x="24" y="19" width="3.6" height="3.64" transform="translate(-7.2 24.4) rotate(-45)" />
    <rect class="cls-2" x="24" y="13.9" width="3.6" height="3.61" transform="translate(-3.5 22.8) rotate(-45)" />
    <rect class="cls-2" x="21.4" y="-4.1" width="3.6" height="3.64" transform="translate(8.4 15.7) rotate(-45)" />
    <rect class="cls-2" x="54.6" y="-5.3" width="7.3" height="3.64" transform="translate(101.9 35.2) rotate(-135)" />
    <rect class="cls-1" x="47.4" y="-4" width="3.6" height="3.64" transform="translate(85.6 31.1) rotate(-135)" />
    <rect class="cls-2" x="42.3" y="-4" width="3.6" height="3.64" transform="translate(76.8 27.5) rotate(-135)" />
</svg>